G04*
G04 #@! TF.GenerationSoftware,Altium Limited,Altium Designer,24.3.1 (35)*
G04*
G04 Layer_Physical_Order=1*
G04 Layer_Color=6711008*
%FSLAX44Y44*%
%MOMM*%
G71*
G04*
G04 #@! TF.SameCoordinates,FBE6CC02-A050-44FB-85DA-F6A5CD5A1D8C*
G04*
G04*
G04 #@! TF.FilePolarity,Positive*
G04*
G01*
G75*
%ADD10C,0.2000*%
%ADD16C,0.2032*%
%ADD17C,0.1200*%
%ADD20R,0.8000X1.7000*%
%ADD21R,0.4000X0.4000*%
%ADD22R,0.5000X0.5000*%
%ADD23R,1.9000X1.1000*%
%ADD24R,0.8000X0.8000*%
%ADD25R,3.6000X3.6000*%
%ADD26R,0.3000X0.8000*%
%ADD27R,0.8000X0.3000*%
%ADD28R,1.0500X0.8500*%
%ADD29R,0.9000X0.3000*%
%ADD30R,1.8000X1.1000*%
%ADD31R,0.3000X0.3500*%
%ADD32R,0.3500X0.3000*%
%ADD33R,2.3000X4.8500*%
%ADD34R,1.0160X1.0160*%
%ADD35R,1.0500X0.5000*%
%ADD36R,1.2000X0.8000*%
%ADD37R,1.2000X0.7600*%
%ADD38R,1.2000X0.7000*%
%ADD66R,0.6000X0.5000*%
%ADD67R,0.5000X0.6000*%
%ADD68C,0.5080*%
%ADD69C,0.2540*%
%ADD70C,0.4000*%
%ADD71C,0.4826*%
%ADD72C,0.1200*%
%ADD73C,1.5750*%
%ADD74R,1.5750X1.5750*%
%ADD75C,0.4250*%
%ADD76C,1.5240*%
%ADD77R,1.0700X1.0700*%
%ADD78C,1.0700*%
%ADD79R,1.5750X1.5750*%
%ADD80C,2.0100*%
%ADD81C,0.6500*%
%ADD82C,0.5500*%
%ADD83C,0.7500*%
G36*
X397000Y336570D02*
X396001Y336371D01*
X395009Y335709D01*
X395009Y335708D01*
X386270Y326970D01*
X385000Y327496D01*
Y327750D01*
X375000D01*
Y326309D01*
X371250D01*
Y327750D01*
X371250Y327750D01*
Y328750D01*
X371250D01*
X371250Y329020D01*
Y337750D01*
X370896D01*
Y340378D01*
X371534Y341919D01*
Y344007D01*
X370845Y345671D01*
X371390Y346941D01*
X397000D01*
Y336570D01*
D02*
G37*
G36*
X496941Y3059D02*
X409000D01*
Y18992D01*
X419231Y29223D01*
X419894Y30216D01*
X420127Y31386D01*
X420127Y31386D01*
Y38698D01*
X422068D01*
Y40135D01*
X425569D01*
Y38688D01*
X435569D01*
Y47688D01*
X435569D01*
Y48689D01*
X435569D01*
Y50538D01*
X450454D01*
X464159Y36832D01*
X464159Y36832D01*
X465019Y36258D01*
X466034Y36056D01*
X466034Y36056D01*
X481899D01*
X481899Y36056D01*
X482914Y36258D01*
X483774Y36832D01*
X490221Y43280D01*
X490796Y44140D01*
X490998Y45155D01*
Y66448D01*
X490796Y67462D01*
X490221Y68322D01*
X490221Y68322D01*
X474163Y84381D01*
Y253904D01*
X474163Y253904D01*
X473961Y254919D01*
X473386Y255779D01*
X473386Y255779D01*
X469828Y259337D01*
Y279205D01*
X469627Y280220D01*
X469052Y281080D01*
X469052Y281080D01*
X432556Y317576D01*
X431696Y318151D01*
X430681Y318353D01*
X430681Y318353D01*
X386105D01*
X385000Y318750D01*
Y320191D01*
X386876D01*
X386876Y320191D01*
X388046Y320424D01*
X389039Y321087D01*
X395827Y327875D01*
X397000Y327389D01*
Y326500D01*
X409000D01*
Y346941D01*
X496941D01*
Y3059D01*
D02*
G37*
G36*
X361724Y345671D02*
X361034Y344007D01*
Y341919D01*
X361638Y340461D01*
Y337750D01*
X361250D01*
Y329020D01*
X361250Y328750D01*
X361250D01*
Y327750D01*
X361250D01*
Y326309D01*
X358398D01*
X357586Y327121D01*
X357500Y327579D01*
Y328750D01*
X357500Y329020D01*
Y337750D01*
X347500D01*
Y336578D01*
X343356D01*
X343279Y336763D01*
X341802Y338240D01*
X339873Y339039D01*
X337784D01*
X335855Y338240D01*
X334378Y336763D01*
X333579Y334834D01*
Y332745D01*
X334378Y330815D01*
X335855Y329338D01*
X337784Y328539D01*
X339873D01*
X341802Y329338D01*
X342925Y330461D01*
X347500D01*
Y329020D01*
X347500Y328750D01*
Y327750D01*
X347500Y327480D01*
Y318750D01*
X346395Y318353D01*
X255845D01*
X255844Y318353D01*
X254830Y318151D01*
X253970Y317576D01*
X244045Y307651D01*
X226500D01*
Y309000D01*
X220000D01*
Y309000D01*
X212000D01*
Y308089D01*
X211086Y307093D01*
X209197D01*
X208861Y306953D01*
X207401Y307723D01*
X207000Y308690D01*
Y314706D01*
X221500D01*
X222281Y314861D01*
X222942Y315303D01*
X223384Y315965D01*
X223539Y316745D01*
Y346750D01*
X223696Y346941D01*
X361179D01*
X361724Y345671D01*
D02*
G37*
G36*
X169461Y346750D02*
Y316745D01*
X169616Y315965D01*
X170058Y315303D01*
X170720Y314861D01*
X171500Y314706D01*
X172312D01*
X172861Y313436D01*
X172250Y311962D01*
Y310072D01*
X172257Y310056D01*
X171551Y309000D01*
X166500D01*
Y308334D01*
X161087D01*
X159397Y309034D01*
X157309D01*
X155379Y308235D01*
X153902Y306758D01*
X153103Y304828D01*
Y302740D01*
X153728Y301232D01*
X153092Y299961D01*
X115173D01*
X97835Y317299D01*
X98321Y318472D01*
X101579D01*
Y322824D01*
X101707Y323472D01*
Y323892D01*
X101611Y324380D01*
Y331412D01*
X102250Y332956D01*
Y335044D01*
X101451Y336974D01*
X99974Y338451D01*
X98044Y339250D01*
X95956D01*
X94026Y338451D01*
X92549Y336974D01*
X91750Y335044D01*
Y332956D01*
X92353Y331501D01*
Y324578D01*
X91083Y324052D01*
X88187Y326947D01*
Y331722D01*
X88187Y331722D01*
X87955Y332892D01*
X87291Y333885D01*
X87291Y333885D01*
X83191Y337985D01*
X82198Y338648D01*
X81028Y338881D01*
X81028Y338881D01*
X38792D01*
X37622Y338648D01*
X36630Y337985D01*
X36630Y337985D01*
X32516Y333871D01*
X31853Y332879D01*
X31620Y331708D01*
X31620Y331708D01*
Y330193D01*
X30166Y329354D01*
X28797Y327985D01*
X27829Y326309D01*
X27329Y324440D01*
Y322505D01*
X27829Y320635D01*
X28797Y318959D01*
X29830Y317927D01*
X30042Y317122D01*
X29830Y316318D01*
X29133Y315621D01*
X28328Y315409D01*
X27524Y315621D01*
X26491Y316654D01*
X24815Y317621D01*
X22946Y318122D01*
X21011D01*
X19141Y317621D01*
X17465Y316654D01*
X16097Y315285D01*
X15129Y313609D01*
X14628Y311740D01*
Y309805D01*
X15129Y307935D01*
X16097Y306259D01*
X17465Y304891D01*
X19141Y303923D01*
X19347Y303868D01*
Y303594D01*
X19347Y303594D01*
X19580Y302423D01*
X20243Y301431D01*
X31500Y290174D01*
Y288206D01*
X32299Y286276D01*
X32305Y286270D01*
X31779Y285000D01*
X24770D01*
X24500Y285000D01*
X23500D01*
X23230Y285000D01*
X14500D01*
Y284629D01*
X12544D01*
X11044Y285250D01*
X8956D01*
X7026Y284451D01*
X5549Y282974D01*
X4750Y281044D01*
Y278956D01*
X5549Y277026D01*
X7026Y275549D01*
X8956Y274750D01*
X11044D01*
X12544Y275371D01*
X14500D01*
Y275000D01*
X23230D01*
X23500Y275000D01*
X24500D01*
X24770Y275000D01*
X33500D01*
Y276941D01*
X35578D01*
X35578Y276941D01*
X36749Y277174D01*
X36750Y277175D01*
X36751Y277174D01*
X37922Y276941D01*
X37922Y276941D01*
X40500D01*
Y275000D01*
X49500D01*
Y285000D01*
X41721D01*
X41195Y286270D01*
X41201Y286276D01*
X42000Y288206D01*
Y290294D01*
X41201Y292224D01*
X39724Y293701D01*
X37794Y294500D01*
X35826D01*
X26369Y303957D01*
X26492Y304891D01*
X27524Y305924D01*
X28328Y306136D01*
X29133Y305924D01*
X30166Y304891D01*
X31841Y303923D01*
X33711Y303422D01*
X35646D01*
X37515Y303923D01*
X39192Y304891D01*
X40224Y305924D01*
X41028Y306136D01*
X41833Y305924D01*
X42866Y304891D01*
X44542Y303923D01*
X45702Y303612D01*
X45813Y303054D01*
X46476Y302062D01*
X73270Y275268D01*
X74263Y274604D01*
X75433Y274372D01*
X75433Y274372D01*
X83403D01*
X84795Y272980D01*
X86724Y272180D01*
X88813D01*
X90742Y272980D01*
X92219Y274457D01*
X93019Y276386D01*
Y278475D01*
X92219Y280404D01*
X90742Y281881D01*
X88813Y282680D01*
X86724D01*
X84795Y281881D01*
X83403Y280489D01*
X76700D01*
X52375Y304814D01*
X53033Y305952D01*
X53728Y306136D01*
X54533Y305924D01*
X55566Y304891D01*
X57242Y303923D01*
X59111Y303422D01*
X61046D01*
X62916Y303923D01*
X64591Y304891D01*
X65624Y305924D01*
X66428Y306136D01*
X67233Y305924D01*
X68266Y304891D01*
X69942Y303923D01*
X71811Y303422D01*
X72749D01*
X72944Y303130D01*
X88939Y287136D01*
X89931Y286473D01*
X91101Y286240D01*
X91102Y286240D01*
X96381D01*
X97773Y284848D01*
X99702Y284049D01*
X101791D01*
X103721Y284848D01*
X105197Y286325D01*
X105997Y288254D01*
Y290343D01*
X105772Y290887D01*
X106848Y291606D01*
X108617Y289837D01*
X108617Y289837D01*
X109609Y289174D01*
X110780Y288941D01*
X110780Y288941D01*
X122840D01*
X123225Y287671D01*
X123213Y287663D01*
X120174Y284624D01*
X119962Y284835D01*
X118032Y285635D01*
X115943D01*
X114014Y284835D01*
X112537Y283359D01*
X111738Y281429D01*
Y279340D01*
X112537Y277411D01*
X114014Y275934D01*
X115943Y275135D01*
X118032D01*
X119962Y275934D01*
X120346Y276319D01*
X121845Y276021D01*
X122312Y274893D01*
X123789Y273416D01*
X125718Y272617D01*
X127807D01*
X128141Y272755D01*
X129113Y271783D01*
X128807Y271046D01*
Y268958D01*
X129607Y267028D01*
X131083Y265551D01*
X133013Y264752D01*
X135102D01*
X137031Y265551D01*
X138508Y267028D01*
X139062Y268365D01*
X141056D01*
X141056Y268365D01*
X142071Y268567D01*
X142931Y269141D01*
X148707Y274918D01*
X178511D01*
X179449Y273979D01*
Y273900D01*
X179449Y273900D01*
X179500Y273644D01*
Y270000D01*
X173000D01*
Y265296D01*
X172941Y265000D01*
X172941Y265000D01*
Y263676D01*
X169637Y260372D01*
X168974Y259379D01*
X168741Y258209D01*
X168741Y258209D01*
Y256551D01*
X164149Y251959D01*
X162180D01*
X160251Y251160D01*
X158774Y249683D01*
X157975Y247753D01*
Y245665D01*
X158774Y243735D01*
X160251Y242258D01*
X162180Y241459D01*
X164269D01*
X166199Y242258D01*
X167675Y243735D01*
X168475Y245665D01*
Y247633D01*
X173962Y253121D01*
X173962Y253121D01*
X174626Y254113D01*
X174858Y255284D01*
X174858Y255284D01*
Y255913D01*
X175127Y256124D01*
X176658Y255726D01*
X176664Y255711D01*
X178141Y254234D01*
X180070Y253435D01*
X182159D01*
X184088Y254234D01*
X185565Y255711D01*
X186365Y257641D01*
Y259173D01*
X187931Y260740D01*
X188443Y260842D01*
X189524Y261565D01*
X189960Y262000D01*
X194000D01*
Y268500D01*
X199000D01*
Y262000D01*
X199941D01*
Y258715D01*
X199941Y258714D01*
X200174Y257544D01*
X200837Y256551D01*
X220313Y237076D01*
Y222702D01*
X220313Y222702D01*
X220546Y221532D01*
X221209Y220539D01*
X240239Y201509D01*
X239753Y200336D01*
X238369D01*
X238171Y200814D01*
X236553Y202432D01*
X234440Y203307D01*
X232153D01*
X230039Y202432D01*
X228422Y200814D01*
X227546Y198701D01*
Y196414D01*
X228422Y194300D01*
X230039Y192683D01*
X232153Y191807D01*
X234440D01*
X236553Y192683D01*
X238089Y194218D01*
X242320D01*
Y193496D01*
X242820D01*
Y187996D01*
X242873D01*
Y185157D01*
X241662Y183946D01*
X240863Y182016D01*
Y179927D01*
X241662Y177998D01*
X242055Y177604D01*
X241805Y176334D01*
X241805D01*
Y166334D01*
X250805D01*
Y176334D01*
X250696D01*
X250170Y177604D01*
X250564Y177998D01*
X251363Y179927D01*
Y182016D01*
X250564Y183946D01*
X249541Y184968D01*
Y187996D01*
X249820D01*
Y193496D01*
Y203496D01*
X257820D01*
Y198496D01*
Y187996D01*
X264820D01*
Y187996D01*
X265821Y188687D01*
X266991Y188920D01*
X267983Y189583D01*
X276135Y197735D01*
X277081Y197480D01*
X277405Y197252D01*
Y149862D01*
X217087Y89545D01*
X216424Y88552D01*
X216191Y87382D01*
X216191Y87381D01*
Y40774D01*
X199423Y24007D01*
X198250Y24492D01*
Y31250D01*
X194059D01*
Y55750D01*
X198250D01*
Y63924D01*
X204488Y70162D01*
X204488Y70162D01*
X205151Y71155D01*
X205384Y72325D01*
X205384Y72325D01*
Y117929D01*
X206825D01*
Y127929D01*
X198095D01*
X197825Y127929D01*
X196825D01*
X196555Y127929D01*
X187825D01*
Y127785D01*
X186229D01*
X164500Y149515D01*
Y197000D01*
X153839D01*
Y225613D01*
X158030D01*
Y234613D01*
X143530D01*
Y225613D01*
X147721D01*
Y197000D01*
X137500D01*
Y144500D01*
X160863D01*
X182799Y122564D01*
X183792Y121901D01*
X184962Y121668D01*
X187825D01*
Y117929D01*
X189266D01*
Y105250D01*
X183750D01*
Y92750D01*
X197996D01*
X198250Y92750D01*
X199266Y92138D01*
Y73592D01*
X193924Y68250D01*
X183750D01*
Y55750D01*
X187941D01*
Y31250D01*
X183750D01*
Y18750D01*
X192507D01*
X192994Y17577D01*
X188658Y13241D01*
X152123D01*
X147780Y17585D01*
Y35340D01*
X147780Y35340D01*
X147547Y36511D01*
X146884Y37503D01*
X140347Y44040D01*
X139355Y44703D01*
X138184Y44935D01*
X138184Y44935D01*
X133311D01*
Y46877D01*
X124581D01*
X124311Y46877D01*
X123311D01*
X123041Y46877D01*
X114311D01*
Y36877D01*
X115752D01*
Y33377D01*
X114311D01*
Y31421D01*
X113215Y31203D01*
X112223Y30540D01*
X104173Y22490D01*
X103000Y22976D01*
Y24500D01*
X91000D01*
Y4329D01*
X91000Y3500D01*
X89913Y3059D01*
X3059D01*
Y93733D01*
X7163Y97837D01*
X7826Y98829D01*
X8059Y100000D01*
X8059Y100000D01*
Y250000D01*
X8059Y250000D01*
X7826Y251170D01*
X7163Y252163D01*
X7163Y252163D01*
X3059Y256267D01*
Y346941D01*
X169304D01*
X169461Y346750D01*
D02*
G37*
G36*
X464527Y278107D02*
Y271514D01*
X464201Y270379D01*
X444451D01*
Y263563D01*
X428372D01*
X428372Y263563D01*
X427202Y263330D01*
X426209Y262667D01*
X426209Y262667D01*
X414429Y250886D01*
X413227Y251481D01*
Y272293D01*
X412875Y274064D01*
X411871Y275566D01*
X411871Y275566D01*
X408895Y278542D01*
X407394Y279545D01*
X405622Y279897D01*
X405622Y279897D01*
X399509D01*
X399213Y279956D01*
X399213Y279956D01*
X391184D01*
Y282407D01*
X377024D01*
Y268247D01*
X391184D01*
Y270698D01*
X398976D01*
X399272Y270639D01*
X399272Y270640D01*
X403705D01*
X403969Y270375D01*
Y252968D01*
X387823Y236822D01*
X386324Y236201D01*
X386231Y236108D01*
X381647D01*
X381646Y236108D01*
X379875Y235756D01*
X378373Y234752D01*
X378373Y234752D01*
X374297Y230676D01*
X374028Y230623D01*
X373569Y230316D01*
X372299Y230995D01*
Y232214D01*
X372363Y232536D01*
Y234088D01*
X376540Y238265D01*
X378120D01*
X380049Y239065D01*
X381526Y240542D01*
X382325Y242471D01*
Y244560D01*
X381526Y246489D01*
X380313Y247703D01*
X380314Y247932D01*
X380572Y248829D01*
X380676Y248999D01*
X391184D01*
Y263159D01*
X377024D01*
Y255058D01*
X376024D01*
X374854Y254825D01*
X373862Y254162D01*
X373862Y254162D01*
X371712Y252012D01*
X366851D01*
X366851Y252013D01*
X365680Y251780D01*
X364688Y251117D01*
X358972Y245401D01*
X357623Y245848D01*
X357000Y247353D01*
X355523Y248830D01*
X354679Y249179D01*
X354589Y249269D01*
Y256670D01*
X354590Y256671D01*
X354572Y256756D01*
Y269627D01*
X354572Y269627D01*
X354426Y270361D01*
Y274644D01*
X345426D01*
Y270292D01*
X345298Y269644D01*
X345314Y269558D01*
Y256688D01*
X345314Y256688D01*
X345331Y256602D01*
Y247352D01*
X345331Y247352D01*
X345509Y246460D01*
X344338Y245835D01*
X343834Y246339D01*
X343396Y246632D01*
Y255337D01*
X329236D01*
Y241177D01*
X340101D01*
X340396Y241118D01*
X340404D01*
X341946Y239576D01*
X341420Y238306D01*
X330299D01*
Y228806D01*
X320799D01*
Y222698D01*
X319529Y221850D01*
X318629Y222223D01*
X316540D01*
X314610Y221423D01*
X314270Y221083D01*
X313000Y221455D01*
Y222500D01*
X303098D01*
Y239502D01*
X303910Y240314D01*
X304368Y240400D01*
X305539D01*
X305809Y240400D01*
X309824D01*
X312182Y238041D01*
X313264Y237318D01*
X314540Y237065D01*
X315281D01*
X315446Y236667D01*
X316923Y235190D01*
X318853Y234391D01*
X320941D01*
X322871Y235190D01*
X324347Y236667D01*
X325147Y238597D01*
Y240685D01*
X324347Y242615D01*
X322871Y244092D01*
X320941Y244891D01*
X318853D01*
X316923Y244092D01*
X316564Y243733D01*
X315921D01*
X314539Y245115D01*
Y250400D01*
X305809D01*
X305539Y250400D01*
X304539D01*
X304269Y250400D01*
X295539D01*
Y249010D01*
X293880D01*
X293797Y249209D01*
X292180Y250826D01*
X290067Y251701D01*
X287779D01*
X285666Y250826D01*
X284048Y249209D01*
X283173Y247095D01*
Y244808D01*
X284048Y242694D01*
X285666Y241077D01*
X287779Y240201D01*
X290067D01*
X292180Y241077D01*
X293797Y242694D01*
X293880Y242893D01*
X295539D01*
Y240400D01*
X296980D01*
Y214091D01*
X296980Y214091D01*
X297213Y212921D01*
X297876Y211929D01*
X306035Y203770D01*
X305508Y202500D01*
X303000D01*
Y202334D01*
X301730Y201808D01*
X300786Y202752D01*
X298673Y203627D01*
X296385D01*
X294272Y202752D01*
X292669Y201149D01*
X292583Y201151D01*
X291399Y201423D01*
Y213147D01*
X291598Y213229D01*
X293215Y214846D01*
X294091Y216960D01*
Y219247D01*
X293215Y221360D01*
X291598Y222978D01*
X289484Y223853D01*
X287387D01*
X287145Y223905D01*
X286213Y224821D01*
Y226390D01*
X285338Y228503D01*
X283721Y230121D01*
X281607Y230996D01*
X279320D01*
X278328Y230585D01*
X277591Y231078D01*
X277242Y231510D01*
X277040Y232526D01*
X276376Y233518D01*
X276376Y233518D01*
X237834Y272061D01*
X238081Y273307D01*
X238672Y273551D01*
X240149Y275028D01*
X240248Y275266D01*
X274500D01*
Y271500D01*
X278557D01*
X279354Y270230D01*
X278767Y268812D01*
Y266525D01*
X279643Y264412D01*
X281260Y262794D01*
X283374Y261919D01*
X285661D01*
X287774Y262794D01*
X289392Y264412D01*
X290267Y266525D01*
Y268812D01*
X289680Y270230D01*
X290477Y271500D01*
X297500D01*
Y280415D01*
X307803D01*
Y278474D01*
X316803D01*
Y288474D01*
X307803D01*
Y286533D01*
X291459D01*
X291459Y286533D01*
X291293Y286500D01*
X274500D01*
Y281384D01*
X252783D01*
X252658Y282654D01*
X252760Y282674D01*
X253752Y283337D01*
X270606Y300190D01*
X274500D01*
Y296500D01*
X297500D01*
Y300056D01*
X308151D01*
Y297872D01*
X317151D01*
Y307872D01*
X308151D01*
Y306173D01*
X297500D01*
Y311500D01*
X274500D01*
Y306308D01*
X269339D01*
X268168Y306075D01*
X267176Y305412D01*
X267176Y305412D01*
X258999Y297235D01*
X257729Y297761D01*
Y298324D01*
X256853Y300438D01*
X255236Y302055D01*
X253122Y302931D01*
X250835D01*
X248722Y302055D01*
X247104Y300438D01*
X246229Y298324D01*
Y296037D01*
X246396Y295633D01*
X245600Y294651D01*
X226500D01*
Y296000D01*
X220000D01*
Y301000D01*
X226500D01*
Y302349D01*
X245143D01*
X245143Y302349D01*
X246157Y302551D01*
X247017Y303125D01*
X256943Y313051D01*
X429583D01*
X464527Y278107D01*
D02*
G37*
G36*
X103054Y295400D02*
X102335Y294324D01*
X101791Y294549D01*
X99702D01*
X97773Y293749D01*
X96381Y292358D01*
X92368D01*
X78563Y306163D01*
X78660Y306259D01*
X79628Y307935D01*
X80128Y309805D01*
Y311740D01*
X79628Y313609D01*
X78910Y314852D01*
X79497Y316122D01*
X80128D01*
Y316666D01*
X81302Y317152D01*
X103054Y295400D01*
D02*
G37*
G36*
X226500Y268500D02*
Y268500D01*
X227576Y268010D01*
X244630Y250957D01*
X244144Y249783D01*
X233871D01*
X220059Y263596D01*
Y265000D01*
X220059Y265000D01*
X220000Y265296D01*
Y268500D01*
X226500D01*
X226500Y268500D01*
D02*
G37*
G36*
X371941Y244839D02*
X371825Y244560D01*
Y242981D01*
X367151Y238306D01*
X365299D01*
Y226306D01*
X369799D01*
Y221806D01*
Y211806D01*
Y201806D01*
Y189306D01*
X332799D01*
Y196806D01*
Y206806D01*
Y216806D01*
Y226306D01*
X342299D01*
Y237427D01*
X343569Y237953D01*
X345240Y236282D01*
Y232806D01*
X345240Y232806D01*
X345299Y232510D01*
Y226306D01*
X362299D01*
Y238306D01*
X361858D01*
Y239635D01*
X368117Y245895D01*
X371235D01*
X371941Y244839D01*
D02*
G37*
G36*
X212000Y262000D02*
X214007D01*
X214174Y261158D01*
X214837Y260166D01*
X230441Y244562D01*
X230441Y244562D01*
X231434Y243899D01*
X232604Y243666D01*
X246264D01*
X247532Y242398D01*
X247284Y241152D01*
X246693Y240907D01*
X245216Y239431D01*
X244417Y237501D01*
Y235412D01*
X245216Y233483D01*
X245973Y232726D01*
X245480Y231456D01*
X245143D01*
Y221456D01*
X245143Y221456D01*
X245399Y220186D01*
X244687Y218468D01*
Y216380D01*
X245486Y214450D01*
X246963Y212973D01*
X247986Y212550D01*
Y210996D01*
X242820D01*
Y209239D01*
X241647Y208753D01*
X226431Y223969D01*
Y238343D01*
X226198Y239513D01*
X225535Y240506D01*
X225535Y240506D01*
X206059Y259981D01*
Y262000D01*
X207000D01*
Y268500D01*
X212000D01*
Y262000D01*
D02*
G37*
G36*
X320799Y197150D02*
Y186806D01*
X320799D01*
X321113Y186048D01*
X308837Y173772D01*
X308174Y172779D01*
X307941Y171609D01*
X307941Y171609D01*
Y168500D01*
X306000D01*
Y159500D01*
X316000D01*
Y168500D01*
X314059D01*
Y170342D01*
X328531Y184815D01*
X329029Y185559D01*
X330299Y185346D01*
Y184132D01*
X325837Y179670D01*
X325174Y178677D01*
X324941Y177507D01*
X324941Y177507D01*
Y168500D01*
X323000D01*
Y159500D01*
X333000D01*
Y168500D01*
X331059D01*
Y176240D01*
X332125Y177306D01*
X335740D01*
Y61039D01*
X335388D01*
Y41289D01*
X355138D01*
Y61039D01*
X341858D01*
Y132096D01*
X343031Y132582D01*
X348038Y127575D01*
Y117671D01*
X346097D01*
Y108671D01*
X356097D01*
Y110113D01*
X397987D01*
X450990Y57109D01*
X450464Y55839D01*
X435569D01*
Y57688D01*
X425569D01*
Y48689D01*
X425569D01*
Y47688D01*
X425569D01*
Y46252D01*
X422068D01*
Y47698D01*
X412068D01*
Y46257D01*
X409467D01*
X408655Y47069D01*
X408568Y47527D01*
Y48698D01*
X408568Y48968D01*
Y57698D01*
X408198D01*
Y59813D01*
X408943Y61614D01*
Y63703D01*
X408144Y65632D01*
X406667Y67109D01*
X404738Y67908D01*
X402649D01*
X400720Y67109D01*
X399243Y65632D01*
X398443Y63703D01*
Y61614D01*
X398940Y60416D01*
Y57698D01*
X398568D01*
Y48968D01*
X398568Y48698D01*
Y47698D01*
X398568Y47428D01*
Y38698D01*
X408568D01*
Y40139D01*
X412068D01*
Y38698D01*
X414010D01*
Y32653D01*
X404674Y23318D01*
X397000D01*
Y3059D01*
X266589D01*
Y17865D01*
X268299D01*
X268299Y17865D01*
X269470Y18097D01*
X270462Y18760D01*
X277481Y25779D01*
X278751Y25253D01*
Y24665D01*
X280192D01*
Y21165D01*
X278751D01*
Y11165D01*
X287481D01*
X287751Y11165D01*
X288751D01*
X289021Y11165D01*
X297751D01*
Y11536D01*
X299865D01*
X301667Y10790D01*
X303755D01*
X305685Y11589D01*
X307162Y13066D01*
X307961Y14995D01*
Y17084D01*
X307162Y19014D01*
X305685Y20490D01*
X303755Y21290D01*
X301667D01*
X300469Y20794D01*
X297751D01*
Y21165D01*
X289021D01*
X288751Y21165D01*
X287751D01*
X287580Y21165D01*
X286310Y21403D01*
Y24665D01*
X287751D01*
Y34665D01*
X286310D01*
Y38165D01*
X287751D01*
Y38165D01*
X288751D01*
Y38165D01*
X297751D01*
Y48165D01*
X296926D01*
Y55131D01*
X296694Y56302D01*
X296031Y57294D01*
X291399Y61925D01*
Y186265D01*
X292669Y186518D01*
X293323Y184939D01*
X294800Y183462D01*
X296730Y182663D01*
X298818D01*
X300736Y183457D01*
X307527D01*
X307743Y183500D01*
X313000D01*
Y192500D01*
X313000D01*
Y193500D01*
X313000D01*
Y194941D01*
X315996D01*
X315996Y194941D01*
X317167Y195174D01*
X318159Y195837D01*
X319529Y197207D01*
X320799Y197150D01*
D02*
G37*
G36*
X422174Y214576D02*
Y205268D01*
X425116D01*
Y200054D01*
X408773Y183711D01*
X407049D01*
Y185306D01*
X398319D01*
X398049Y185306D01*
X397049D01*
X396779Y185306D01*
X391898D01*
X390571Y186633D01*
X391057Y187806D01*
X396779D01*
X397049Y187806D01*
X398049D01*
X398319Y187806D01*
X407049D01*
Y189747D01*
X409916D01*
X409917Y189747D01*
X411087Y189980D01*
X412080Y190643D01*
X417354Y195917D01*
X417354Y195917D01*
X418017Y196909D01*
X418250Y198080D01*
X418250Y198080D01*
Y212310D01*
X421001Y215062D01*
X422174Y214576D01*
D02*
G37*
G36*
X444451Y250629D02*
X464201D01*
Y255728D01*
X464793Y256069D01*
X465471Y256196D01*
X468861Y252806D01*
Y83283D01*
X468861Y83283D01*
X469063Y82268D01*
X469637Y81408D01*
X485696Y65350D01*
Y46450D01*
X485022Y45912D01*
X483792Y46458D01*
Y62705D01*
X464042D01*
Y55889D01*
X460862D01*
X401417Y115334D01*
X400424Y115997D01*
X399254Y116230D01*
X399254Y116230D01*
X356097D01*
Y117671D01*
X354156D01*
Y128842D01*
X353923Y130012D01*
X353260Y131005D01*
X353260Y131005D01*
X345858Y138407D01*
Y168011D01*
X347128Y168860D01*
X348000Y168498D01*
X349000D01*
Y159500D01*
X359000D01*
Y166626D01*
X360173Y167112D01*
X363000Y164285D01*
Y159500D01*
X367352D01*
X368000Y159371D01*
X373015D01*
X373086Y159266D01*
X404930Y127422D01*
X404930Y127422D01*
X416569Y115782D01*
X418071Y114779D01*
X419842Y114427D01*
X419842Y114427D01*
X437402D01*
Y113256D01*
X453402D01*
Y123756D01*
Y133756D01*
Y143656D01*
Y155255D01*
X437402D01*
Y154706D01*
X428265D01*
X428265Y154706D01*
X428265Y154706D01*
X415209D01*
X415209Y154706D01*
X413438Y154354D01*
X411936Y153350D01*
X411936Y153350D01*
X404930Y146344D01*
X403926Y144843D01*
X403673Y143568D01*
X402383Y143067D01*
X402377Y143067D01*
X396526Y148918D01*
X396952Y150288D01*
X398406Y150891D01*
X399883Y152367D01*
X400682Y154297D01*
Y156385D01*
X399883Y158315D01*
X398406Y159792D01*
X396476Y160591D01*
X394508D01*
X376630Y178469D01*
X375869Y178977D01*
X376026Y180110D01*
X376081Y180247D01*
X378539D01*
X395853Y162934D01*
X395853Y162934D01*
X396845Y162271D01*
X398016Y162038D01*
X398016Y162038D01*
X399679D01*
X399815Y161711D01*
X401292Y160234D01*
X403221Y159435D01*
X405310D01*
X407240Y160234D01*
X408717Y161711D01*
X409516Y163640D01*
Y165729D01*
X408717Y167659D01*
X407240Y169135D01*
X405310Y169935D01*
X403221D01*
X401292Y169135D01*
X400482Y168326D01*
X399112D01*
X393306Y174133D01*
X393792Y175306D01*
X396779D01*
X397049Y175306D01*
X398049D01*
X398319Y175306D01*
X407049D01*
Y177594D01*
X410039D01*
X410039Y177594D01*
X411210Y177827D01*
X412202Y178490D01*
X430337Y196625D01*
X430337Y196625D01*
X431000Y197617D01*
X431233Y198787D01*
Y205268D01*
X434174D01*
Y217269D01*
X424867D01*
X424381Y218442D01*
X430349Y224410D01*
X431012Y225402D01*
X431245Y226572D01*
X432486Y226797D01*
X434186D01*
Y238797D01*
X422186D01*
Y226797D01*
X422425D01*
X422911Y225624D01*
X413028Y215740D01*
X412365Y214748D01*
X412132Y213577D01*
X412132Y213577D01*
Y199347D01*
X408650Y195865D01*
X407049D01*
Y197806D01*
X398319D01*
X398049Y197806D01*
X397049D01*
X396779Y197806D01*
X392236D01*
X391726Y198147D01*
X390549Y198381D01*
X390549Y198381D01*
X381799D01*
Y201972D01*
X388049D01*
Y200306D01*
X397049D01*
Y204521D01*
X397212Y205340D01*
X397178Y205511D01*
Y214782D01*
X397250Y214956D01*
Y217044D01*
X396451Y218974D01*
X394974Y220451D01*
X394383Y220695D01*
X394135Y221941D01*
X429639Y257445D01*
X444451D01*
Y250629D01*
D02*
G37*
G36*
X428265Y145448D02*
X431563D01*
X431815Y144178D01*
X430659Y143699D01*
X429182Y142222D01*
X428383Y140293D01*
Y138204D01*
X429182Y136274D01*
X430659Y134798D01*
X432588Y133998D01*
X434677D01*
X436132Y134601D01*
X437402Y133934D01*
Y131959D01*
X430498D01*
X429106Y133351D01*
X427177Y134150D01*
X425088D01*
X423158Y133351D01*
X421682Y131874D01*
X420882Y129944D01*
Y127856D01*
X421682Y125926D01*
X421772Y125836D01*
X421354Y124458D01*
X421048Y124397D01*
X412832Y132612D01*
Y141154D01*
X417126Y145448D01*
X428265D01*
X428265Y145448D01*
D02*
G37*
G36*
X285282Y212544D02*
Y60658D01*
X285282Y60658D01*
X285515Y59488D01*
X286178Y58495D01*
X290809Y53864D01*
Y48165D01*
X288751D01*
Y48165D01*
X287751D01*
Y48165D01*
X278751D01*
Y38165D01*
X280192D01*
Y34665D01*
X278751D01*
Y32723D01*
X277041D01*
X277040Y32723D01*
X275870Y32491D01*
X274878Y31827D01*
X274877Y31827D01*
X267032Y23982D01*
X263589D01*
X263293Y23923D01*
X254589D01*
Y3059D01*
X104087D01*
X103000Y3500D01*
X103000Y4329D01*
Y13795D01*
X103999Y13993D01*
X104991Y14656D01*
X113223Y22889D01*
X114311Y23377D01*
Y23377D01*
X114311Y23377D01*
X115752D01*
Y19877D01*
X114311D01*
Y9877D01*
X123041D01*
X123311Y9877D01*
X124311D01*
X124581Y9877D01*
X133311D01*
Y10123D01*
X135716D01*
X137517Y9377D01*
X139606D01*
X141535Y10176D01*
X143012Y11653D01*
X143174Y12045D01*
X144420Y12293D01*
X148693Y8020D01*
X148693Y8020D01*
X149686Y7357D01*
X150856Y7124D01*
X189925D01*
X189925Y7124D01*
X191096Y7357D01*
X192088Y8020D01*
X221413Y37344D01*
X221413Y37344D01*
X222076Y38337D01*
X222309Y39507D01*
Y86115D01*
X229643Y93448D01*
X230742Y92814D01*
X230500Y91909D01*
Y88091D01*
X231488Y84403D01*
X233397Y81097D01*
X236097Y78397D01*
X239403Y76488D01*
X243091Y75500D01*
X246909D01*
X250597Y76488D01*
X253903Y78397D01*
X256603Y81097D01*
X258512Y84403D01*
X259500Y88091D01*
Y91909D01*
X258512Y95597D01*
X256603Y98903D01*
X253903Y101603D01*
X250597Y103512D01*
X246909Y104500D01*
X243091D01*
X242187Y104258D01*
X241551Y105358D01*
X282626Y146432D01*
X282626Y146432D01*
X283290Y147425D01*
X283522Y148595D01*
Y212229D01*
X284792Y212888D01*
X285282Y212544D01*
D02*
G37*
G36*
X141662Y34073D02*
Y20399D01*
X140392Y19551D01*
X139606Y19877D01*
X137517D01*
X136319Y19381D01*
X133311D01*
Y19877D01*
X124581D01*
X124311Y19877D01*
X123311D01*
X123140Y19877D01*
X121870Y20115D01*
Y23377D01*
X123311D01*
Y33377D01*
X121870D01*
Y35979D01*
X122682Y36791D01*
X123140Y36877D01*
X124311D01*
X124581Y36877D01*
X133311D01*
Y38818D01*
X136917D01*
X141662Y34073D01*
D02*
G37*
%LPC*%
G36*
X421243Y343250D02*
X418757D01*
X416460Y342299D01*
X414701Y340540D01*
X413750Y338243D01*
Y335757D01*
X414701Y333460D01*
X416460Y331702D01*
X418757Y330750D01*
X421243D01*
X423540Y331702D01*
X425299Y333460D01*
X426250Y335757D01*
Y338243D01*
X425299Y340540D01*
X423540Y342299D01*
X421243Y343250D01*
D02*
G37*
G36*
X469895Y323405D02*
X466077D01*
X462389Y322416D01*
X459083Y320508D01*
X456383Y317808D01*
X454474Y314501D01*
X453486Y310814D01*
Y306996D01*
X454474Y303308D01*
X456383Y300002D01*
X459083Y297302D01*
X462389Y295393D01*
X466077Y294405D01*
X469895D01*
X473583Y295393D01*
X476889Y297302D01*
X479589Y300002D01*
X481498Y303308D01*
X482486Y306996D01*
Y310814D01*
X481498Y314501D01*
X479589Y317808D01*
X476889Y320508D01*
X473583Y322416D01*
X469895Y323405D01*
D02*
G37*
G36*
X421243Y19068D02*
X418757D01*
X416460Y18116D01*
X414701Y16358D01*
X413750Y14061D01*
Y11575D01*
X414701Y9277D01*
X416460Y7519D01*
X418757Y6568D01*
X421243D01*
X423540Y7519D01*
X425298Y9277D01*
X426250Y11575D01*
Y14061D01*
X425298Y16358D01*
X423540Y18116D01*
X421243Y19068D01*
D02*
G37*
G36*
X263448Y336509D02*
X251448D01*
Y324509D01*
X263448D01*
Y327451D01*
X270302D01*
Y325137D01*
X279302D01*
Y335137D01*
X270302D01*
Y333568D01*
X263448D01*
Y336509D01*
D02*
G37*
G36*
X246948D02*
X234948D01*
Y324509D01*
X239145D01*
Y320981D01*
X237753Y319589D01*
X236954Y317659D01*
Y315571D01*
X237753Y313641D01*
X239230Y312164D01*
X241160Y311365D01*
X243249D01*
X245178Y312164D01*
X246655Y313641D01*
X247454Y315571D01*
Y317659D01*
X246655Y319589D01*
X245263Y320981D01*
Y324509D01*
X246948D01*
Y336509D01*
D02*
G37*
G36*
X144044Y338250D02*
X141956D01*
X140026Y337451D01*
X138549Y335974D01*
X137750Y334044D01*
Y331956D01*
X138371Y330456D01*
Y323090D01*
X138481Y322539D01*
Y318071D01*
X147481D01*
Y322345D01*
X147629Y323090D01*
Y330456D01*
X148250Y331956D01*
Y334044D01*
X147451Y335974D01*
X145974Y337451D01*
X144044Y338250D01*
D02*
G37*
G36*
X112259Y245368D02*
X102259D01*
Y237113D01*
X96655D01*
X95484Y236880D01*
X94492Y236217D01*
X89833Y231559D01*
X88500D01*
Y237000D01*
X75500D01*
Y230000D01*
Y220000D01*
Y210000D01*
Y200000D01*
X88051D01*
Y198634D01*
X86476Y197059D01*
X82500D01*
X82500Y197059D01*
X82204Y197000D01*
X75500D01*
Y185000D01*
Y175000D01*
Y165000D01*
Y155000D01*
X88500D01*
Y155251D01*
X89754D01*
X89798Y155145D01*
X91275Y153668D01*
X93205Y152869D01*
X95293D01*
X97223Y153668D01*
X98615Y155060D01*
X101000D01*
Y154750D01*
X110000D01*
Y164750D01*
X102341D01*
X101493Y166020D01*
X101518Y166080D01*
Y168169D01*
X101103Y169171D01*
X101951Y170441D01*
X113661D01*
X113661Y170441D01*
X114831Y170674D01*
X115824Y171337D01*
X116240Y171754D01*
X118354D01*
X119249Y170858D01*
X121179Y170059D01*
X123268D01*
X125197Y170858D01*
X126674Y172335D01*
X127473Y174265D01*
Y176353D01*
X126674Y178283D01*
X125197Y179760D01*
X123268Y180559D01*
X121179D01*
X120682Y180353D01*
X119710Y181325D01*
X120000Y182025D01*
Y184114D01*
X119201Y186044D01*
X117724Y187521D01*
X115794Y188320D01*
X113706D01*
X111776Y187521D01*
X110299Y186044D01*
X110024Y185380D01*
X109462Y185341D01*
X108702Y185506D01*
X107990Y187224D01*
X106514Y188701D01*
X104584Y189500D01*
X102495D01*
X102285Y189413D01*
X101370Y190409D01*
X101677Y191000D01*
X110000D01*
Y201000D01*
X107039D01*
X106935Y201522D01*
X106272Y202514D01*
X105960Y202827D01*
X106446Y204000D01*
X110000D01*
Y214000D01*
X101219D01*
X95951Y219268D01*
X96437Y220441D01*
X101000D01*
Y217000D01*
X110000D01*
Y222674D01*
X112267Y224941D01*
X118983D01*
X122474Y221450D01*
X122530Y221413D01*
Y219113D01*
X137030D01*
Y228113D01*
X124463D01*
X122413Y230163D01*
X121678Y230654D01*
X121433Y231673D01*
X121439Y232015D01*
X122530Y232113D01*
Y232113D01*
X137030D01*
Y241113D01*
X122530D01*
Y239672D01*
X120724D01*
X119554Y239439D01*
X118561Y238776D01*
X116899Y237113D01*
X112259D01*
Y245368D01*
D02*
G37*
G36*
X193783Y248470D02*
X184783D01*
Y238470D01*
X184783D01*
X185303Y237199D01*
X184527Y236423D01*
X183727Y234493D01*
Y232405D01*
X184527Y230475D01*
X186003Y228998D01*
X187933Y228199D01*
X190021D01*
X191951Y228998D01*
X193428Y230475D01*
X194227Y232405D01*
Y234493D01*
X193428Y236423D01*
X192651Y237199D01*
X192916Y238470D01*
X193783D01*
Y248470D01*
D02*
G37*
G36*
X110000Y152250D02*
X101000D01*
Y151059D01*
X88500D01*
Y152000D01*
X75500D01*
Y145000D01*
Y135000D01*
Y125000D01*
Y115000D01*
X78941D01*
Y76878D01*
X77137D01*
Y67878D01*
X87136D01*
Y75969D01*
X87137Y75970D01*
X88406Y76497D01*
X91851Y73052D01*
Y67878D01*
X101851D01*
Y69319D01*
X134713D01*
X144195Y59837D01*
X144195Y59837D01*
X145188Y59174D01*
X146358Y58941D01*
X147750D01*
Y55750D01*
X162250D01*
Y68250D01*
X147750D01*
Y66730D01*
X146480Y66204D01*
X138143Y74541D01*
X137151Y75204D01*
X135980Y75437D01*
X135980Y75437D01*
X101851D01*
Y76878D01*
X96677D01*
X92559Y80996D01*
Y108964D01*
X93829Y109350D01*
X93837Y109337D01*
X101000Y102174D01*
Y97500D01*
X111000D01*
Y101022D01*
X112173Y101508D01*
X112345Y101337D01*
X113337Y100674D01*
X114507Y100441D01*
X115000Y99359D01*
Y97500D01*
X125000D01*
Y98941D01*
X147750D01*
Y92750D01*
X162250D01*
Y105250D01*
X147750D01*
Y105059D01*
X125000D01*
Y106500D01*
X118796D01*
X118500Y106559D01*
X118500Y106559D01*
X115774D01*
X106257Y116077D01*
X106742Y117250D01*
X110000D01*
Y127250D01*
X105593D01*
X104267Y128577D01*
X104753Y129750D01*
X110000D01*
Y139750D01*
X101000D01*
Y139750D01*
X100119Y139385D01*
X95736Y143768D01*
X96222Y144941D01*
X101000D01*
Y142250D01*
X110000D01*
Y152250D01*
D02*
G37*
G36*
X203500Y197000D02*
X176500D01*
Y144500D01*
X196954D01*
X198800Y142654D01*
X199421Y141155D01*
X200898Y139678D01*
X202397Y139057D01*
X207721Y133732D01*
X207721Y133732D01*
X209223Y132729D01*
X210994Y132376D01*
X211981Y131624D01*
Y131545D01*
X220981D01*
Y135897D01*
X221110Y136545D01*
Y136965D01*
X220981Y137614D01*
Y141545D01*
X216888D01*
X216441Y141634D01*
X216441Y141634D01*
X212912D01*
X208943Y145603D01*
X208322Y147102D01*
X206845Y148579D01*
X205346Y149200D01*
X203500Y151046D01*
Y197000D01*
D02*
G37*
G36*
X36674Y72000D02*
X33326D01*
X30041Y71347D01*
X26948Y70065D01*
X24163Y68205D01*
X21795Y65837D01*
X19935Y63053D01*
X18653Y59959D01*
X18000Y56674D01*
Y53326D01*
X18653Y50041D01*
X19935Y46947D01*
X21795Y44163D01*
X24163Y41795D01*
X26948Y39935D01*
X30041Y38653D01*
X33326Y38000D01*
X36674D01*
X39959Y38653D01*
X43053Y39935D01*
X45837Y41795D01*
X48205Y44163D01*
X50065Y46947D01*
X51347Y50041D01*
X52000Y53326D01*
Y56674D01*
X51347Y59959D01*
X50065Y63053D01*
X48205Y65837D01*
X45837Y68205D01*
X43053Y70065D01*
X39959Y71347D01*
X36674Y72000D01*
D02*
G37*
G36*
X81243Y20250D02*
X78757D01*
X76460Y19298D01*
X74701Y17540D01*
X73750Y15243D01*
Y12757D01*
X74701Y10460D01*
X76460Y8702D01*
X78757Y7750D01*
X81243D01*
X83540Y8702D01*
X85299Y10460D01*
X86250Y12757D01*
Y15243D01*
X85299Y17540D01*
X83540Y19298D01*
X81243Y20250D01*
D02*
G37*
G36*
X340050Y284877D02*
X337962D01*
X336032Y284078D01*
X334555Y282601D01*
X333756Y280672D01*
Y278583D01*
X334105Y277740D01*
Y275834D01*
X333861Y274589D01*
X333861Y274589D01*
X321201D01*
X321000Y274629D01*
X321000Y274629D01*
X313544D01*
X312044Y275250D01*
X309956D01*
X308026Y274451D01*
X306549Y272974D01*
X305750Y271044D01*
Y268956D01*
X306549Y267026D01*
X308026Y265549D01*
X309956Y264750D01*
X312044D01*
X313544Y265371D01*
X320839D01*
X321040Y265331D01*
X329236D01*
Y260425D01*
X343396D01*
Y274585D01*
X343363D01*
Y276560D01*
X343457Y276653D01*
X344256Y278583D01*
Y280672D01*
X343457Y282601D01*
X341980Y284078D01*
X340050Y284877D01*
D02*
G37*
G36*
X450686Y238797D02*
X438686D01*
Y226797D01*
X440051D01*
Y217269D01*
X438674D01*
Y205268D01*
X439362D01*
X439762Y203999D01*
X437021Y201257D01*
X435521Y200636D01*
X434044Y199159D01*
X433245Y197229D01*
Y195141D01*
X434044Y193211D01*
X435521Y191734D01*
X437451Y190935D01*
X439539D01*
X441469Y191734D01*
X442946Y193211D01*
X443567Y194710D01*
X447948Y199091D01*
X447948Y199091D01*
X448951Y200593D01*
X449303Y202364D01*
X449303Y202364D01*
Y205268D01*
X450674D01*
Y217269D01*
X449309D01*
Y226797D01*
X450686D01*
Y238797D01*
D02*
G37*
G36*
X244832Y19673D02*
X242346D01*
X240048Y18722D01*
X238290Y16964D01*
X237339Y14667D01*
Y12180D01*
X238290Y9883D01*
X240048Y8125D01*
X242346Y7173D01*
X244832D01*
X247129Y8125D01*
X248887Y9883D01*
X249839Y12180D01*
Y14667D01*
X248887Y16964D01*
X247129Y18722D01*
X244832Y19673D01*
D02*
G37*
%LPD*%
D10*
X177000Y305000D02*
Y311017D01*
X193575Y292588D02*
X193868Y292294D01*
X215706D01*
X216000Y292000D01*
X215752Y285252D02*
X216000Y285500D01*
X205748Y285252D02*
X215752D01*
X205500Y285004D02*
X205748Y285252D01*
X209625Y278413D02*
X209750Y278538D01*
X209625Y272625D02*
Y278413D01*
X403000Y336546D02*
Y337000D01*
X397172Y333546D02*
X400000D01*
X403000Y336546D01*
X380000Y323250D02*
X386876D01*
X366250D02*
X380000D01*
X386876D02*
X397172Y333546D01*
X293251Y43165D02*
X293868Y43781D01*
Y55131D01*
X288341Y60658D02*
X293868Y55131D01*
X288341Y60658D02*
Y218103D01*
X138184Y41877D02*
X144721Y35340D01*
X128811Y41877D02*
X138184D01*
X144721Y16318D02*
Y35340D01*
Y16318D02*
X150856Y10183D01*
X189925D01*
X219250Y39507D01*
Y87382D01*
X280464Y148595D01*
Y225246D01*
X338799Y57628D02*
X345263Y51164D01*
X338799Y57628D02*
Y183306D01*
X222500Y285500D02*
X251590D01*
X235699Y278002D02*
X236021Y278325D01*
X285325D01*
X251590Y285500D02*
X269339Y303249D01*
X222500Y279000D02*
X223431Y278069D01*
X270214Y207154D02*
Y229698D01*
X274214Y200139D02*
Y231355D01*
X223431Y278069D02*
X227500D01*
X227500Y272412D02*
X270214Y229698D01*
X222588Y272412D02*
X227500D01*
X227500Y278069D02*
X274214Y231355D01*
X222500Y272500D02*
X222588Y272412D01*
X318302Y200306D02*
X326799D01*
X308000Y198000D02*
X315996D01*
X318302Y200306D01*
X297590Y197938D02*
X307939D01*
X297529Y197877D02*
X297590Y197938D01*
X307939D02*
X308000Y198000D01*
X285325Y278325D02*
X286000Y279000D01*
X269339Y303249D02*
X285965D01*
X181731Y300500D02*
X183000D01*
X180732Y299500D02*
X181731Y300500D01*
X261320Y191746D02*
X265821D01*
X274214Y200139D01*
X286492Y278508D02*
X291459Y283474D01*
X261570Y201996D02*
X261656Y201911D01*
X264971D01*
X270214Y207154D01*
X247531Y246724D02*
X266214Y228042D01*
Y216433D02*
Y228042D01*
X232604Y246724D02*
X247531D01*
X217000Y262329D02*
Y265000D01*
Y262329D02*
X232604Y246724D01*
X261320Y207246D02*
X261777Y207702D01*
Y211996D01*
X266214Y216433D01*
X216000Y266000D02*
X217000Y265000D01*
X259368Y220689D02*
X259964Y221285D01*
X259368Y216336D02*
Y220689D01*
X256320Y213288D02*
X259368Y216336D01*
X256320Y207246D02*
Y213288D01*
X216000Y279000D02*
X216000Y279000D01*
X216000Y272500D02*
Y279000D01*
X209500Y272500D02*
X209625Y272625D01*
X202263Y273238D02*
Y277290D01*
X201593Y277960D02*
X202263Y277290D01*
Y273238D02*
X203000Y272500D01*
X223372Y222702D02*
Y238343D01*
X245571Y202496D02*
X246070Y201996D01*
X243578Y202496D02*
X245571D01*
X223372Y222702D02*
X243578Y202496D01*
X203000Y258714D02*
X223372Y238343D01*
X203000Y258714D02*
Y266000D01*
X233577Y197277D02*
X245790D01*
X233296Y197557D02*
X233577Y197277D01*
X245790D02*
X246070Y196996D01*
X193274Y301774D02*
X196500Y305000D01*
X184000Y292250D02*
X184250Y292500D01*
X177250Y292250D02*
X184000D01*
X177000Y292000D02*
X177250Y292250D01*
X178000Y299500D02*
X180732D01*
X177000Y298500D02*
X178000Y299500D01*
X291459Y283474D02*
X312302D01*
X286099Y303115D02*
X312409D01*
X312651Y302872D01*
X285965Y303249D02*
X286099Y303115D01*
X308824Y205306D02*
X326799D01*
X300039Y214091D02*
X308824Y205306D01*
X300039Y214091D02*
Y245400D01*
X299487Y245951D02*
X300039Y245400D01*
X288923Y245951D02*
X299487D01*
X343799Y176635D02*
Y183306D01*
X342799Y175635D02*
X343799Y176635D01*
X342799Y137140D02*
Y175635D01*
Y137140D02*
X351097Y128842D01*
X399254Y113171D02*
X459595Y52830D01*
X473917D01*
X351097Y113171D02*
X399254D01*
X351097D02*
Y128842D01*
X403000Y17318D02*
X417068Y31386D01*
X403000Y12818D02*
Y17318D01*
X417068Y31386D02*
Y43198D01*
X417073Y43193D01*
X430564D01*
X403568Y43198D02*
X417068D01*
X430564Y43193D02*
X430569Y43189D01*
X374467Y176306D02*
X395432Y155341D01*
X366056Y176306D02*
X374467D01*
X426132Y128900D02*
X445046D01*
X445402Y129256D01*
X398016Y165097D02*
X403854D01*
X379806Y183306D02*
X398016Y165097D01*
X403854D02*
X404266Y164685D01*
X433633Y139248D02*
X445395D01*
X445402Y139256D01*
X415191Y198080D02*
Y213577D01*
X428186Y226572D01*
Y232797D01*
X409917Y192806D02*
X415191Y198080D01*
X402549Y192806D02*
X409917D01*
X402896Y180653D02*
X410039D01*
X428174Y198787D02*
Y211269D01*
X410039Y180653D02*
X428174Y198787D01*
X402549Y180306D02*
X402896Y180653D01*
X428372Y260504D02*
X454326D01*
X386250Y213757D02*
Y218382D01*
X428372Y260504D01*
X375799Y210306D02*
X382799D01*
X386250Y213757D01*
X368799Y183306D02*
X379806D01*
X97000Y14000D02*
X99819Y16819D01*
X102828D01*
X114386Y28377D02*
X118811D01*
X102828Y16819D02*
X114386Y28377D01*
X118811D02*
Y41877D01*
X162189Y147500D02*
X184962Y124727D01*
X161500Y147500D02*
X162189D01*
X151000Y158000D02*
Y170750D01*
X184962Y124727D02*
X190825D01*
X151000Y158000D02*
X161500Y147500D01*
X192325Y122929D02*
Y123227D01*
X190825Y124727D02*
X192325Y123227D01*
X283251Y43165D02*
X283251Y43165D01*
X283251Y29665D02*
Y43165D01*
Y16165D02*
Y29665D01*
X268299Y20923D02*
X277040Y29665D01*
X260589Y13423D02*
Y17923D01*
X263589Y20923D01*
X268299D01*
X277040Y29665D02*
X283251D01*
X96851Y72378D02*
X135980D01*
X96351D02*
X96851D01*
X118811Y14877D02*
Y27877D01*
X364299Y178063D02*
Y182806D01*
Y178063D02*
X366056Y176306D01*
X311000Y171609D02*
X326369Y186978D01*
X311000Y164000D02*
Y171609D01*
X328000Y164000D02*
Y177507D01*
X333799Y183306D01*
X82082Y183582D02*
X102872D01*
X103540Y184250D01*
X82000Y178500D02*
X110180D01*
X114750Y183070D01*
X114973Y174812D02*
X121727D01*
X113661Y173500D02*
X114973Y174812D01*
X121727D02*
X122223Y175309D01*
X82000Y173500D02*
X113661D01*
X135980Y72378D02*
X146358Y62000D01*
X155000D01*
X192325Y100325D02*
Y123429D01*
X150780Y170970D02*
X151000Y170750D01*
X125376Y285500D02*
X170500D01*
X117771Y281168D02*
X121044D01*
X125376Y285500D01*
X116988Y280385D02*
X117771Y281168D01*
X71400Y309000D02*
X72197D01*
X75107Y305293D02*
X91101Y289299D01*
X100747D01*
X72197Y309000D02*
X75107Y306089D01*
Y305293D02*
Y306089D01*
X48639Y304224D02*
X75433Y277430D01*
X48639Y304224D02*
Y309512D01*
X75433Y277430D02*
X87768D01*
X22406Y303594D02*
X36750Y289250D01*
X20600Y309000D02*
X22406Y307194D01*
Y303594D02*
Y307194D01*
X47379Y310772D02*
X48639Y309512D01*
X47379Y323472D02*
X48009Y324103D01*
Y330651D01*
X49180Y331822D01*
X79371D01*
X38792Y335822D02*
X81028D01*
X34678Y331708D02*
X38792Y335822D01*
X34678Y323472D02*
Y331708D01*
X91110Y197367D02*
Y203232D01*
X104109Y197391D02*
X105500Y196000D01*
X87743Y194000D02*
X91110Y197367D01*
X82500Y213000D02*
X91461D01*
X91110Y203232D02*
X91750Y203872D01*
X91461Y213000D02*
X104109Y200352D01*
Y197391D02*
Y200352D01*
X101172Y209722D02*
X104778D01*
X92393Y218500D02*
X101172Y209722D01*
X104778D02*
X105500Y209000D01*
X82000Y213500D02*
X82500Y213000D01*
X82000Y218500D02*
X92393D01*
X82500Y194000D02*
X87743D01*
X96336Y193269D02*
X96474D01*
X91632Y188565D02*
X96336Y193269D01*
X210142Y302343D02*
X211089D01*
X212746Y304000D02*
X215000D01*
X211089Y302343D02*
X212746Y304000D01*
X202938Y306086D02*
X202969Y306117D01*
Y311469D02*
X203000Y311500D01*
X202969Y306117D02*
Y311469D01*
X93458Y168500D02*
X94834Y167125D01*
X96268D01*
X215000Y304000D02*
X216000Y305000D01*
X326369Y186978D02*
Y189875D01*
X326799Y190306D01*
X171800Y258209D02*
X176000Y262409D01*
Y265000D01*
X171800Y255284D02*
Y258209D01*
X36750Y281172D02*
Y289250D01*
X163225Y246709D02*
X171800Y255284D01*
X352500Y323250D02*
X366250D01*
X338829Y333789D02*
X339098Y333520D01*
X352230D02*
X352500Y333250D01*
X339098Y333520D02*
X352230D01*
X366851Y248954D02*
X372979D01*
X358799Y232306D02*
Y240902D01*
X366851Y248954D01*
X162803Y296903D02*
X164401Y298500D01*
X113906Y296903D02*
X162803D01*
X85128Y325680D02*
X113906Y296903D01*
X164401Y298500D02*
X170500D01*
X242204Y316615D02*
Y329253D01*
X241057Y330400D02*
X242204Y329253D01*
X380024Y251999D02*
X384104Y256079D01*
X376024Y251999D02*
X380024D01*
X372979Y248954D02*
X376024Y251999D01*
X176000Y265000D02*
X177000Y266000D01*
X336316Y248257D02*
X340396Y244177D01*
X341671D01*
X348299Y237549D01*
Y232806D02*
Y237549D01*
Y232806D02*
X348799Y232306D01*
X90153Y188500D02*
X90218Y188565D01*
X91632D01*
X82000Y188500D02*
X90153D01*
X257448Y330509D02*
X274430D01*
X274802Y330137D01*
X191000Y99000D02*
X192325Y100325D01*
X150780Y170970D02*
Y230113D01*
X202325Y72325D02*
Y122929D01*
X191000Y61000D02*
X202325Y72325D01*
X86672Y148000D02*
X86672Y148000D01*
X104750D02*
X105500Y147250D01*
X86672Y148000D02*
X104750D01*
X82000Y148500D02*
X82500Y148000D01*
X86672D01*
X82250Y143250D02*
X91928D01*
X100428Y134750D02*
X105500D01*
X91928Y143250D02*
X100428Y134750D01*
X89173Y133500D02*
X100000Y122673D01*
X90017Y138500D02*
X105651Y122867D01*
X100000Y118007D02*
Y122673D01*
X105651Y122367D02*
Y122867D01*
X82000Y138500D02*
X90017D01*
X82000Y133500D02*
X89173D01*
X96000Y111500D02*
Y120399D01*
X82500Y123000D02*
X87743D01*
X89500Y79729D02*
Y121243D01*
X87743Y123000D02*
X89500Y121243D01*
X88399Y128000D02*
X96000Y120399D01*
X82500Y128000D02*
X88399D01*
X82000Y168500D02*
X93458D01*
X37922Y280000D02*
X45000D01*
X29000D02*
X35578D01*
X36750Y281172D02*
X37922Y280000D01*
X35578D02*
X36750Y281172D01*
X85128Y325680D02*
Y331722D01*
X110780Y292000D02*
X170500D01*
X81129Y321651D02*
Y330065D01*
Y321651D02*
X110780Y292000D01*
X82000Y158500D02*
X82191Y158309D01*
X94058D01*
X94249Y158119D01*
X82000Y193500D02*
X82500Y194000D01*
X79371Y331822D02*
X81129Y330065D01*
X81028Y335822D02*
X85128Y331722D01*
X94249Y158119D02*
X104000D01*
X105500Y159619D01*
Y159750D01*
X82000Y158500D02*
Y163500D01*
X96000Y111500D02*
X105500Y102000D01*
X152000D02*
X155000Y99000D01*
X120000Y102000D02*
X152000D01*
X118500Y103500D02*
X120000Y102000D01*
X114507Y103500D02*
X118500D01*
X100000Y118007D02*
X114507Y103500D01*
X105500Y102000D02*
X106000D01*
X82000Y128500D02*
X82500Y128000D01*
X94851Y73878D02*
X96351Y72378D01*
X94851Y73878D02*
Y74378D01*
X89500Y79729D02*
X94851Y74378D01*
X82000Y72515D02*
X82136Y72378D01*
X82000Y72515D02*
Y118500D01*
X191000Y25000D02*
Y61000D01*
X82000Y143500D02*
X82250Y143250D01*
X71400Y321700D02*
X71537Y321837D01*
X363799Y183306D02*
X364299Y182806D01*
X124637Y223613D02*
X129780D01*
X96655Y234054D02*
X107259D01*
X108027D01*
X118166D01*
X120724Y236613D01*
X129780D01*
X107259Y234822D02*
X108027Y234054D01*
X105500Y222000D02*
Y222500D01*
X120250Y228000D02*
X124637Y223613D01*
X111000Y228000D02*
X120250D01*
X105500Y222500D02*
X111000Y228000D01*
X104000Y223500D02*
X105500Y222000D01*
X82000Y223500D02*
X104000D01*
X105500Y222000D02*
Y222000D01*
X82000Y123500D02*
X82500Y123000D01*
X91101Y228500D02*
X96655Y234054D01*
X107259Y234997D02*
Y240868D01*
X82000Y228500D02*
X91101D01*
D16*
X390549Y195306D02*
X392549Y193306D01*
X375799Y195306D02*
X390549D01*
X390565Y182290D02*
X391065D01*
X375799Y190306D02*
X382549D01*
X391065Y182290D02*
X392549Y180806D01*
Y180306D02*
Y180806D01*
X382549Y190306D02*
X390565Y182290D01*
X392549Y192806D02*
Y193306D01*
D17*
X196650Y278250D02*
G03*
X196650Y278249I4850J0D01*
G01*
X196651Y278320D02*
G03*
X196650Y278250I4850J-70D01*
G01*
X245143Y305000D02*
X255844Y315702D01*
X430681D02*
X467178Y279205D01*
X255844Y315702D02*
X430681D01*
X175600Y284100D02*
X177000Y285500D01*
X175600Y282923D02*
Y284100D01*
X173577Y280900D02*
X175600Y282923D01*
X430569Y53188D02*
X451552D01*
X202911Y298093D02*
X207800D01*
X196651Y284268D02*
X196736D01*
X196651Y278320D02*
X196736Y284268D01*
X196650Y284269D02*
X196651Y284268D01*
X488347Y45155D02*
Y66448D01*
X466034Y38707D02*
X481899D01*
X488347Y45155D01*
X451552Y53188D02*
X466034Y38707D01*
X471512Y83283D02*
X488347Y66448D01*
X471512Y83283D02*
Y253904D01*
X467178Y258239D02*
X471512Y253904D01*
X467178Y258239D02*
Y279205D01*
X246798Y292000D02*
X251979Y297181D01*
X222500Y292000D02*
X246798D01*
X207800Y298093D02*
X208400Y297493D01*
X214993D01*
X196500Y272500D02*
X196650Y273900D01*
Y278249D01*
X190750Y273250D02*
Y278000D01*
X222500Y305000D02*
X245143D01*
X163873Y280900D02*
X173577D01*
X179609Y277568D02*
X182100Y275077D01*
X147609Y277568D02*
X179609D01*
X214993Y297493D02*
X216000Y298500D01*
X141056Y271016D02*
X147609Y277568D01*
X135071Y271016D02*
X141056D01*
X190000Y272500D02*
X190750Y273250D01*
X182100Y273900D02*
Y275077D01*
Y273900D02*
X183500Y272500D01*
X134057Y270002D02*
X135071Y271016D01*
D20*
X97000Y14000D02*
D03*
X63000D02*
D03*
X403000Y12818D02*
D03*
X437000D02*
D03*
X403000Y337000D02*
D03*
X437000D02*
D03*
X226589Y13423D02*
D03*
X260589D02*
D03*
D21*
X222500Y272500D02*
D03*
X170500Y311500D02*
D03*
X183500D02*
D03*
X196500D02*
D03*
X203000D02*
D03*
X209500D02*
D03*
X222500D02*
D03*
X222500Y305000D02*
D03*
Y298500D02*
D03*
X222500Y292000D02*
D03*
Y285500D02*
D03*
Y279000D02*
D03*
Y266000D02*
D03*
X216000D02*
D03*
X209500Y266000D02*
D03*
X203000Y266000D02*
D03*
X196500D02*
D03*
X190000Y266000D02*
D03*
X183500Y266000D02*
D03*
X177000D02*
D03*
X170500D02*
D03*
Y285500D02*
D03*
Y292000D02*
D03*
Y298500D02*
D03*
Y305000D02*
D03*
X177000Y305000D02*
D03*
X196500D02*
D03*
X216000Y305000D02*
D03*
Y298500D02*
D03*
Y292000D02*
D03*
Y285500D02*
D03*
Y279000D02*
D03*
X209500Y272500D02*
D03*
X203000D02*
D03*
X196500D02*
D03*
X190000D02*
D03*
X183500D02*
D03*
X177000D02*
D03*
Y285500D02*
D03*
Y292000D02*
D03*
Y298500D02*
D03*
X169000Y319750D02*
D03*
Y342750D02*
D03*
Y331250D02*
D03*
X224000Y331250D02*
D03*
Y342750D02*
D03*
Y319750D02*
D03*
D22*
X186500Y285750D02*
D03*
D23*
X286000Y279000D02*
D03*
Y304000D02*
D03*
D24*
X444674Y211269D02*
D03*
X428174D02*
D03*
X240948Y330509D02*
D03*
X257448D02*
D03*
X428186Y232797D02*
D03*
X444686D02*
D03*
D25*
X351299Y207806D02*
D03*
D26*
X368799Y232306D02*
D03*
X363799D02*
D03*
X358799D02*
D03*
X353799D02*
D03*
X348799D02*
D03*
X343799D02*
D03*
X338799D02*
D03*
X333799D02*
D03*
Y183306D02*
D03*
X338799D02*
D03*
X343799D02*
D03*
X348799D02*
D03*
X353799D02*
D03*
X358799D02*
D03*
X363799D02*
D03*
X368799D02*
D03*
D27*
X326799Y225306D02*
D03*
Y220306D02*
D03*
Y215306D02*
D03*
Y210306D02*
D03*
Y205306D02*
D03*
Y200306D02*
D03*
Y195306D02*
D03*
Y190306D02*
D03*
X375799D02*
D03*
Y195306D02*
D03*
Y200306D02*
D03*
Y205306D02*
D03*
Y210306D02*
D03*
Y215306D02*
D03*
Y220306D02*
D03*
Y225306D02*
D03*
D28*
X155000Y99000D02*
D03*
X191000D02*
D03*
X155000Y62000D02*
D03*
X191000D02*
D03*
Y25000D02*
D03*
X155000D02*
D03*
D29*
X82000Y233500D02*
D03*
Y228500D02*
D03*
Y223500D02*
D03*
Y218500D02*
D03*
Y213500D02*
D03*
Y208500D02*
D03*
Y203500D02*
D03*
Y198500D02*
D03*
Y193500D02*
D03*
Y188500D02*
D03*
Y183500D02*
D03*
Y178500D02*
D03*
Y173500D02*
D03*
Y168500D02*
D03*
Y163500D02*
D03*
Y158500D02*
D03*
Y153500D02*
D03*
Y148500D02*
D03*
Y143500D02*
D03*
Y138500D02*
D03*
Y133500D02*
D03*
Y128500D02*
D03*
Y123500D02*
D03*
Y118500D02*
D03*
D30*
X55000Y255000D02*
D03*
Y97000D02*
D03*
D31*
X261320Y191746D02*
D03*
X256320D02*
D03*
X251320D02*
D03*
X246320D02*
D03*
Y207246D02*
D03*
X251320D02*
D03*
X256320D02*
D03*
X261320D02*
D03*
D32*
X246070Y196996D02*
D03*
Y201996D02*
D03*
X261570D02*
D03*
Y196996D02*
D03*
D33*
X190000Y170750D02*
D03*
X151000D02*
D03*
D34*
X336316Y267505D02*
D03*
Y248257D02*
D03*
X384104Y275327D02*
D03*
Y256079D02*
D03*
D35*
X150780Y230113D02*
D03*
X129780Y223613D02*
D03*
Y236613D02*
D03*
D36*
X445402Y106756D02*
D03*
Y161756D02*
D03*
D37*
Y119056D02*
D03*
Y149455D02*
D03*
D38*
Y139256D02*
D03*
Y129256D02*
D03*
D66*
X403568Y53198D02*
D03*
Y43198D02*
D03*
X417068D02*
D03*
Y53198D02*
D03*
X430569Y43189D02*
D03*
Y53188D02*
D03*
X366250Y323250D02*
D03*
Y333250D02*
D03*
X380000D02*
D03*
Y323250D02*
D03*
X352500D02*
D03*
Y333250D02*
D03*
X106000Y92000D02*
D03*
Y102000D02*
D03*
X308000Y218000D02*
D03*
Y228000D02*
D03*
X120000Y102000D02*
D03*
Y92000D02*
D03*
X96851Y72378D02*
D03*
Y62378D02*
D03*
X82136Y72378D02*
D03*
Y62378D02*
D03*
X354000Y164000D02*
D03*
Y154000D02*
D03*
X368000Y164000D02*
D03*
Y154000D02*
D03*
X321000Y270000D02*
D03*
Y260000D02*
D03*
X399692Y275268D02*
D03*
Y265268D02*
D03*
X351097Y113171D02*
D03*
Y103171D02*
D03*
X107259Y250868D02*
D03*
Y240868D02*
D03*
X328000Y154000D02*
D03*
Y164000D02*
D03*
X311000Y154000D02*
D03*
Y164000D02*
D03*
X308000Y198000D02*
D03*
Y188000D02*
D03*
D67*
X128811Y14877D02*
D03*
X118811D02*
D03*
Y28377D02*
D03*
X128811D02*
D03*
X118811Y41877D02*
D03*
X128811D02*
D03*
X283251Y16165D02*
D03*
X293251D02*
D03*
Y29665D02*
D03*
X283251D02*
D03*
X392549Y205306D02*
D03*
X402549D02*
D03*
X199283Y243470D02*
D03*
X189283D02*
D03*
X239643Y226456D02*
D03*
X249643D02*
D03*
X115500Y134750D02*
D03*
X105500D02*
D03*
X115500Y122250D02*
D03*
X105500D02*
D03*
X202325Y122929D02*
D03*
X192325D02*
D03*
X226481Y136545D02*
D03*
X216481D02*
D03*
X246305Y171334D02*
D03*
X256305D02*
D03*
X105500Y209000D02*
D03*
X115500D02*
D03*
X105500Y196000D02*
D03*
X115500D02*
D03*
X105500Y159750D02*
D03*
X115500D02*
D03*
X105500Y147250D02*
D03*
X115500D02*
D03*
X349926Y269644D02*
D03*
X359926D02*
D03*
X349961Y256671D02*
D03*
X359961D02*
D03*
X322651Y302872D02*
D03*
X312651D02*
D03*
X322303Y283474D02*
D03*
X312302D02*
D03*
X97079Y323472D02*
D03*
X107079D02*
D03*
X45000Y280000D02*
D03*
X55000D02*
D03*
X115500Y222000D02*
D03*
X105500D02*
D03*
X392549Y192806D02*
D03*
X402549D02*
D03*
X392549Y180306D02*
D03*
X402549D02*
D03*
X300039Y245400D02*
D03*
X310039D02*
D03*
X284802Y330137D02*
D03*
X274802D02*
D03*
X19000Y280000D02*
D03*
X29000D02*
D03*
X142981Y323071D02*
D03*
X132981D02*
D03*
X293251Y43165D02*
D03*
X283251D02*
D03*
D68*
X143000Y323090D02*
Y333000D01*
X444674Y211269D02*
X444680Y211274D01*
Y232791D01*
X444686Y232797D01*
X403568Y62533D02*
X403694Y62658D01*
X403443Y53158D02*
X403529D01*
X403568Y53198D01*
Y62533D01*
X408203Y130695D02*
Y143071D01*
X428265Y150077D02*
X428265Y150077D01*
X444780D02*
X445402Y149455D01*
X428265Y150077D02*
X444780D01*
X415209Y150077D02*
X428265D01*
X408203Y143071D02*
X415209Y150077D01*
X408203Y130695D02*
X419842Y119056D01*
X376359Y162539D02*
X408203Y130695D01*
X376359Y162539D02*
Y164000D01*
X419842Y119056D02*
X445402D01*
X444674Y202364D02*
Y211269D01*
X438495Y196185D02*
X444674Y202364D01*
X138436Y14752D02*
X138561Y14627D01*
X128851Y14752D02*
X138436D01*
X128811Y14792D02*
X128851Y14752D01*
X128811Y14792D02*
Y14877D01*
X368000Y164000D02*
X376359D01*
X293211Y16205D02*
X293251Y16165D01*
X293211Y16205D02*
Y16290D01*
X293251Y16165D02*
X302586D01*
X302711Y16040D01*
X366267Y342946D02*
X366284Y342963D01*
X366250Y333250D02*
X366267Y333267D01*
Y342946D01*
X210995Y137005D02*
X216441D01*
X190000Y158000D02*
X203871Y144129D01*
X210995Y137005D01*
X216441D02*
X216481Y136965D01*
X190000Y158000D02*
Y170750D01*
X216481Y136545D02*
Y136965D01*
X311000Y270000D02*
X321000D01*
X392549Y205374D02*
Y215067D01*
X392000Y215616D02*
Y216000D01*
X392549Y205374D02*
X392583Y205340D01*
X392000Y215616D02*
X392549Y215067D01*
X336316Y267505D02*
X338734Y269923D01*
Y279356D01*
X339006Y279627D01*
X10000Y280000D02*
X19000D01*
X96982Y323989D02*
X97079Y323892D01*
X96982Y333344D02*
X97000Y333362D01*
Y334000D01*
X97079Y323472D02*
Y323892D01*
X96982Y323989D02*
Y333344D01*
X389298Y231751D02*
X408598Y251051D01*
X405622Y275268D02*
X408598Y272293D01*
X399272Y275268D02*
X405622D01*
X408598Y251051D02*
Y272293D01*
X375799Y226346D02*
X376513D01*
X381646Y231479D01*
X389026D01*
X389298Y231751D01*
X399213Y275327D02*
X399272Y275268D01*
X384104Y275327D02*
X399213D01*
X321040Y269960D02*
X333861D01*
X336316Y267505D01*
X321000Y270000D02*
X321040Y269960D01*
X349961Y247352D02*
X352549Y244764D01*
X349961Y247352D02*
Y256671D01*
X352549Y244379D02*
Y244764D01*
X349944Y256688D02*
Y269627D01*
X349926Y269644D02*
X349944Y269627D01*
Y256688D02*
X349961Y256671D01*
D69*
X249655Y226327D02*
Y236445D01*
X249667Y236457D01*
X249655Y226327D02*
X249738Y226244D01*
X309230Y216986D02*
X309730Y217486D01*
X309230Y216770D02*
Y216986D01*
X309730Y217486D02*
X317071D01*
X317584Y216973D01*
X354029Y177951D02*
Y183076D01*
Y177951D02*
X355945Y176036D01*
X355964D01*
X366270Y165230D02*
Y165730D01*
X355964Y176036D02*
X366270Y165730D01*
Y165230D02*
X367500Y164000D01*
X350900Y172991D02*
X354000Y169890D01*
X349640Y174224D02*
X350874Y172991D01*
X354000Y164000D02*
Y169890D01*
X350874Y172991D02*
X350900D01*
X349640Y174224D02*
Y174251D01*
X186087Y263611D02*
Y263782D01*
X181115Y258685D02*
X181419Y258381D01*
X181147Y258671D02*
X186087Y263611D01*
X367500Y164000D02*
X368000D01*
X348922Y173871D02*
X349044Y173748D01*
X348799Y183306D02*
X348922Y183183D01*
Y173871D02*
Y183183D01*
X160641Y305000D02*
X170500D01*
X159425Y303784D02*
X160641Y305000D01*
X158353Y303784D02*
X159425D01*
X251320Y207246D02*
Y214969D01*
X249937Y216353D02*
Y217424D01*
Y216353D02*
X251320Y214969D01*
X189130Y243317D02*
X189283Y243470D01*
X189130Y233602D02*
Y243317D01*
X188977Y233449D02*
X189130Y233602D01*
X321445Y210536D02*
X326569D01*
X318308Y213672D02*
Y216584D01*
Y213672D02*
X321445Y210536D01*
X369029Y232536D02*
Y235469D01*
X377075Y243515D01*
X368799Y232306D02*
X369029Y232536D01*
X353799Y183306D02*
X354029Y183076D01*
X184599Y265270D02*
X186087Y263782D01*
X184230Y265270D02*
X184599D01*
X187167Y263922D02*
X188515Y265270D01*
X189270D01*
X183500Y266000D02*
X184230Y265270D01*
X189270Y265270D02*
X190000Y266000D01*
X310039Y244900D02*
X314540Y240399D01*
X319139D01*
X319897Y239641D01*
X392549Y205306D02*
X392583Y205340D01*
X310039Y244900D02*
Y245400D01*
X308000Y218000D02*
X309230Y216770D01*
X375799Y205306D02*
X392549D01*
X326569Y210536D02*
X326799Y210306D01*
X353799Y232306D02*
Y241928D01*
X352566Y243162D02*
Y244379D01*
Y243162D02*
X353799Y241928D01*
X246113Y180972D02*
X246226Y181085D01*
X246207Y191633D02*
X246320Y191746D01*
X246207Y183381D02*
Y191633D01*
X246209Y171430D02*
X246305Y171334D01*
X246209Y171430D02*
Y180875D01*
X246113Y180972D02*
X246209Y180875D01*
D70*
X209500Y262301D02*
X215425Y256377D01*
Y255772D02*
Y256377D01*
X183500Y311500D02*
X189636D01*
X182856Y281171D02*
X186000Y285250D01*
X189898Y311238D02*
X190160Y311500D01*
X196500D01*
X189636D02*
X189898Y311238D01*
X186000Y285250D02*
X186500Y285750D01*
X209500Y262301D02*
Y266000D01*
D71*
X297774Y187913D02*
X297818Y187956D01*
X307527D01*
X307540Y187970D01*
D72*
X135709Y277867D02*
X138742Y280900D01*
X163873D01*
X126763Y277867D02*
X135709D01*
D73*
X473917Y27430D02*
D03*
X345263Y25764D02*
D03*
X479726Y260504D02*
D03*
D74*
X473917Y52830D02*
D03*
X345263Y51164D02*
D03*
D75*
X80000Y14000D02*
D03*
X420000Y12818D02*
D03*
X420000Y337000D02*
D03*
X243589Y13423D02*
D03*
D76*
X35000Y55000D02*
D03*
X467986Y308905D02*
D03*
X245000Y90000D02*
D03*
D77*
X72779Y323472D02*
D03*
D78*
Y310772D02*
D03*
X60079Y323472D02*
D03*
Y310772D02*
D03*
X47379Y323472D02*
D03*
Y310772D02*
D03*
X34678Y323472D02*
D03*
Y310772D02*
D03*
X21978Y323472D02*
D03*
Y310772D02*
D03*
D79*
X454326Y260504D02*
D03*
D80*
X484202Y91055D02*
D03*
Y177456D02*
D03*
X446202Y91055D02*
D03*
Y177456D02*
D03*
D81*
X231283Y257718D02*
D03*
X465000Y165000D02*
D03*
Y245000D02*
D03*
Y85000D02*
D03*
X425000Y325000D02*
D03*
X445214Y331534D02*
D03*
X424039Y302359D02*
D03*
X153238Y15933D02*
D03*
X225000Y85000D02*
D03*
X245000Y125000D02*
D03*
X235699Y278002D02*
D03*
X249667Y236457D02*
D03*
X215425Y255772D02*
D03*
X230042Y226529D02*
D03*
X208836Y243512D02*
D03*
X196150Y256069D02*
D03*
X317584Y216973D02*
D03*
X233737Y310750D02*
D03*
X170243Y170765D02*
D03*
X20649Y20446D02*
D03*
X486132Y334156D02*
D03*
X397537Y121385D02*
D03*
X179628Y215110D02*
D03*
X282450Y124829D02*
D03*
X445000Y285000D02*
D03*
Y45000D02*
D03*
X405000Y285000D02*
D03*
X425000Y245000D02*
D03*
Y165000D02*
D03*
X365000Y285000D02*
D03*
Y125000D02*
D03*
X385000Y85000D02*
D03*
X365000Y45000D02*
D03*
X325000Y125000D02*
D03*
Y45000D02*
D03*
X305000Y325000D02*
D03*
Y85000D02*
D03*
X265000D02*
D03*
X245000Y45000D02*
D03*
X225000Y165000D02*
D03*
X205000Y45000D02*
D03*
X185000Y85000D02*
D03*
X165000Y45000D02*
D03*
X145000Y245000D02*
D03*
Y85000D02*
D03*
X85000Y45000D02*
D03*
X65000Y245000D02*
D03*
X45000Y205000D02*
D03*
X65000Y165000D02*
D03*
X45000Y125000D02*
D03*
X65000Y85000D02*
D03*
X403694Y62658D02*
D03*
X417318Y62448D02*
D03*
X395432Y155341D02*
D03*
X426132Y128900D02*
D03*
X404266Y164685D02*
D03*
X434173Y161758D02*
D03*
X433633Y139248D02*
D03*
X438495Y196185D02*
D03*
X120000Y83000D02*
D03*
X138561Y14627D02*
D03*
X138971Y28592D02*
D03*
X103540Y184250D02*
D03*
X114750Y183070D02*
D03*
X122223Y175309D02*
D03*
X297774Y187913D02*
D03*
X181115Y258685D02*
D03*
X349044Y173748D02*
D03*
X96268Y167125D02*
D03*
X64866Y279866D02*
D03*
X158353Y303784D02*
D03*
X107233Y259367D02*
D03*
X91750Y203872D02*
D03*
X249937Y217424D02*
D03*
X96474Y193269D02*
D03*
X100747Y289299D02*
D03*
X87768Y277430D02*
D03*
X188977Y233449D02*
D03*
X170280Y272218D02*
D03*
X434892Y106494D02*
D03*
X126681Y213303D02*
D03*
X232000Y325500D02*
D03*
X352500Y195000D02*
D03*
X362500Y220000D02*
D03*
X352500D02*
D03*
X362500Y207500D02*
D03*
X352500D02*
D03*
X362500Y195000D02*
D03*
X340000D02*
D03*
Y207500D02*
D03*
Y220000D02*
D03*
X164049Y256475D02*
D03*
X160681Y265727D02*
D03*
X302711Y16040D02*
D03*
X366284Y342963D02*
D03*
X203871Y144129D02*
D03*
X302526Y30124D02*
D03*
X338829Y333789D02*
D03*
X311000Y270000D02*
D03*
X392000Y216000D02*
D03*
X339006Y279627D02*
D03*
X332000Y285000D02*
D03*
X161000Y312500D02*
D03*
X115000Y324839D02*
D03*
X125000D02*
D03*
X10000Y280000D02*
D03*
X97000Y334000D02*
D03*
X143000Y333000D02*
D03*
X242204Y316615D02*
D03*
X319897Y239641D02*
D03*
X399466Y255554D02*
D03*
X377075Y243515D02*
D03*
X163225Y246709D02*
D03*
X126473Y204588D02*
D03*
X125890Y194698D02*
D03*
X72331Y61963D02*
D03*
X97000Y53000D02*
D03*
X389298Y231751D02*
D03*
X403000Y216000D02*
D03*
X352549Y244379D02*
D03*
X116988Y280385D02*
D03*
X333000Y302000D02*
D03*
X295000Y330000D02*
D03*
X54609Y19282D02*
D03*
X218305Y18813D02*
D03*
X446250Y13250D02*
D03*
X311081Y143939D02*
D03*
X94249Y158119D02*
D03*
X134057Y270002D02*
D03*
X126763Y277867D02*
D03*
X161000Y334000D02*
D03*
X231731Y334894D02*
D03*
X161000Y343000D02*
D03*
X232891Y343086D02*
D03*
X161000Y325000D02*
D03*
X246113Y180972D02*
D03*
X256425Y181647D02*
D03*
X266179Y171308D02*
D03*
X125000Y160000D02*
D03*
Y147000D02*
D03*
Y135000D02*
D03*
Y122000D02*
D03*
X106000Y83000D02*
D03*
X55307Y86239D02*
D03*
X367603Y144043D02*
D03*
X351000Y93000D02*
D03*
X380000Y343000D02*
D03*
X353917Y143939D02*
D03*
X327797Y144043D02*
D03*
X321000Y250000D02*
D03*
X369816Y269697D02*
D03*
X370000Y257000D02*
D03*
X253784Y199078D02*
D03*
X73130Y153327D02*
D03*
X72967Y198435D02*
D03*
X317779Y228841D02*
D03*
X226481Y126386D02*
D03*
X55584Y264972D02*
D03*
X36750Y289250D02*
D03*
D82*
X177000Y311017D02*
D03*
X193575Y292588D02*
D03*
X205500Y285004D02*
D03*
X202911Y298093D02*
D03*
X209750Y278538D02*
D03*
X196650Y284269D02*
D03*
X183000Y300500D02*
D03*
X216000Y272500D02*
D03*
X201593Y277960D02*
D03*
X190750Y278000D02*
D03*
X184250Y292500D02*
D03*
X189898Y311238D02*
D03*
X191569Y301105D02*
D03*
X231282Y298572D02*
D03*
X215614Y311718D02*
D03*
X182856Y281171D02*
D03*
X210142Y302343D02*
D03*
X202938Y306086D02*
D03*
D83*
X288341Y218103D02*
D03*
X280464Y225246D02*
D03*
X284517Y267669D02*
D03*
X251979Y297181D02*
D03*
X297529Y197877D02*
D03*
X259964Y221285D02*
D03*
X233296Y197557D02*
D03*
X288923Y245951D02*
D03*
M02*
