G04*
G04 #@! TF.GenerationSoftware,Altium Limited,Altium Designer,24.3.1 (35)*
G04*
G04 Layer_Color=255*
%FSLAX44Y44*%
%MOMM*%
G71*
G04*
G04 #@! TF.SameCoordinates,FBE6CC02-A050-44FB-85DA-F6A5CD5A1D8C*
G04*
G04*
G04 #@! TF.FilePolarity,Positive*
G04*
G01*
G75*
%ADD73C,1.5750*%
%ADD74R,1.5750X1.5750*%
%ADD75C,0.4250*%
%ADD76C,1.5240*%
%ADD77R,1.0700X1.0700*%
%ADD78C,1.0700*%
%ADD79R,1.5750X1.5750*%
%ADD80C,2.0100*%
D73*
X473917Y27430D02*
D03*
X345263Y25764D02*
D03*
X479726Y260504D02*
D03*
D74*
X473917Y52830D02*
D03*
X345263Y51164D02*
D03*
D75*
X80000Y14000D02*
D03*
X420000Y12818D02*
D03*
X420000Y337000D02*
D03*
X243589Y13423D02*
D03*
D76*
X35000Y55000D02*
D03*
X467986Y308905D02*
D03*
X245000Y90000D02*
D03*
D77*
X72779Y323472D02*
D03*
D78*
Y310772D02*
D03*
X60079Y323472D02*
D03*
Y310772D02*
D03*
X47379Y323472D02*
D03*
Y310772D02*
D03*
X34678Y323472D02*
D03*
Y310772D02*
D03*
X21978Y323472D02*
D03*
Y310772D02*
D03*
D79*
X454326Y260504D02*
D03*
D80*
X484202Y91055D02*
D03*
Y177456D02*
D03*
X446202Y91055D02*
D03*
Y177456D02*
D03*
M02*
