G04*
G04 #@! TF.GenerationSoftware,Altium Limited,Altium Designer,24.3.1 (35)*
G04*
G04 Layer_Color=16711935*
%FSLAX44Y44*%
%MOMM*%
G71*
G04*
G04 #@! TF.SameCoordinates,31FC7E56-FDD3-428C-A461-55F7AD2C4BF1*
G04*
G04*
G04 #@! TF.FilePolarity,Negative*
G04*
G01*
G75*
%ADD58C,1.6750*%
%ADD59R,1.6750X1.6750*%
%ADD60C,0.5250*%
%ADD61C,1.6240*%
%ADD62R,1.1700X1.1700*%
%ADD63C,1.1700*%
%ADD64R,1.6750X1.6750*%
%ADD65C,2.1100*%
D58*
X473917Y27430D02*
D03*
X345263Y25764D02*
D03*
X479726Y260504D02*
D03*
D59*
X473917Y52830D02*
D03*
X345263Y51164D02*
D03*
D60*
X80000Y14000D02*
D03*
X420000Y12818D02*
D03*
X420000Y337000D02*
D03*
X243589Y13423D02*
D03*
D61*
X35000Y55000D02*
D03*
X467986Y308905D02*
D03*
X245000Y90000D02*
D03*
D62*
X72779Y323472D02*
D03*
D63*
Y310772D02*
D03*
X60079Y323472D02*
D03*
Y310772D02*
D03*
X47379Y323472D02*
D03*
Y310772D02*
D03*
X34678Y323472D02*
D03*
Y310772D02*
D03*
X21978Y323472D02*
D03*
Y310772D02*
D03*
D64*
X454326Y260504D02*
D03*
D65*
X484202Y91055D02*
D03*
Y177456D02*
D03*
X446202Y91055D02*
D03*
Y177456D02*
D03*
M02*
