G04*
G04 #@! TF.GenerationSoftware,Altium Limited,Altium Designer,24.3.1 (35)*
G04*
G04 Layer_Physical_Order=2*
G04 Layer_Color=24703*
%FSLAX44Y44*%
%MOMM*%
G71*
G04*
G04 #@! TF.SameCoordinates,31FC7E56-FDD3-428C-A461-55F7AD2C4BF1*
G04*
G04*
G04 #@! TF.FilePolarity,Positive*
G04*
G01*
G75*
%ADD73C,1.5750*%
%ADD74R,1.5750X1.5750*%
%ADD75C,0.4250*%
%ADD76C,1.5240*%
%ADD77R,1.0700X1.0700*%
%ADD78C,1.0700*%
%ADD79R,1.5750X1.5750*%
%ADD80C,2.0100*%
%ADD81C,0.6500*%
%ADD82C,0.5500*%
%ADD83C,0.7500*%
G36*
X496941Y3059D02*
X3059D01*
Y93733D01*
X7163Y97837D01*
X7826Y98829D01*
X8059Y100000D01*
X8059Y100000D01*
Y250000D01*
X8059Y250000D01*
X7826Y251170D01*
X7163Y252163D01*
X7163Y252163D01*
X3059Y256267D01*
Y346941D01*
X169304D01*
X169461Y346750D01*
Y316745D01*
X169616Y315965D01*
X170058Y315303D01*
X170720Y314861D01*
X171500Y314706D01*
X172312D01*
X172861Y313436D01*
X172250Y311962D01*
Y310072D01*
X172973Y308326D01*
X174309Y306990D01*
X176055Y306267D01*
X177945D01*
X179691Y306990D01*
X181027Y308326D01*
X181750Y310072D01*
Y311962D01*
X181139Y313436D01*
X181688Y314706D01*
X221500D01*
X222281Y314861D01*
X222942Y315303D01*
X223384Y315965D01*
X223539Y316745D01*
Y346750D01*
X223696Y346941D01*
X361179D01*
X361724Y345671D01*
X361034Y344007D01*
Y341919D01*
X361833Y339989D01*
X363310Y338512D01*
X365240Y337713D01*
X367328D01*
X369258Y338512D01*
X370735Y339989D01*
X371534Y341919D01*
Y344007D01*
X370845Y345671D01*
X371390Y346941D01*
X496941D01*
Y3059D01*
D02*
G37*
%LPC*%
G36*
X421243Y343250D02*
X418757D01*
X416460Y342299D01*
X414701Y340540D01*
X413750Y338243D01*
Y335757D01*
X414701Y333460D01*
X416460Y331702D01*
X418757Y330750D01*
X421243D01*
X423540Y331702D01*
X425299Y333460D01*
X426250Y335757D01*
Y338243D01*
X425299Y340540D01*
X423540Y342299D01*
X421243Y343250D01*
D02*
G37*
G36*
X98044Y339250D02*
X95956D01*
X94026Y338451D01*
X92549Y336974D01*
X91750Y335044D01*
Y332956D01*
X92549Y331026D01*
X94026Y329549D01*
X95956Y328750D01*
X98044D01*
X99974Y329549D01*
X101451Y331026D01*
X102250Y332956D01*
Y335044D01*
X101451Y336974D01*
X99974Y338451D01*
X98044Y339250D01*
D02*
G37*
G36*
X339873Y339039D02*
X337784D01*
X335855Y338240D01*
X334378Y336763D01*
X333579Y334834D01*
Y332745D01*
X334378Y330815D01*
X335855Y329338D01*
X337784Y328539D01*
X339873D01*
X341802Y329338D01*
X343279Y330815D01*
X344079Y332745D01*
Y334834D01*
X343279Y336763D01*
X341802Y338240D01*
X339873Y339039D01*
D02*
G37*
G36*
X144044Y338250D02*
X141956D01*
X140026Y337451D01*
X138549Y335974D01*
X137750Y334044D01*
Y331956D01*
X138549Y330026D01*
X140026Y328549D01*
X141956Y327750D01*
X144044D01*
X145974Y328549D01*
X147451Y330026D01*
X148250Y331956D01*
Y334044D01*
X147451Y335974D01*
X145974Y337451D01*
X144044Y338250D01*
D02*
G37*
G36*
X80128Y330822D02*
X65429D01*
Y317577D01*
X65293Y317428D01*
X64159Y316904D01*
X62916Y317621D01*
X61046Y318122D01*
X59111D01*
X57242Y317621D01*
X55566Y316654D01*
X54533Y315621D01*
X53728Y315409D01*
X52924Y315621D01*
X52227Y316318D01*
X52015Y317122D01*
X52227Y317927D01*
X53260Y318959D01*
X54228Y320635D01*
X54728Y322505D01*
Y324440D01*
X54228Y326309D01*
X53260Y327985D01*
X51891Y329354D01*
X50216Y330322D01*
X48346Y330822D01*
X46411D01*
X44542Y330322D01*
X42866Y329354D01*
X41833Y328321D01*
X41028Y328109D01*
X40224Y328321D01*
X39192Y329354D01*
X37515Y330322D01*
X35646Y330822D01*
X33711D01*
X31841Y330322D01*
X30166Y329354D01*
X28797Y327985D01*
X27829Y326309D01*
X27329Y324440D01*
Y322505D01*
X27829Y320635D01*
X28797Y318959D01*
X29830Y317927D01*
X30042Y317122D01*
X29830Y316318D01*
X29133Y315621D01*
X28328Y315409D01*
X27524Y315621D01*
X26491Y316654D01*
X24815Y317621D01*
X22946Y318122D01*
X21011D01*
X19141Y317621D01*
X17465Y316654D01*
X16097Y315285D01*
X15129Y313609D01*
X14628Y311740D01*
Y309805D01*
X15129Y307935D01*
X16097Y306259D01*
X17465Y304891D01*
X19141Y303923D01*
X21011Y303422D01*
X22946D01*
X24815Y303923D01*
X26491Y304891D01*
X27524Y305924D01*
X28328Y306136D01*
X29133Y305924D01*
X30166Y304891D01*
X31841Y303923D01*
X33711Y303422D01*
X35646D01*
X37515Y303923D01*
X39192Y304891D01*
X40224Y305924D01*
X41028Y306136D01*
X41833Y305924D01*
X42866Y304891D01*
X44542Y303923D01*
X46411Y303422D01*
X48346D01*
X50216Y303923D01*
X51891Y304891D01*
X52924Y305924D01*
X53728Y306136D01*
X54533Y305924D01*
X55566Y304891D01*
X57242Y303923D01*
X59111Y303422D01*
X61046D01*
X62916Y303923D01*
X64591Y304891D01*
X65624Y305924D01*
X66428Y306136D01*
X67233Y305924D01*
X68266Y304891D01*
X69942Y303923D01*
X71811Y303422D01*
X73746D01*
X75616Y303923D01*
X77291Y304891D01*
X78660Y306259D01*
X79628Y307935D01*
X80128Y309805D01*
Y311740D01*
X79628Y313609D01*
X78910Y314852D01*
X79497Y316122D01*
X80128D01*
Y330822D01*
D02*
G37*
G36*
X243249Y321865D02*
X241160D01*
X239230Y321066D01*
X237753Y319589D01*
X236954Y317659D01*
Y315571D01*
X237753Y313641D01*
X239230Y312164D01*
X241160Y311365D01*
X243249D01*
X245178Y312164D01*
X246655Y313641D01*
X247454Y315571D01*
Y317659D01*
X246655Y319589D01*
X245178Y321066D01*
X243249Y321865D01*
D02*
G37*
G36*
X159397Y309034D02*
X157309D01*
X155379Y308235D01*
X153902Y306758D01*
X153103Y304828D01*
Y302740D01*
X153902Y300810D01*
X155379Y299333D01*
X157309Y298534D01*
X159397D01*
X161327Y299333D01*
X162804Y300810D01*
X163603Y302740D01*
Y304828D01*
X162804Y306758D01*
X161327Y308235D01*
X159397Y309034D01*
D02*
G37*
G36*
X203882Y310836D02*
X201993D01*
X200247Y310112D01*
X198911Y308776D01*
X198188Y307031D01*
Y305141D01*
X198911Y303395D01*
X200204Y302102D01*
X198885Y300783D01*
X198162Y299037D01*
Y297148D01*
X198706Y295833D01*
X197602Y295278D01*
X197065Y295815D01*
X196265Y296614D01*
X195576Y296900D01*
X195328Y298146D01*
X195596Y298414D01*
X196319Y300160D01*
Y302049D01*
X195596Y303795D01*
X194260Y305131D01*
X192514Y305854D01*
X190624D01*
X188878Y305131D01*
X187542Y303795D01*
X186242Y303975D01*
X185691Y304527D01*
X183945Y305250D01*
X182055D01*
X180309Y304527D01*
X178973Y303191D01*
X178250Y301445D01*
Y299555D01*
X178973Y297809D01*
X180309Y296473D01*
X180508Y295475D01*
X180223Y295191D01*
X179500Y293445D01*
Y291555D01*
X180223Y289809D01*
X181559Y288473D01*
X183305Y287750D01*
X185195D01*
X186941Y288473D01*
X188277Y289809D01*
X188295Y289854D01*
X189647Y289798D01*
X190884Y288561D01*
X191976Y288109D01*
X192542Y287104D01*
X192485Y286628D01*
X191900Y285214D01*
Y283923D01*
X191785Y283267D01*
X190763Y282750D01*
X189805D01*
X188059Y282027D01*
X186723Y280691D01*
X186000Y278945D01*
Y277055D01*
X186723Y275309D01*
X188059Y273973D01*
X189805Y273250D01*
X191695D01*
X193441Y273973D01*
X194777Y275309D01*
X195500Y277055D01*
Y277561D01*
X196480Y278091D01*
X196843Y277826D01*
Y277015D01*
X197566Y275269D01*
X198902Y273933D01*
X200648Y273210D01*
X202538D01*
X204284Y273933D01*
X205620Y275269D01*
X206189Y275382D01*
X207059Y274511D01*
X208805Y273788D01*
X210077D01*
X210797Y273577D01*
X211250Y272643D01*
Y271555D01*
X211973Y269809D01*
X213309Y268473D01*
X215055Y267750D01*
X216945D01*
X218691Y268473D01*
X220027Y269809D01*
X220750Y271555D01*
Y273445D01*
X220027Y275191D01*
X218691Y276527D01*
X216945Y277250D01*
X215673D01*
X214953Y277461D01*
X214500Y278395D01*
Y279483D01*
X213777Y281229D01*
X212441Y282565D01*
X210695Y283288D01*
X210223Y283994D01*
X210250Y284059D01*
Y285948D01*
X209527Y287694D01*
X208191Y289030D01*
X206445Y289753D01*
X204555D01*
X202809Y289030D01*
X201538Y287759D01*
X201468Y287694D01*
X200053Y287584D01*
X199341Y288296D01*
X198249Y288748D01*
X197682Y289753D01*
X197739Y290229D01*
X198325Y291643D01*
Y293533D01*
X197780Y294847D01*
X198885Y295402D01*
X199421Y294866D01*
X200221Y294066D01*
X201967Y293343D01*
X203856D01*
X205602Y294066D01*
X206938Y295402D01*
X207661Y297148D01*
X208660Y297815D01*
X209197Y297593D01*
X211086D01*
X212832Y298316D01*
X214168Y299652D01*
X214891Y301398D01*
Y303287D01*
X214168Y305033D01*
X212832Y306369D01*
X211086Y307093D01*
X209197D01*
X208861Y306953D01*
X207401Y307723D01*
X206964Y308776D01*
X205628Y310112D01*
X203882Y310836D01*
D02*
G37*
G36*
X469895Y323405D02*
X466077D01*
X462389Y322416D01*
X459083Y320508D01*
X456383Y317808D01*
X454474Y314501D01*
X453486Y310814D01*
Y306996D01*
X454474Y303308D01*
X456383Y300002D01*
X459083Y297302D01*
X462389Y295393D01*
X466077Y294405D01*
X469895D01*
X473583Y295393D01*
X476889Y297302D01*
X479589Y300002D01*
X481498Y303308D01*
X482486Y306996D01*
Y310814D01*
X481498Y314501D01*
X479589Y317808D01*
X476889Y320508D01*
X473583Y322416D01*
X469895Y323405D01*
D02*
G37*
G36*
X253122Y302931D02*
X250835D01*
X248722Y302055D01*
X247104Y300438D01*
X246229Y298324D01*
Y296037D01*
X247104Y293923D01*
X248722Y292306D01*
X250835Y291430D01*
X253122D01*
X255236Y292306D01*
X256853Y293923D01*
X257729Y296037D01*
Y298324D01*
X256853Y300438D01*
X255236Y302055D01*
X253122Y302931D01*
D02*
G37*
G36*
X101791Y294549D02*
X99702D01*
X97773Y293749D01*
X96296Y292273D01*
X95497Y290343D01*
Y288254D01*
X96296Y286325D01*
X97773Y284848D01*
X99702Y284049D01*
X101791D01*
X103721Y284848D01*
X105197Y286325D01*
X105997Y288254D01*
Y290343D01*
X105197Y292273D01*
X103721Y293749D01*
X101791Y294549D01*
D02*
G37*
G36*
X37794Y294500D02*
X35706D01*
X33776Y293701D01*
X32299Y292224D01*
X31500Y290294D01*
Y288206D01*
X32299Y286276D01*
X33776Y284799D01*
X35706Y284000D01*
X37794D01*
X39724Y284799D01*
X41201Y286276D01*
X42000Y288206D01*
Y290294D01*
X41201Y292224D01*
X39724Y293701D01*
X37794Y294500D01*
D02*
G37*
G36*
X11044Y285250D02*
X8956D01*
X7026Y284451D01*
X5549Y282974D01*
X4750Y281044D01*
Y278956D01*
X5549Y277026D01*
X7026Y275549D01*
X8956Y274750D01*
X11044D01*
X12974Y275549D01*
X14451Y277026D01*
X15250Y278956D01*
Y281044D01*
X14451Y282974D01*
X12974Y284451D01*
X11044Y285250D01*
D02*
G37*
G36*
X340050Y284877D02*
X337962D01*
X336032Y284078D01*
X334555Y282601D01*
X333756Y280672D01*
Y278583D01*
X334555Y276653D01*
X336032Y275177D01*
X337962Y274377D01*
X340050D01*
X341980Y275177D01*
X343457Y276653D01*
X344256Y278583D01*
Y280672D01*
X343457Y282601D01*
X341980Y284078D01*
X340050Y284877D01*
D02*
G37*
G36*
X236743Y283252D02*
X234654D01*
X232725Y282453D01*
X231248Y280976D01*
X230448Y279046D01*
Y276958D01*
X231248Y275028D01*
X232725Y273551D01*
X234654Y272752D01*
X236743D01*
X238672Y273551D01*
X240149Y275028D01*
X240949Y276958D01*
Y279046D01*
X240149Y280976D01*
X238672Y282453D01*
X236743Y283252D01*
D02*
G37*
G36*
X88813Y282680D02*
X86724D01*
X84795Y281881D01*
X83318Y280404D01*
X82519Y278475D01*
Y276386D01*
X83318Y274457D01*
X84795Y272980D01*
X86724Y272180D01*
X88813D01*
X90742Y272980D01*
X92219Y274457D01*
X93019Y276386D01*
Y278475D01*
X92219Y280404D01*
X90742Y281881D01*
X88813Y282680D01*
D02*
G37*
G36*
X118032Y285635D02*
X115943D01*
X114014Y284835D01*
X112537Y283359D01*
X111738Y281429D01*
Y279340D01*
X112537Y277411D01*
X114014Y275934D01*
X115943Y275135D01*
X118032D01*
X119962Y275934D01*
X120346Y276319D01*
X121845Y276021D01*
X122312Y274893D01*
X123789Y273416D01*
X125718Y272617D01*
X127807D01*
X128141Y272755D01*
X129113Y271783D01*
X128807Y271046D01*
Y268958D01*
X129607Y267028D01*
X131083Y265551D01*
X133013Y264752D01*
X135102D01*
X137031Y265551D01*
X138508Y267028D01*
X139307Y268958D01*
Y271046D01*
X138508Y272976D01*
X137031Y274452D01*
X135102Y275252D01*
X133013D01*
X132679Y275114D01*
X131707Y276086D01*
X132013Y276822D01*
Y278911D01*
X131213Y280840D01*
X129736Y282317D01*
X127807Y283117D01*
X125718D01*
X123789Y282317D01*
X123404Y281933D01*
X121906Y282231D01*
X121439Y283359D01*
X119962Y284835D01*
X118032Y285635D01*
D02*
G37*
G36*
X312044Y275250D02*
X309956D01*
X308026Y274451D01*
X306549Y272974D01*
X305750Y271044D01*
Y268956D01*
X306549Y267026D01*
X308026Y265549D01*
X309956Y264750D01*
X312044D01*
X313974Y265549D01*
X315451Y267026D01*
X316250Y268956D01*
Y271044D01*
X315451Y272974D01*
X313974Y274451D01*
X312044Y275250D01*
D02*
G37*
G36*
X285661Y273419D02*
X283374D01*
X281260Y272543D01*
X279643Y270926D01*
X278767Y268812D01*
Y266525D01*
X279643Y264412D01*
X281260Y262794D01*
X283374Y261919D01*
X285661D01*
X287774Y262794D01*
X289392Y264412D01*
X290267Y266525D01*
Y268812D01*
X289392Y270926D01*
X287774Y272543D01*
X285661Y273419D01*
D02*
G37*
G36*
X182159Y263935D02*
X180070D01*
X178141Y263136D01*
X176664Y261659D01*
X175865Y259729D01*
Y257641D01*
X176664Y255711D01*
X178141Y254234D01*
X180070Y253435D01*
X182159D01*
X184088Y254234D01*
X185565Y255711D01*
X186365Y257641D01*
Y259729D01*
X185565Y261659D01*
X184088Y263136D01*
X182159Y263935D01*
D02*
G37*
G36*
X464201Y270379D02*
X444451D01*
Y250629D01*
X464201D01*
Y270379D01*
D02*
G37*
G36*
X164269Y251959D02*
X162180D01*
X160251Y251160D01*
X158774Y249683D01*
X157975Y247753D01*
Y245665D01*
X158774Y243735D01*
X160251Y242258D01*
X162180Y241459D01*
X164269D01*
X166199Y242258D01*
X167675Y243735D01*
X168475Y245665D01*
Y247753D01*
X167675Y249683D01*
X166199Y251160D01*
X164269Y251959D01*
D02*
G37*
G36*
X290067Y251701D02*
X287779D01*
X285666Y250826D01*
X284048Y249209D01*
X283173Y247095D01*
Y244808D01*
X284048Y242694D01*
X285666Y241077D01*
X287779Y240201D01*
X290067D01*
X292180Y241077D01*
X293797Y242694D01*
X294673Y244808D01*
Y247095D01*
X293797Y249209D01*
X292180Y250826D01*
X290067Y251701D01*
D02*
G37*
G36*
X353593Y249629D02*
X351505D01*
X349575Y248830D01*
X348098Y247353D01*
X347299Y245424D01*
Y243335D01*
X348098Y241405D01*
X349575Y239928D01*
X351505Y239129D01*
X353593D01*
X355523Y239928D01*
X357000Y241405D01*
X357799Y243335D01*
Y245424D01*
X357000Y247353D01*
X355523Y248830D01*
X353593Y249629D01*
D02*
G37*
G36*
X378120Y248766D02*
X376031D01*
X374101Y247966D01*
X372625Y246489D01*
X371825Y244560D01*
Y242471D01*
X372625Y240542D01*
X374101Y239065D01*
X376031Y238265D01*
X378120D01*
X380049Y239065D01*
X381526Y240542D01*
X382325Y242471D01*
Y244560D01*
X381526Y246489D01*
X380049Y247966D01*
X378120Y248766D01*
D02*
G37*
G36*
X320941Y244891D02*
X318853D01*
X316923Y244092D01*
X315446Y242615D01*
X314647Y240685D01*
Y238597D01*
X315446Y236667D01*
X316923Y235190D01*
X318853Y234391D01*
X320941D01*
X322871Y235190D01*
X324347Y236667D01*
X325147Y238597D01*
Y240685D01*
X324347Y242615D01*
X322871Y244092D01*
X320941Y244891D01*
D02*
G37*
G36*
X250711Y241707D02*
X248622D01*
X246693Y240907D01*
X245216Y239431D01*
X244417Y237501D01*
Y235412D01*
X245216Y233483D01*
X246693Y232006D01*
X248622Y231207D01*
X250711D01*
X252641Y232006D01*
X254117Y233483D01*
X254917Y235412D01*
Y237501D01*
X254117Y239431D01*
X252641Y240907D01*
X250711Y241707D01*
D02*
G37*
G36*
X190021Y238699D02*
X187933D01*
X186003Y237900D01*
X184527Y236423D01*
X183727Y234493D01*
Y232405D01*
X184527Y230475D01*
X186003Y228998D01*
X187933Y228199D01*
X190021D01*
X191951Y228998D01*
X193428Y230475D01*
X194227Y232405D01*
Y234493D01*
X193428Y236423D01*
X191951Y237900D01*
X190021Y238699D01*
D02*
G37*
G36*
X390342Y237001D02*
X388254D01*
X386324Y236201D01*
X384847Y234725D01*
X384048Y232795D01*
Y230706D01*
X384847Y228777D01*
X386324Y227300D01*
X388254Y226501D01*
X390342D01*
X392272Y227300D01*
X393749Y228777D01*
X394548Y230706D01*
Y232795D01*
X393749Y234725D01*
X392272Y236201D01*
X390342Y237001D01*
D02*
G37*
G36*
X261107Y227035D02*
X258820D01*
X256706Y226160D01*
X255089Y224542D01*
X254214Y222429D01*
Y222232D01*
X253040Y221746D01*
X252911Y221875D01*
X250982Y222674D01*
X248893D01*
X246963Y221875D01*
X245486Y220398D01*
X244687Y218468D01*
Y216380D01*
X245486Y214450D01*
X246963Y212973D01*
X248893Y212174D01*
X250982D01*
X252911Y212973D01*
X254388Y214450D01*
X255115Y216206D01*
X256360Y216757D01*
X256706Y216411D01*
X258820Y215535D01*
X261107D01*
X263221Y216411D01*
X264838Y218028D01*
X265714Y220142D01*
Y222429D01*
X264838Y224542D01*
X263221Y226160D01*
X261107Y227035D01*
D02*
G37*
G36*
X281607Y230996D02*
X279320D01*
X277206Y230121D01*
X275589Y228503D01*
X274713Y226390D01*
Y224102D01*
X275589Y221989D01*
X277206Y220371D01*
X279320Y219496D01*
X281417D01*
X281660Y219445D01*
X282591Y218528D01*
Y216960D01*
X283466Y214846D01*
X285084Y213229D01*
X287197Y212353D01*
X289484D01*
X291598Y213229D01*
X293215Y214846D01*
X294091Y216960D01*
Y219247D01*
X293215Y221360D01*
X291598Y222978D01*
X289484Y223853D01*
X287387D01*
X287145Y223905D01*
X286213Y224821D01*
Y226390D01*
X285338Y228503D01*
X283721Y230121D01*
X281607Y230996D01*
D02*
G37*
G36*
X318629Y222223D02*
X316540D01*
X314610Y221423D01*
X313133Y219947D01*
X312334Y218017D01*
Y215928D01*
X313133Y213999D01*
X314610Y212522D01*
X316540Y211723D01*
X318629D01*
X320558Y212522D01*
X322035Y213999D01*
X322834Y215928D01*
Y218017D01*
X322035Y219947D01*
X320558Y221423D01*
X318629Y222223D01*
D02*
G37*
G36*
X393044Y221250D02*
X390956D01*
X389026Y220451D01*
X387549Y218974D01*
X386750Y217044D01*
Y214956D01*
X387549Y213026D01*
X389026Y211549D01*
X390956Y210750D01*
X393044D01*
X394974Y211549D01*
X396451Y213026D01*
X397250Y214956D01*
Y217044D01*
X396451Y218974D01*
X394974Y220451D01*
X393044Y221250D01*
D02*
G37*
G36*
X234440Y203307D02*
X232153D01*
X230039Y202432D01*
X228422Y200814D01*
X227546Y198701D01*
Y196414D01*
X228422Y194300D01*
X230039Y192683D01*
X232153Y191807D01*
X234440D01*
X236553Y192683D01*
X238171Y194300D01*
X239046Y196414D01*
Y198701D01*
X238171Y200814D01*
X236553Y202432D01*
X234440Y203307D01*
D02*
G37*
G36*
X439539Y201435D02*
X437451D01*
X435521Y200636D01*
X434044Y199159D01*
X433245Y197229D01*
Y195141D01*
X434044Y193211D01*
X435521Y191734D01*
X437451Y190935D01*
X439539D01*
X441469Y191734D01*
X442946Y193211D01*
X443745Y195141D01*
Y197229D01*
X442946Y199159D01*
X441469Y200636D01*
X439539Y201435D01*
D02*
G37*
G36*
X298673Y203627D02*
X296385D01*
X294272Y202752D01*
X292654Y201134D01*
X291779Y199021D01*
Y196733D01*
X292654Y194620D01*
X294026Y193249D01*
X294268Y192971D01*
X294125Y191689D01*
X293323Y190887D01*
X292524Y188957D01*
Y186868D01*
X293323Y184939D01*
X294800Y183462D01*
X296730Y182663D01*
X298818D01*
X300748Y183462D01*
X302225Y184939D01*
X303024Y186868D01*
Y188957D01*
X302225Y190887D01*
X301277Y191834D01*
X300910Y192709D01*
X301277Y193494D01*
X302404Y194620D01*
X303279Y196733D01*
Y199021D01*
X302404Y201134D01*
X300786Y202752D01*
X298673Y203627D01*
D02*
G37*
G36*
X247157Y186222D02*
X245068D01*
X243139Y185422D01*
X241662Y183946D01*
X240863Y182016D01*
Y179927D01*
X241662Y177998D01*
X243139Y176521D01*
X245068Y175722D01*
X247157D01*
X249087Y176521D01*
X250564Y177998D01*
X251363Y179927D01*
Y182016D01*
X250564Y183946D01*
X249087Y185422D01*
X247157Y186222D01*
D02*
G37*
G36*
X92794Y209122D02*
X90706D01*
X88776Y208322D01*
X87299Y206846D01*
X86500Y204916D01*
Y202827D01*
X87299Y200898D01*
X88776Y199421D01*
X90706Y198622D01*
X92611D01*
X92980Y198120D01*
X93228Y197448D01*
X92023Y196243D01*
X91223Y194314D01*
Y192225D01*
X92023Y190295D01*
X93500Y188818D01*
X95429Y188019D01*
X97518D01*
X98491Y188423D01*
X99211Y187346D01*
X99089Y187224D01*
X98290Y185294D01*
Y183206D01*
X99089Y181276D01*
X100566Y179799D01*
X102495Y179000D01*
X104584D01*
X106514Y179799D01*
X107990Y181276D01*
X108265Y181940D01*
X108827Y181979D01*
X109588Y181814D01*
X110299Y180096D01*
X111776Y178619D01*
X113706Y177820D01*
X115794D01*
X116292Y178026D01*
X117264Y177054D01*
X116973Y176353D01*
Y174265D01*
X117773Y172335D01*
X119249Y170858D01*
X121179Y170059D01*
X123268D01*
X125197Y170858D01*
X126674Y172335D01*
X127473Y174265D01*
Y176353D01*
X126674Y178283D01*
X125197Y179760D01*
X123268Y180559D01*
X121179D01*
X120682Y180353D01*
X119710Y181325D01*
X120000Y182025D01*
Y184114D01*
X119201Y186044D01*
X117724Y187521D01*
X115794Y188320D01*
X113706D01*
X111776Y187521D01*
X110299Y186044D01*
X110024Y185380D01*
X109462Y185341D01*
X108702Y185506D01*
X107990Y187224D01*
X106514Y188701D01*
X104584Y189500D01*
X102495D01*
X101522Y189097D01*
X100802Y190173D01*
X100924Y190295D01*
X101723Y192225D01*
Y194314D01*
X100924Y196243D01*
X99447Y197720D01*
X97518Y198519D01*
X95613D01*
X95244Y199021D01*
X94995Y199692D01*
X96201Y200898D01*
X97000Y202827D01*
Y204916D01*
X96201Y206846D01*
X94724Y208322D01*
X92794Y209122D01*
D02*
G37*
G36*
X350089Y178998D02*
X348000D01*
X346071Y178199D01*
X344594Y176722D01*
X343795Y174793D01*
Y172704D01*
X344594Y170775D01*
X346071Y169298D01*
X348000Y168498D01*
X350089D01*
X352018Y169298D01*
X353495Y170775D01*
X354295Y172704D01*
Y174793D01*
X353495Y176722D01*
X352018Y178199D01*
X350089Y178998D01*
D02*
G37*
G36*
X405310Y169935D02*
X403221D01*
X401292Y169135D01*
X399815Y167659D01*
X399016Y165729D01*
Y163640D01*
X399815Y161711D01*
X401292Y160234D01*
X403221Y159435D01*
X405310D01*
X407240Y160234D01*
X408717Y161711D01*
X409516Y163640D01*
Y165729D01*
X408717Y167659D01*
X407240Y169135D01*
X405310Y169935D01*
D02*
G37*
G36*
X97312Y172375D02*
X95224D01*
X93294Y171575D01*
X91817Y170098D01*
X91018Y168169D01*
Y166080D01*
X91817Y164151D01*
X91968Y164000D01*
X91720Y162754D01*
X91275Y162570D01*
X89798Y161093D01*
X88999Y159163D01*
Y157075D01*
X89798Y155145D01*
X91275Y153668D01*
X93205Y152869D01*
X95293D01*
X97223Y153668D01*
X98700Y155145D01*
X99499Y157075D01*
Y159163D01*
X98700Y161093D01*
X98549Y161244D01*
X98796Y162489D01*
X99242Y162674D01*
X100718Y164151D01*
X101518Y166080D01*
Y168169D01*
X100718Y170098D01*
X99242Y171575D01*
X97312Y172375D01*
D02*
G37*
G36*
X396476Y160591D02*
X394388D01*
X392458Y159792D01*
X390981Y158315D01*
X390182Y156385D01*
Y154297D01*
X390981Y152367D01*
X392458Y150891D01*
X394388Y150091D01*
X396476D01*
X398406Y150891D01*
X399883Y152367D01*
X400682Y154297D01*
Y156385D01*
X399883Y158315D01*
X398406Y159792D01*
X396476Y160591D01*
D02*
G37*
G36*
X204916Y149379D02*
X202827D01*
X200898Y148579D01*
X199421Y147102D01*
X198621Y145173D01*
Y143084D01*
X199421Y141155D01*
X200898Y139678D01*
X202827Y138879D01*
X204916D01*
X206845Y139678D01*
X208322Y141155D01*
X209121Y143084D01*
Y145173D01*
X208322Y147102D01*
X206845Y148579D01*
X204916Y149379D01*
D02*
G37*
G36*
X434677Y144498D02*
X432588D01*
X430659Y143699D01*
X429182Y142222D01*
X428383Y140293D01*
Y138204D01*
X429182Y136274D01*
X430659Y134798D01*
X432588Y133998D01*
X434677D01*
X436606Y134798D01*
X438083Y136274D01*
X438883Y138204D01*
Y140293D01*
X438083Y142222D01*
X436606Y143699D01*
X434677Y144498D01*
D02*
G37*
G36*
X427177Y134150D02*
X425088D01*
X423158Y133351D01*
X421682Y131874D01*
X420882Y129944D01*
Y127856D01*
X421682Y125926D01*
X423158Y124449D01*
X425088Y123650D01*
X427177D01*
X429106Y124449D01*
X430583Y125926D01*
X431382Y127856D01*
Y129944D01*
X430583Y131874D01*
X429106Y133351D01*
X427177Y134150D01*
D02*
G37*
G36*
X246909Y104500D02*
X243091D01*
X239403Y103512D01*
X236097Y101603D01*
X233397Y98903D01*
X231488Y95597D01*
X230500Y91909D01*
Y88091D01*
X231488Y84403D01*
X233397Y81097D01*
X236097Y78397D01*
X239403Y76488D01*
X243091Y75500D01*
X246909D01*
X250597Y76488D01*
X253903Y78397D01*
X256603Y81097D01*
X258512Y84403D01*
X259500Y88091D01*
Y91909D01*
X258512Y95597D01*
X256603Y98903D01*
X253903Y101603D01*
X250597Y103512D01*
X246909Y104500D01*
D02*
G37*
G36*
X404738Y67908D02*
X402649D01*
X400720Y67109D01*
X399243Y65632D01*
X398443Y63703D01*
Y61614D01*
X399243Y59684D01*
X400720Y58207D01*
X402649Y57408D01*
X404738D01*
X406667Y58207D01*
X408144Y59684D01*
X408943Y61614D01*
Y63703D01*
X408144Y65632D01*
X406667Y67109D01*
X404738Y67908D01*
D02*
G37*
G36*
X483792Y62705D02*
X464042D01*
Y42955D01*
X483792D01*
Y62705D01*
D02*
G37*
G36*
X355138Y61039D02*
X335388D01*
Y41289D01*
X355138D01*
Y61039D01*
D02*
G37*
G36*
X36674Y72000D02*
X33326D01*
X30041Y71347D01*
X26948Y70065D01*
X24163Y68205D01*
X21795Y65837D01*
X19935Y63053D01*
X18653Y59959D01*
X18000Y56674D01*
Y53326D01*
X18653Y50041D01*
X19935Y46947D01*
X21795Y44163D01*
X24163Y41795D01*
X26948Y39935D01*
X30041Y38653D01*
X33326Y38000D01*
X36674D01*
X39959Y38653D01*
X43053Y39935D01*
X45837Y41795D01*
X48205Y44163D01*
X50065Y46947D01*
X51347Y50041D01*
X52000Y53326D01*
Y56674D01*
X51347Y59959D01*
X50065Y63053D01*
X48205Y65837D01*
X45837Y68205D01*
X43053Y70065D01*
X39959Y71347D01*
X36674Y72000D01*
D02*
G37*
G36*
X303755Y21290D02*
X301667D01*
X299737Y20490D01*
X298260Y19014D01*
X297461Y17084D01*
Y14995D01*
X298260Y13066D01*
X299737Y11589D01*
X301667Y10790D01*
X303755D01*
X305685Y11589D01*
X307162Y13066D01*
X307961Y14995D01*
Y17084D01*
X307162Y19014D01*
X305685Y20490D01*
X303755Y21290D01*
D02*
G37*
G36*
X139606Y19877D02*
X137517D01*
X135587Y19077D01*
X134110Y17601D01*
X133311Y15671D01*
Y13582D01*
X134110Y11653D01*
X135587Y10176D01*
X137517Y9377D01*
X139606D01*
X141535Y10176D01*
X143012Y11653D01*
X143811Y13582D01*
Y15671D01*
X143012Y17601D01*
X141535Y19077D01*
X139606Y19877D01*
D02*
G37*
G36*
X81243Y20250D02*
X78757D01*
X76460Y19298D01*
X74701Y17540D01*
X73750Y15243D01*
Y12757D01*
X74701Y10460D01*
X76460Y8702D01*
X78757Y7750D01*
X81243D01*
X83540Y8702D01*
X85299Y10460D01*
X86250Y12757D01*
Y15243D01*
X85299Y17540D01*
X83540Y19298D01*
X81243Y20250D01*
D02*
G37*
G36*
X244832Y19673D02*
X242346D01*
X240048Y18722D01*
X238290Y16964D01*
X237339Y14667D01*
Y12180D01*
X238290Y9883D01*
X240048Y8125D01*
X242346Y7173D01*
X244832D01*
X247129Y8125D01*
X248887Y9883D01*
X249839Y12180D01*
Y14667D01*
X248887Y16964D01*
X247129Y18722D01*
X244832Y19673D01*
D02*
G37*
G36*
X421243Y19068D02*
X418757D01*
X416460Y18116D01*
X414701Y16358D01*
X413750Y14061D01*
Y11575D01*
X414701Y9277D01*
X416460Y7519D01*
X418757Y6568D01*
X421243D01*
X423540Y7519D01*
X425298Y9277D01*
X426250Y11575D01*
Y14061D01*
X425298Y16358D01*
X423540Y18116D01*
X421243Y19068D01*
D02*
G37*
%LPD*%
D73*
X473917Y27430D02*
D03*
X345263Y25764D02*
D03*
X479726Y260504D02*
D03*
D74*
X473917Y52830D02*
D03*
X345263Y51164D02*
D03*
D75*
X80000Y14000D02*
D03*
X420000Y12818D02*
D03*
X420000Y337000D02*
D03*
X243589Y13423D02*
D03*
D76*
X35000Y55000D02*
D03*
X467986Y308905D02*
D03*
X245000Y90000D02*
D03*
D77*
X72779Y323472D02*
D03*
D78*
Y310772D02*
D03*
X60079Y323472D02*
D03*
Y310772D02*
D03*
X47379Y323472D02*
D03*
Y310772D02*
D03*
X34678Y323472D02*
D03*
Y310772D02*
D03*
X21978Y323472D02*
D03*
Y310772D02*
D03*
D79*
X454326Y260504D02*
D03*
D80*
X484202Y91055D02*
D03*
Y177456D02*
D03*
X446202Y91055D02*
D03*
Y177456D02*
D03*
D81*
X231283Y257718D02*
D03*
X465000Y165000D02*
D03*
Y245000D02*
D03*
Y85000D02*
D03*
X425000Y325000D02*
D03*
X445214Y331534D02*
D03*
X424039Y302359D02*
D03*
X153238Y15933D02*
D03*
X225000Y85000D02*
D03*
X245000Y125000D02*
D03*
X235699Y278002D02*
D03*
X249667Y236457D02*
D03*
X215425Y255772D02*
D03*
X230042Y226529D02*
D03*
X208836Y243512D02*
D03*
X196150Y256069D02*
D03*
X317584Y216973D02*
D03*
X233737Y310750D02*
D03*
X170243Y170765D02*
D03*
X20649Y20446D02*
D03*
X486132Y334156D02*
D03*
X397537Y121385D02*
D03*
X179628Y215110D02*
D03*
X282450Y124829D02*
D03*
X445000Y285000D02*
D03*
Y45000D02*
D03*
X405000Y285000D02*
D03*
X425000Y245000D02*
D03*
Y165000D02*
D03*
X365000Y285000D02*
D03*
Y125000D02*
D03*
X385000Y85000D02*
D03*
X365000Y45000D02*
D03*
X325000Y125000D02*
D03*
Y45000D02*
D03*
X305000Y325000D02*
D03*
Y85000D02*
D03*
X265000D02*
D03*
X245000Y45000D02*
D03*
X225000Y165000D02*
D03*
X205000Y45000D02*
D03*
X185000Y85000D02*
D03*
X165000Y45000D02*
D03*
X145000Y245000D02*
D03*
Y85000D02*
D03*
X85000Y45000D02*
D03*
X65000Y245000D02*
D03*
X45000Y205000D02*
D03*
X65000Y165000D02*
D03*
X45000Y125000D02*
D03*
X65000Y85000D02*
D03*
X403694Y62658D02*
D03*
X417318Y62448D02*
D03*
X395432Y155341D02*
D03*
X426132Y128900D02*
D03*
X404266Y164685D02*
D03*
X434173Y161758D02*
D03*
X433633Y139248D02*
D03*
X438495Y196185D02*
D03*
X120000Y83000D02*
D03*
X138561Y14627D02*
D03*
X138971Y28592D02*
D03*
X103540Y184250D02*
D03*
X114750Y183070D02*
D03*
X122223Y175309D02*
D03*
X297774Y187913D02*
D03*
X181115Y258685D02*
D03*
X349044Y173748D02*
D03*
X96268Y167125D02*
D03*
X64866Y279866D02*
D03*
X158353Y303784D02*
D03*
X107233Y259367D02*
D03*
X91750Y203872D02*
D03*
X249937Y217424D02*
D03*
X96474Y193269D02*
D03*
X100747Y289299D02*
D03*
X87768Y277430D02*
D03*
X188977Y233449D02*
D03*
X170280Y272218D02*
D03*
X434892Y106494D02*
D03*
X126681Y213303D02*
D03*
X232000Y325500D02*
D03*
X352500Y195000D02*
D03*
X362500Y220000D02*
D03*
X352500D02*
D03*
X362500Y207500D02*
D03*
X352500D02*
D03*
X362500Y195000D02*
D03*
X340000D02*
D03*
Y207500D02*
D03*
Y220000D02*
D03*
X164049Y256475D02*
D03*
X160681Y265727D02*
D03*
X302711Y16040D02*
D03*
X366284Y342963D02*
D03*
X203871Y144129D02*
D03*
X302526Y30124D02*
D03*
X338829Y333789D02*
D03*
X311000Y270000D02*
D03*
X392000Y216000D02*
D03*
X339006Y279627D02*
D03*
X332000Y285000D02*
D03*
X161000Y312500D02*
D03*
X115000Y324839D02*
D03*
X125000D02*
D03*
X10000Y280000D02*
D03*
X97000Y334000D02*
D03*
X143000Y333000D02*
D03*
X242204Y316615D02*
D03*
X319897Y239641D02*
D03*
X399466Y255554D02*
D03*
X377075Y243515D02*
D03*
X163225Y246709D02*
D03*
X126473Y204588D02*
D03*
X125890Y194698D02*
D03*
X72331Y61963D02*
D03*
X97000Y53000D02*
D03*
X389298Y231751D02*
D03*
X403000Y216000D02*
D03*
X352549Y244379D02*
D03*
X116988Y280385D02*
D03*
X333000Y302000D02*
D03*
X295000Y330000D02*
D03*
X54609Y19282D02*
D03*
X218305Y18813D02*
D03*
X446250Y13250D02*
D03*
X311081Y143939D02*
D03*
X94249Y158119D02*
D03*
X134057Y270002D02*
D03*
X126763Y277867D02*
D03*
X161000Y334000D02*
D03*
X231731Y334894D02*
D03*
X161000Y343000D02*
D03*
X232891Y343086D02*
D03*
X161000Y325000D02*
D03*
X246113Y180972D02*
D03*
X256425Y181647D02*
D03*
X266179Y171308D02*
D03*
X125000Y160000D02*
D03*
Y147000D02*
D03*
Y135000D02*
D03*
Y122000D02*
D03*
X106000Y83000D02*
D03*
X55307Y86239D02*
D03*
X367603Y144043D02*
D03*
X351000Y93000D02*
D03*
X380000Y343000D02*
D03*
X353917Y143939D02*
D03*
X327797Y144043D02*
D03*
X321000Y250000D02*
D03*
X369816Y269697D02*
D03*
X370000Y257000D02*
D03*
X253784Y199078D02*
D03*
X73130Y153327D02*
D03*
X72967Y198435D02*
D03*
X317779Y228841D02*
D03*
X226481Y126386D02*
D03*
X55584Y264972D02*
D03*
X36750Y289250D02*
D03*
D82*
X177000Y311017D02*
D03*
X193575Y292588D02*
D03*
X205500Y285004D02*
D03*
X202911Y298093D02*
D03*
X209750Y278538D02*
D03*
X196650Y284269D02*
D03*
X183000Y300500D02*
D03*
X216000Y272500D02*
D03*
X201593Y277960D02*
D03*
X190750Y278000D02*
D03*
X184250Y292500D02*
D03*
X189898Y311238D02*
D03*
X191569Y301105D02*
D03*
X231282Y298572D02*
D03*
X215614Y311718D02*
D03*
X182856Y281171D02*
D03*
X210142Y302343D02*
D03*
X202938Y306086D02*
D03*
D83*
X288341Y218103D02*
D03*
X280464Y225246D02*
D03*
X284517Y267669D02*
D03*
X251979Y297181D02*
D03*
X297529Y197877D02*
D03*
X259964Y221285D02*
D03*
X233296Y197557D02*
D03*
X288923Y245951D02*
D03*
M02*
