G04*
G04 #@! TF.GenerationSoftware,Altium Limited,Altium Designer,24.3.1 (35)*
G04*
G04 Layer_Color=8388736*
%FSLAX44Y44*%
%MOMM*%
G71*
G04*
G04 #@! TF.SameCoordinates,31FC7E56-FDD3-428C-A461-55F7AD2C4BF1*
G04*
G04*
G04 #@! TF.FilePolarity,Negative*
G04*
G01*
G75*
%ADD31R,0.3000X0.3500*%
%ADD32R,0.3500X0.3000*%
%ADD39R,0.8000X0.7000*%
%ADD40R,0.7000X0.8000*%
%ADD41R,0.9000X1.8000*%
%ADD42R,0.5016X0.5016*%
%ADD43R,0.6016X0.6016*%
%ADD44R,2.0000X1.2000*%
%ADD45R,0.9000X0.9000*%
%ADD46R,3.7000X3.7000*%
%ADD47R,0.4000X0.9000*%
%ADD48R,0.9000X0.4000*%
%ADD49R,1.1500X0.9500*%
%ADD50R,1.0000X0.4000*%
%ADD51R,1.9000X1.2000*%
%ADD52R,2.4000X4.9500*%
%ADD53R,1.1160X1.1160*%
%ADD54R,1.1500X0.6000*%
%ADD55R,1.3000X0.9000*%
%ADD56R,1.3000X0.8600*%
%ADD57R,1.3000X0.8000*%
%ADD58C,1.6750*%
%ADD59R,1.6750X1.6750*%
%ADD60C,0.5250*%
%ADD61C,1.6240*%
%ADD62R,1.1700X1.1700*%
%ADD63C,1.1700*%
%ADD64R,1.6750X1.6750*%
%ADD65C,2.1100*%
D31*
X261320Y191746D02*
D03*
X256320D02*
D03*
X251320D02*
D03*
X246320D02*
D03*
Y207246D02*
D03*
X251320D02*
D03*
X256320D02*
D03*
X261320D02*
D03*
D32*
X246070Y196996D02*
D03*
Y201996D02*
D03*
X261570D02*
D03*
Y196996D02*
D03*
D39*
X403568Y53198D02*
D03*
Y43198D02*
D03*
X417068D02*
D03*
Y53198D02*
D03*
X430569Y43189D02*
D03*
Y53188D02*
D03*
X366250Y323250D02*
D03*
Y333250D02*
D03*
X380000D02*
D03*
Y323250D02*
D03*
X352500D02*
D03*
Y333250D02*
D03*
X106000Y92000D02*
D03*
Y102000D02*
D03*
X308000Y218000D02*
D03*
Y228000D02*
D03*
X120000Y102000D02*
D03*
Y92000D02*
D03*
X96851Y72378D02*
D03*
Y62378D02*
D03*
X82136Y72378D02*
D03*
Y62378D02*
D03*
X354000Y164000D02*
D03*
Y154000D02*
D03*
X368000Y164000D02*
D03*
Y154000D02*
D03*
X321000Y270000D02*
D03*
Y260000D02*
D03*
X399692Y275268D02*
D03*
Y265268D02*
D03*
X351097Y113171D02*
D03*
Y103171D02*
D03*
X107259Y250868D02*
D03*
Y240868D02*
D03*
X328000Y154000D02*
D03*
Y164000D02*
D03*
X311000Y154000D02*
D03*
Y164000D02*
D03*
X308000Y198000D02*
D03*
Y188000D02*
D03*
D40*
X128811Y14877D02*
D03*
X118811D02*
D03*
Y28377D02*
D03*
X128811D02*
D03*
X118811Y41877D02*
D03*
X128811D02*
D03*
X283251Y16165D02*
D03*
X293251D02*
D03*
Y29665D02*
D03*
X283251D02*
D03*
X392549Y205306D02*
D03*
X402549D02*
D03*
X199283Y243470D02*
D03*
X189283D02*
D03*
X239643Y226456D02*
D03*
X249643D02*
D03*
X115500Y134750D02*
D03*
X105500D02*
D03*
X115500Y122250D02*
D03*
X105500D02*
D03*
X202325Y122929D02*
D03*
X192325D02*
D03*
X226481Y136545D02*
D03*
X216481D02*
D03*
X246305Y171334D02*
D03*
X256305D02*
D03*
X105500Y209000D02*
D03*
X115500D02*
D03*
X105500Y196000D02*
D03*
X115500D02*
D03*
X105500Y159750D02*
D03*
X115500D02*
D03*
X105500Y147250D02*
D03*
X115500D02*
D03*
X349926Y269644D02*
D03*
X359926D02*
D03*
X349961Y256671D02*
D03*
X359961D02*
D03*
X322651Y302872D02*
D03*
X312651D02*
D03*
X322303Y283474D02*
D03*
X312302D02*
D03*
X97079Y323472D02*
D03*
X107079D02*
D03*
X45000Y280000D02*
D03*
X55000D02*
D03*
X115500Y222000D02*
D03*
X105500D02*
D03*
X392549Y192806D02*
D03*
X402549D02*
D03*
X392549Y180306D02*
D03*
X402549D02*
D03*
X300039Y245400D02*
D03*
X310039D02*
D03*
X284802Y330137D02*
D03*
X274802D02*
D03*
X19000Y280000D02*
D03*
X29000D02*
D03*
X142981Y323071D02*
D03*
X132981D02*
D03*
X293251Y43165D02*
D03*
X283251D02*
D03*
D41*
X97000Y14000D02*
D03*
X63000D02*
D03*
X403000Y12818D02*
D03*
X437000D02*
D03*
X403000Y337000D02*
D03*
X437000D02*
D03*
X226589Y13423D02*
D03*
X260589D02*
D03*
D42*
X222500Y272500D02*
D03*
X170500Y311500D02*
D03*
X183500D02*
D03*
X196500D02*
D03*
X203000D02*
D03*
X209500D02*
D03*
X222500D02*
D03*
X222500Y305000D02*
D03*
Y298500D02*
D03*
X222500Y292000D02*
D03*
Y285500D02*
D03*
Y279000D02*
D03*
Y266000D02*
D03*
X216000D02*
D03*
X209500Y266000D02*
D03*
X203000Y266000D02*
D03*
X196500D02*
D03*
X190000Y266000D02*
D03*
X183500Y266000D02*
D03*
X177000D02*
D03*
X170500D02*
D03*
Y285500D02*
D03*
Y292000D02*
D03*
Y298500D02*
D03*
Y305000D02*
D03*
X177000Y305000D02*
D03*
X196500D02*
D03*
X216000Y305000D02*
D03*
Y298500D02*
D03*
Y292000D02*
D03*
Y285500D02*
D03*
Y279000D02*
D03*
X209500Y272500D02*
D03*
X203000D02*
D03*
X196500D02*
D03*
X190000D02*
D03*
X183500D02*
D03*
X177000D02*
D03*
Y285500D02*
D03*
Y292000D02*
D03*
Y298500D02*
D03*
X169000Y319750D02*
D03*
Y342750D02*
D03*
Y331250D02*
D03*
X224000Y331250D02*
D03*
Y342750D02*
D03*
Y319750D02*
D03*
D43*
X186500Y285750D02*
D03*
D44*
X286000Y279000D02*
D03*
Y304000D02*
D03*
D45*
X444674Y211269D02*
D03*
X428174D02*
D03*
X240948Y330509D02*
D03*
X257448D02*
D03*
X428186Y232797D02*
D03*
X444686D02*
D03*
D46*
X351299Y207806D02*
D03*
D47*
X368799Y232306D02*
D03*
X363799D02*
D03*
X358799D02*
D03*
X353799D02*
D03*
X348799D02*
D03*
X343799D02*
D03*
X338799D02*
D03*
X333799D02*
D03*
Y183306D02*
D03*
X338799D02*
D03*
X343799D02*
D03*
X348799D02*
D03*
X353799D02*
D03*
X358799D02*
D03*
X363799D02*
D03*
X368799D02*
D03*
D48*
X326799Y225306D02*
D03*
Y220306D02*
D03*
Y215306D02*
D03*
Y210306D02*
D03*
Y205306D02*
D03*
Y200306D02*
D03*
Y195306D02*
D03*
Y190306D02*
D03*
X375799D02*
D03*
Y195306D02*
D03*
Y200306D02*
D03*
Y205306D02*
D03*
Y210306D02*
D03*
Y215306D02*
D03*
Y220306D02*
D03*
Y225306D02*
D03*
D49*
X155000Y99000D02*
D03*
X191000D02*
D03*
X155000Y62000D02*
D03*
X191000D02*
D03*
Y25000D02*
D03*
X155000D02*
D03*
D50*
X82000Y233500D02*
D03*
Y228500D02*
D03*
Y223500D02*
D03*
Y218500D02*
D03*
Y213500D02*
D03*
Y208500D02*
D03*
Y203500D02*
D03*
Y198500D02*
D03*
Y193500D02*
D03*
Y188500D02*
D03*
Y183500D02*
D03*
Y178500D02*
D03*
Y173500D02*
D03*
Y168500D02*
D03*
Y163500D02*
D03*
Y158500D02*
D03*
Y153500D02*
D03*
Y148500D02*
D03*
Y143500D02*
D03*
Y138500D02*
D03*
Y133500D02*
D03*
Y128500D02*
D03*
Y123500D02*
D03*
Y118500D02*
D03*
D51*
X55000Y255000D02*
D03*
Y97000D02*
D03*
D52*
X190000Y170750D02*
D03*
X151000D02*
D03*
D53*
X336316Y267505D02*
D03*
Y248257D02*
D03*
X384104Y275327D02*
D03*
Y256079D02*
D03*
D54*
X150780Y230113D02*
D03*
X129780Y223613D02*
D03*
Y236613D02*
D03*
D55*
X445402Y106756D02*
D03*
Y161756D02*
D03*
D56*
Y119056D02*
D03*
Y149455D02*
D03*
D57*
Y139256D02*
D03*
Y129256D02*
D03*
D58*
X473917Y27430D02*
D03*
X345263Y25764D02*
D03*
X479726Y260504D02*
D03*
D59*
X473917Y52830D02*
D03*
X345263Y51164D02*
D03*
D60*
X80000Y14000D02*
D03*
X420000Y12818D02*
D03*
X420000Y337000D02*
D03*
X243589Y13423D02*
D03*
D61*
X35000Y55000D02*
D03*
X467986Y308905D02*
D03*
X245000Y90000D02*
D03*
D62*
X72779Y323472D02*
D03*
D63*
Y310772D02*
D03*
X60079Y323472D02*
D03*
Y310772D02*
D03*
X47379Y323472D02*
D03*
Y310772D02*
D03*
X34678Y323472D02*
D03*
Y310772D02*
D03*
X21978Y323472D02*
D03*
Y310772D02*
D03*
D64*
X454326Y260504D02*
D03*
D65*
X484202Y91055D02*
D03*
Y177456D02*
D03*
X446202Y91055D02*
D03*
Y177456D02*
D03*
M02*
