G04*
G04 #@! TF.GenerationSoftware,Altium Limited,Altium Designer,24.3.1 (35)*
G04*
G04 Layer_Physical_Order=4*
G04 Layer_Color=15238730*
%FSLAX44Y44*%
%MOMM*%
G71*
G04*
G04 #@! TF.SameCoordinates,31FC7E56-FDD3-428C-A461-55F7AD2C4BF1*
G04*
G04*
G04 #@! TF.FilePolarity,Positive*
G04*
G01*
G75*
%ADD10C,0.2000*%
%ADD17C,0.1200*%
%ADD68C,0.5080*%
%ADD73C,1.5750*%
%ADD74R,1.5750X1.5750*%
%ADD75C,0.4250*%
%ADD76C,1.5240*%
%ADD77R,1.0700X1.0700*%
%ADD78C,1.0700*%
%ADD79R,1.5750X1.5750*%
%ADD80C,2.0100*%
%ADD81C,0.6500*%
%ADD82C,0.5500*%
%ADD83C,0.7500*%
G36*
X496941Y3059D02*
X3059D01*
Y93733D01*
X7163Y97837D01*
X7826Y98829D01*
X8059Y100000D01*
X8059Y100000D01*
Y250000D01*
X8059Y250000D01*
X7826Y251170D01*
X7163Y252163D01*
X7163Y252163D01*
X3059Y256267D01*
Y346941D01*
X169304D01*
X169461Y346750D01*
Y319210D01*
X168287Y318724D01*
X166259Y320752D01*
X165267Y321415D01*
X164096Y321648D01*
X164096Y321648D01*
X100754D01*
X99583Y321415D01*
X98591Y320752D01*
X98591Y320752D01*
X78937Y301098D01*
X67471D01*
X64710Y303859D01*
X64794Y305126D01*
X65321Y305530D01*
X65793Y306147D01*
X67063D01*
X67537Y305530D01*
X69072Y304352D01*
X70860Y303612D01*
X72779Y303359D01*
X74697Y303612D01*
X76485Y304352D01*
X78021Y305530D01*
X79199Y307066D01*
X79939Y308854D01*
X80192Y310772D01*
X79939Y312691D01*
X79199Y314479D01*
X78912Y314852D01*
X79539Y316122D01*
X80128D01*
Y330822D01*
X65429D01*
Y317533D01*
X64159Y316906D01*
X63785Y317193D01*
X61997Y317933D01*
X60079Y318186D01*
X58160Y317933D01*
X56372Y317193D01*
X54837Y316014D01*
X54363Y315398D01*
X53094D01*
X52621Y316014D01*
X52004Y316487D01*
Y317757D01*
X52621Y318230D01*
X53799Y319766D01*
X54539Y321554D01*
X54792Y323472D01*
X54539Y325391D01*
X53799Y327179D01*
X52621Y328714D01*
X51085Y329893D01*
X49297Y330633D01*
X47379Y330886D01*
X45460Y330633D01*
X43672Y329893D01*
X42137Y328714D01*
X41663Y328098D01*
X40394D01*
X39921Y328714D01*
X38385Y329893D01*
X36597Y330633D01*
X34678Y330886D01*
X32760Y330633D01*
X30972Y329893D01*
X29437Y328714D01*
X28258Y327179D01*
X27518Y325391D01*
X27265Y323472D01*
X27518Y321554D01*
X28258Y319766D01*
X29437Y318230D01*
X30053Y317757D01*
Y316487D01*
X29437Y316014D01*
X28963Y315398D01*
X27694D01*
X27221Y316014D01*
X25685Y317193D01*
X23897Y317933D01*
X21978Y318186D01*
X20060Y317933D01*
X18272Y317193D01*
X16737Y316014D01*
X15558Y314479D01*
X14818Y312691D01*
X14565Y310772D01*
X14818Y308854D01*
X15558Y307066D01*
X16737Y305530D01*
X18272Y304352D01*
X20060Y303612D01*
X21978Y303359D01*
X23897Y303612D01*
X25685Y304352D01*
X27221Y305530D01*
X27694Y306147D01*
X28963D01*
X29437Y305530D01*
X30972Y304352D01*
X32760Y303612D01*
X34678Y303359D01*
X36597Y303612D01*
X38385Y304352D01*
X39921Y305530D01*
X40394Y306147D01*
X41663D01*
X42137Y305530D01*
X43672Y304352D01*
X45460Y303612D01*
X47379Y303359D01*
X49297Y303612D01*
X51085Y304352D01*
X52621Y305530D01*
X53094Y306147D01*
X54363D01*
X54837Y305530D01*
X56372Y304352D01*
X57591Y303847D01*
Y303594D01*
X57591Y303594D01*
X57824Y302423D01*
X58486Y301431D01*
X64041Y295877D01*
X64041Y295877D01*
X65033Y295214D01*
X66204Y294981D01*
X80204D01*
X80204Y294981D01*
X80435Y295027D01*
X81060Y293856D01*
X79513Y292309D01*
X74899D01*
X74899Y292309D01*
X41020D01*
X40535Y293035D01*
X38798Y294195D01*
X36750Y294603D01*
X34702Y294195D01*
X32965Y293035D01*
X31805Y291298D01*
X31397Y289250D01*
X31805Y287202D01*
X32965Y285465D01*
X34702Y284305D01*
X36750Y283897D01*
X38798Y284305D01*
X40535Y285465D01*
X41020Y286191D01*
X74899D01*
X74899Y286191D01*
X74899Y286191D01*
X80780D01*
X80780Y286191D01*
X81950Y286424D01*
X82943Y287087D01*
X90831Y294975D01*
X97507D01*
X97892Y293705D01*
X96962Y293084D01*
X95801Y291347D01*
X95394Y289299D01*
X95801Y287250D01*
X96962Y285514D01*
X98698Y284353D01*
X100747Y283946D01*
X102795Y284353D01*
X104532Y285514D01*
X105001Y286216D01*
X106201Y286176D01*
X106660Y285067D01*
X102083Y280489D01*
X92039D01*
X91553Y281215D01*
X89817Y282376D01*
X87768Y282783D01*
X85720Y282376D01*
X83983Y281215D01*
X82823Y279479D01*
X82416Y277430D01*
X82823Y275382D01*
X83983Y273645D01*
X85720Y272485D01*
X87768Y272078D01*
X89817Y272485D01*
X91553Y273645D01*
X92039Y274372D01*
X103350D01*
X103350Y274372D01*
X104521Y274604D01*
X105513Y275268D01*
X109477Y279232D01*
X110883Y278842D01*
X110930Y278653D01*
X90000Y257722D01*
X89336Y256730D01*
X89104Y255559D01*
X89104Y255559D01*
Y208417D01*
X87965Y207657D01*
X86805Y205920D01*
X86397Y203872D01*
X86805Y201823D01*
X87965Y200087D01*
X89702Y198926D01*
X91750Y198519D01*
X92952Y198758D01*
X93448Y197562D01*
X92689Y197054D01*
X91528Y195318D01*
X91121Y193269D01*
X91528Y191221D01*
X92689Y189484D01*
X94425Y188324D01*
X96474Y187916D01*
X98405Y188300D01*
X98718Y188045D01*
X99254Y187285D01*
X98594Y186298D01*
X98187Y184250D01*
X98594Y182202D01*
X99755Y180465D01*
X101491Y179305D01*
X103540Y178897D01*
X105588Y179305D01*
X107325Y180465D01*
X108323Y181959D01*
X109322Y181930D01*
X109645Y181825D01*
X109804Y181021D01*
X110965Y179285D01*
X112702Y178124D01*
X114750Y177717D01*
X116211Y178008D01*
X116464Y177853D01*
X117204Y176984D01*
X116871Y175309D01*
X117278Y173260D01*
X118438Y171524D01*
X118544Y171453D01*
X118159Y170183D01*
X100538D01*
X100053Y170910D01*
X98316Y172070D01*
X96268Y172477D01*
X94219Y172070D01*
X92483Y170910D01*
X91322Y169173D01*
X90915Y167125D01*
X91322Y165076D01*
X91871Y164255D01*
X92187Y163114D01*
X91547Y162628D01*
X90464Y161904D01*
X89304Y160167D01*
X88896Y158119D01*
X89304Y156070D01*
X90464Y154334D01*
X92200Y153174D01*
X94249Y152766D01*
X96297Y153174D01*
X98034Y154334D01*
X99194Y156070D01*
X99602Y158119D01*
X99194Y160167D01*
X98646Y160988D01*
X98330Y162129D01*
X98970Y162616D01*
X100053Y163340D01*
X100538Y164066D01*
X130649D01*
X130649Y164066D01*
X131819Y164299D01*
X132812Y164962D01*
X173640Y205790D01*
X174303Y206782D01*
X174536Y207952D01*
X174536Y207953D01*
Y230550D01*
X191308Y247321D01*
X191308Y247321D01*
X191971Y248314D01*
X192204Y249484D01*
X192204Y249484D01*
Y263882D01*
X197571Y269250D01*
X198841Y268724D01*
Y228954D01*
X198841Y228954D01*
X199074Y227783D01*
X199737Y226791D01*
X227689Y198839D01*
X227434Y197557D01*
X227880Y195314D01*
X229151Y193412D01*
X231053Y192141D01*
X233296Y191695D01*
X235540Y192141D01*
X237442Y193412D01*
X238713Y195314D01*
X239159Y197557D01*
X238713Y199801D01*
X237442Y201703D01*
X235540Y202974D01*
X233296Y203420D01*
X232014Y203165D01*
X204959Y230221D01*
Y273473D01*
X206229Y274031D01*
X206691Y273605D01*
Y269929D01*
X206691Y269929D01*
X206924Y268759D01*
X207587Y267766D01*
X229108Y246246D01*
X229108Y246246D01*
X230100Y245583D01*
X231271Y245350D01*
X231271Y245350D01*
X244580D01*
X247379Y242551D01*
X247087Y241047D01*
X245882Y240242D01*
X244721Y238505D01*
X244314Y236457D01*
X244721Y234408D01*
X245882Y232672D01*
X247618Y231511D01*
X249667Y231104D01*
X251715Y231511D01*
X253452Y232672D01*
X254257Y233876D01*
X255761Y234169D01*
X256905Y233025D01*
Y226157D01*
X255818Y225431D01*
X254547Y223529D01*
X254311Y222343D01*
X252900Y221758D01*
X251986Y222369D01*
X249937Y222777D01*
X247889Y222369D01*
X246152Y221209D01*
X244992Y219473D01*
X244584Y217424D01*
X244992Y215376D01*
X246152Y213639D01*
X247889Y212479D01*
X249937Y212071D01*
X251986Y212479D01*
X253722Y213639D01*
X254883Y215376D01*
X255044Y216187D01*
X256445Y216721D01*
X257720Y215869D01*
X259964Y215423D01*
X262207Y215869D01*
X264109Y217140D01*
X265380Y219042D01*
X265826Y221285D01*
X265380Y223529D01*
X264624Y224660D01*
X265610Y225470D01*
X291921Y199159D01*
X291666Y197877D01*
X292113Y195634D01*
X293384Y193732D01*
X294258Y193147D01*
Y191877D01*
X293989Y191698D01*
X292829Y189961D01*
X292421Y187913D01*
X292829Y185864D01*
X293989Y184128D01*
X295726Y182967D01*
X297774Y182560D01*
X299823Y182967D01*
X301559Y184128D01*
X302719Y185864D01*
X303127Y187913D01*
X302719Y189961D01*
X301559Y191698D01*
X301045Y192041D01*
Y193311D01*
X301674Y193732D01*
X302945Y195634D01*
X303392Y197877D01*
X302945Y200121D01*
X301674Y202023D01*
X299772Y203293D01*
X297529Y203740D01*
X296247Y203485D01*
X288712Y211020D01*
X289130Y212398D01*
X290584Y212687D01*
X292486Y213958D01*
X293757Y215860D01*
X294203Y218103D01*
X293853Y219866D01*
X296874Y222887D01*
X296874Y222887D01*
X297448Y223747D01*
X297650Y224762D01*
Y250926D01*
X297650Y250927D01*
X297448Y251941D01*
X296874Y252801D01*
X288073Y261602D01*
X288234Y263237D01*
X288663Y263523D01*
X289934Y265425D01*
X290380Y267669D01*
X289934Y269912D01*
X288663Y271814D01*
X286761Y273085D01*
X284517Y273531D01*
X282274Y273085D01*
X280805Y272104D01*
X257491Y295417D01*
X257841Y297181D01*
X257395Y299424D01*
X256124Y301326D01*
X254222Y302597D01*
X251979Y303043D01*
X249735Y302597D01*
X247833Y301326D01*
X246562Y299424D01*
X246116Y297181D01*
X246166Y296931D01*
X245360Y295949D01*
X221096D01*
X220611Y297122D01*
X224284Y300795D01*
X236030D01*
X236030Y300795D01*
X237044Y300997D01*
X237904Y301572D01*
X244079Y307746D01*
X244079Y307746D01*
X244653Y308606D01*
X244855Y309621D01*
X244855Y309621D01*
Y312072D01*
X245989Y312830D01*
X247150Y314566D01*
X247557Y316615D01*
X247150Y318663D01*
X245989Y320400D01*
X244253Y321560D01*
X242649Y321879D01*
X242122Y323148D01*
X254787Y335813D01*
X332479D01*
X333646Y334646D01*
X333476Y333789D01*
X333883Y331741D01*
X335043Y330004D01*
X336780Y328844D01*
X338829Y328436D01*
X340877Y328844D01*
X342614Y330004D01*
X343774Y331741D01*
X344181Y333789D01*
X343774Y335838D01*
X342614Y337574D01*
X340877Y338735D01*
X338829Y339142D01*
X337972Y338972D01*
X335909Y341034D01*
X334917Y341698D01*
X333746Y341930D01*
X333746Y341930D01*
X253520D01*
X253520Y341930D01*
X252349Y341698D01*
X251357Y341034D01*
X219849Y309527D01*
X214268D01*
X214267Y309527D01*
X213097Y309294D01*
X212104Y308631D01*
X210573Y307100D01*
X210142Y307186D01*
X208732Y306905D01*
X207464Y307677D01*
X207412Y307939D01*
X206362Y309510D01*
X204791Y310560D01*
X202938Y310929D01*
X201084Y310560D01*
X199513Y309510D01*
X198893Y308582D01*
X198730Y308576D01*
X197795Y308576D01*
X192776Y308600D01*
X191605Y308611D01*
Y308614D01*
X191569Y308619D01*
X191525Y308613D01*
X190671Y308601D01*
X190247Y308596D01*
X184456Y308554D01*
X184445Y308566D01*
X184430Y308568D01*
X184392Y308563D01*
X184180Y308550D01*
X182437Y308492D01*
X181588Y309734D01*
X181843Y311017D01*
X181474Y312870D01*
X181096Y313436D01*
X181775Y314706D01*
X221500D01*
X222281Y314861D01*
X222942Y315303D01*
X223384Y315965D01*
X223539Y316745D01*
Y346750D01*
X223696Y346941D01*
X361101D01*
X361780Y345671D01*
X361339Y345011D01*
X360931Y342963D01*
X361339Y340914D01*
X362499Y339178D01*
X364236Y338018D01*
X366284Y337610D01*
X368333Y338018D01*
X370069Y339178D01*
X371230Y340914D01*
X371637Y342963D01*
X371230Y345011D01*
X370788Y345671D01*
X371467Y346941D01*
X496941D01*
Y3059D01*
D02*
G37*
G36*
X169337Y309022D02*
X170329Y308359D01*
X171500Y308127D01*
X171500Y308127D01*
X173218D01*
X173575Y307592D01*
X173685Y306485D01*
X168292Y301093D01*
X164280D01*
X163423Y302363D01*
X163706Y303784D01*
X163298Y305833D01*
X162138Y307569D01*
X160401Y308729D01*
X158353Y309137D01*
X156305Y308729D01*
X154568Y307569D01*
X153408Y305833D01*
X153000Y303784D01*
X153283Y302363D01*
X152426Y301093D01*
X89564D01*
X89333Y301047D01*
X88708Y302218D01*
X102021Y315530D01*
X162829D01*
X169337Y309022D01*
D02*
G37*
G36*
X190150Y289163D02*
X191721Y288113D01*
X191948Y288068D01*
X192533Y286657D01*
X192176Y286123D01*
X191807Y284269D01*
X191923Y283686D01*
X191025Y282788D01*
X190750Y282843D01*
X188897Y282474D01*
X187325Y281425D01*
X186276Y279853D01*
X185907Y278000D01*
X185993Y277568D01*
X170791Y262367D01*
X170128Y261374D01*
X169895Y260204D01*
X169895Y260204D01*
Y243178D01*
X167457Y240739D01*
X166283Y241225D01*
Y242439D01*
X167010Y242924D01*
X168170Y244660D01*
X168577Y246709D01*
X168170Y248757D01*
X167010Y250494D01*
X165273Y251654D01*
X163225Y252062D01*
X161176Y251654D01*
X159440Y250494D01*
X158279Y248757D01*
X157872Y246709D01*
X158279Y244660D01*
X159440Y242924D01*
X160166Y242439D01*
Y213049D01*
X133245Y186129D01*
X119020D01*
X118535Y186855D01*
X116798Y188015D01*
X114750Y188423D01*
X112702Y188015D01*
X111616Y188818D01*
X111728Y189380D01*
Y235733D01*
X136220Y260225D01*
X136883Y261218D01*
X137116Y262388D01*
Y265731D01*
X137842Y266217D01*
X139003Y267953D01*
X139410Y270002D01*
X139003Y272050D01*
X137842Y273787D01*
X136106Y274947D01*
X134057Y275355D01*
X132752Y275095D01*
X132437Y275313D01*
X131783Y276197D01*
X132115Y277867D01*
X131708Y279915D01*
X130548Y281652D01*
X129419Y282406D01*
X129804Y283676D01*
X178485D01*
X178485Y283676D01*
X179655Y283909D01*
X180648Y284572D01*
X183819Y287743D01*
X184250Y287657D01*
X186103Y288026D01*
X187675Y289076D01*
X188178Y289829D01*
X189705D01*
X190150Y289163D01*
D02*
G37*
G36*
X121782Y275997D02*
X121817Y275818D01*
X122978Y274082D01*
X123704Y273596D01*
Y265028D01*
X100648Y241972D01*
X99985Y240979D01*
X99752Y239809D01*
X99752Y239809D01*
Y200402D01*
X97723Y198373D01*
X96474Y198622D01*
X95271Y198383D01*
X94775Y199579D01*
X95535Y200087D01*
X96695Y201823D01*
X97103Y203872D01*
X96695Y205920D01*
X95535Y207657D01*
X95221Y207866D01*
Y254292D01*
X116131Y275202D01*
X116988Y275032D01*
X119036Y275439D01*
X120414Y276360D01*
X121782Y275997D01*
D02*
G37*
G36*
X242166Y274554D02*
Y256652D01*
X242166Y256652D01*
X242399Y255481D01*
X243062Y254489D01*
X244813Y252737D01*
X244287Y251467D01*
X232538D01*
X217243Y266762D01*
X217611Y267978D01*
X217853Y268026D01*
X219425Y269076D01*
X219669Y269441D01*
X230196D01*
X230197Y269441D01*
X231367Y269674D01*
X232360Y270337D01*
X234842Y272820D01*
X235699Y272649D01*
X237747Y273057D01*
X239484Y274217D01*
X239976Y274954D01*
X241436Y275175D01*
X242166Y274554D01*
D02*
G37*
G36*
X247681Y289456D02*
X247681Y289456D01*
X248541Y288881D01*
X248827Y288825D01*
X285526Y252125D01*
X285365Y250490D01*
X284777Y250097D01*
X283922Y248816D01*
X282425Y248771D01*
X282338Y248900D01*
X241764Y289474D01*
X242250Y290647D01*
X246490D01*
X247681Y289456D01*
D02*
G37*
G36*
X277813Y245927D02*
Y230390D01*
X276318Y229391D01*
X275047Y227489D01*
X274880Y226648D01*
X273502Y226230D01*
X268325Y231407D01*
Y236610D01*
X268325Y236610D01*
X268092Y237781D01*
X267429Y238773D01*
X267429Y238773D01*
X248284Y257919D01*
Y273797D01*
X249457Y274283D01*
X277813Y245927D01*
D02*
G37*
%LPC*%
G36*
X420000Y343372D02*
X417561Y342887D01*
X415494Y341506D01*
X414113Y339439D01*
X413628Y337000D01*
X414113Y334561D01*
X415494Y332494D01*
X417561Y331113D01*
X420000Y330628D01*
X422439Y331113D01*
X424506Y332494D01*
X425887Y334561D01*
X426372Y337000D01*
X425887Y339439D01*
X424506Y341506D01*
X422439Y342887D01*
X420000Y343372D01*
D02*
G37*
G36*
X97000Y339353D02*
X94952Y338945D01*
X93215Y337785D01*
X92055Y336048D01*
X91647Y334000D01*
X92055Y331952D01*
X93215Y330215D01*
X94952Y329055D01*
X97000Y328647D01*
X99048Y329055D01*
X100785Y330215D01*
X101945Y331952D01*
X102353Y334000D01*
X101945Y336048D01*
X100785Y337785D01*
X99048Y338945D01*
X97000Y339353D01*
D02*
G37*
G36*
X143000Y338353D02*
X140952Y337945D01*
X139215Y336785D01*
X138055Y335048D01*
X137647Y333000D01*
X138055Y330952D01*
X139215Y329215D01*
X140952Y328055D01*
X143000Y327647D01*
X145048Y328055D01*
X146785Y329215D01*
X147945Y330952D01*
X148353Y333000D01*
X147945Y335048D01*
X146785Y336785D01*
X145048Y337945D01*
X143000Y338353D01*
D02*
G37*
G36*
X467986Y323530D02*
X464201Y323032D01*
X460674Y321570D01*
X457645Y319246D01*
X455321Y316217D01*
X453859Y312690D01*
X453361Y308905D01*
X453859Y305119D01*
X455321Y301592D01*
X457645Y298563D01*
X460674Y296239D01*
X464201Y294778D01*
X467986Y294280D01*
X471772Y294778D01*
X475299Y296239D01*
X478328Y298563D01*
X480652Y301592D01*
X482113Y305119D01*
X482611Y308905D01*
X482113Y312690D01*
X480652Y316217D01*
X478328Y319246D01*
X475299Y321570D01*
X471772Y323032D01*
X467986Y323530D01*
D02*
G37*
G36*
X10000Y285353D02*
X7952Y284945D01*
X6215Y283785D01*
X5055Y282048D01*
X4647Y280000D01*
X5055Y277952D01*
X6215Y276215D01*
X7952Y275055D01*
X10000Y274647D01*
X12048Y275055D01*
X13785Y276215D01*
X14945Y277952D01*
X15353Y280000D01*
X14945Y282048D01*
X13785Y283785D01*
X12048Y284945D01*
X10000Y285353D01*
D02*
G37*
G36*
X339006Y284980D02*
X336957Y284573D01*
X335221Y283412D01*
X334060Y281676D01*
X333653Y279627D01*
X334060Y277579D01*
X335221Y275842D01*
X336957Y274682D01*
X339006Y274274D01*
X341054Y274682D01*
X342791Y275842D01*
X343951Y277579D01*
X344359Y279627D01*
X343951Y281676D01*
X342791Y283412D01*
X341054Y284573D01*
X339006Y284980D01*
D02*
G37*
G36*
X311000Y275353D02*
X308952Y274945D01*
X307215Y273785D01*
X306055Y272048D01*
X305647Y270000D01*
X306055Y267952D01*
X307215Y266215D01*
X308952Y265055D01*
X311000Y264647D01*
X313048Y265055D01*
X314785Y266215D01*
X315945Y267952D01*
X316353Y270000D01*
X315945Y272048D01*
X314785Y273785D01*
X313048Y274945D01*
X311000Y275353D01*
D02*
G37*
G36*
X464201Y270379D02*
X444451D01*
Y250629D01*
X464201D01*
Y270379D01*
D02*
G37*
G36*
X377075Y248868D02*
X375027Y248461D01*
X373290Y247301D01*
X372130Y245564D01*
X371722Y243515D01*
X372130Y241467D01*
X373290Y239730D01*
X375027Y238570D01*
X377075Y238163D01*
X379124Y238570D01*
X380860Y239730D01*
X382021Y241467D01*
X382428Y243515D01*
X382021Y245564D01*
X380860Y247301D01*
X379124Y248461D01*
X377075Y248868D01*
D02*
G37*
G36*
X319897Y244994D02*
X317848Y244586D01*
X316112Y243426D01*
X314951Y241689D01*
X314544Y239641D01*
X314951Y237593D01*
X316112Y235856D01*
X317848Y234695D01*
X319897Y234288D01*
X321945Y234695D01*
X323682Y235856D01*
X324842Y237593D01*
X325250Y239641D01*
X324842Y241689D01*
X323682Y243426D01*
X321945Y244586D01*
X319897Y244994D01*
D02*
G37*
G36*
X188977Y238802D02*
X186929Y238395D01*
X185192Y237234D01*
X184032Y235497D01*
X183624Y233449D01*
X184032Y231401D01*
X185192Y229664D01*
X186929Y228504D01*
X188977Y228096D01*
X191026Y228504D01*
X192762Y229664D01*
X193923Y231401D01*
X194330Y233449D01*
X193923Y235497D01*
X192762Y237234D01*
X191026Y238395D01*
X188977Y238802D01*
D02*
G37*
G36*
X317584Y222326D02*
X315536Y221918D01*
X313799Y220758D01*
X312639Y219021D01*
X312231Y216973D01*
X312639Y214924D01*
X313799Y213188D01*
X315536Y212027D01*
X317584Y211620D01*
X319633Y212027D01*
X321369Y213188D01*
X322530Y214924D01*
X322937Y216973D01*
X322530Y219021D01*
X321369Y220758D01*
X319633Y221918D01*
X317584Y222326D01*
D02*
G37*
G36*
X389298Y237104D02*
X387250Y236696D01*
X385513Y235536D01*
X384353Y233799D01*
X383945Y231751D01*
X384353Y229702D01*
X385513Y227966D01*
X387250Y226805D01*
X387328Y226789D01*
X387371Y226747D01*
Y218522D01*
X387055Y218048D01*
X386647Y216000D01*
X387055Y213952D01*
X388215Y212215D01*
X389952Y211055D01*
X392000Y210647D01*
X394048Y211055D01*
X395785Y212215D01*
X396945Y213952D01*
X397353Y216000D01*
X396945Y218048D01*
X396629Y218522D01*
Y228664D01*
X396629Y228664D01*
X396277Y230436D01*
X395273Y231938D01*
X395273Y231938D01*
X394450Y232761D01*
X394243Y233799D01*
X393083Y235536D01*
X391347Y236696D01*
X389298Y237104D01*
D02*
G37*
G36*
X352549Y249732D02*
X350501Y249325D01*
X348764Y248164D01*
X347604Y246428D01*
X347196Y244379D01*
X347604Y242331D01*
X348764Y240594D01*
X350501Y239434D01*
X351080Y239319D01*
X369692Y220707D01*
Y178377D01*
X351567D01*
X351093Y178694D01*
X349044Y179101D01*
X346996Y178694D01*
X345259Y177533D01*
X344099Y175797D01*
X343692Y173748D01*
X344099Y171700D01*
X345259Y169963D01*
X346996Y168803D01*
X349044Y168396D01*
X351093Y168803D01*
X351567Y169119D01*
X373862D01*
X375633Y169472D01*
X376898Y170317D01*
X400960D01*
X401345Y169047D01*
X400481Y168470D01*
X399320Y166733D01*
X398913Y164685D01*
X399320Y162636D01*
X400481Y160900D01*
X402217Y159739D01*
X404266Y159332D01*
X405122Y159502D01*
X427085Y137540D01*
X427085Y137540D01*
X428077Y136877D01*
X429030Y136687D01*
X429848Y135463D01*
X431584Y134303D01*
X433633Y133896D01*
X435681Y134303D01*
X437418Y135463D01*
X438578Y137200D01*
X438985Y139248D01*
X438578Y141297D01*
X437418Y143033D01*
X435681Y144194D01*
X433633Y144601D01*
X431584Y144194D01*
X430084Y143192D01*
X409448Y163828D01*
X409619Y164685D01*
X409211Y166733D01*
X408051Y168470D01*
X407186Y169047D01*
X407571Y170317D01*
X417256D01*
X417257Y170317D01*
X419028Y170670D01*
X420530Y171673D01*
X439985Y191129D01*
X440544Y191240D01*
X442280Y192400D01*
X443441Y194137D01*
X443848Y196185D01*
X443441Y198233D01*
X442280Y199970D01*
X440544Y201130D01*
X438495Y201538D01*
X436447Y201130D01*
X434710Y199970D01*
X433550Y198233D01*
X433439Y197675D01*
X415339Y179575D01*
X378950D01*
Y222624D01*
X378950Y222624D01*
X378598Y224396D01*
X377594Y225897D01*
X377594Y225897D01*
X357601Y245890D01*
X357494Y246428D01*
X356334Y248164D01*
X354598Y249325D01*
X352549Y249732D01*
D02*
G37*
G36*
X246113Y186324D02*
X244064Y185917D01*
X242328Y184757D01*
X241167Y183020D01*
X240760Y180972D01*
X241167Y178923D01*
X242328Y177187D01*
X244064Y176026D01*
X246113Y175619D01*
X248161Y176026D01*
X249898Y177187D01*
X251058Y178923D01*
X251466Y180972D01*
X251058Y183020D01*
X249898Y184757D01*
X248161Y185917D01*
X246113Y186324D01*
D02*
G37*
G36*
X203871Y149481D02*
X201823Y149074D01*
X200086Y147914D01*
X198926Y146177D01*
X198519Y144129D01*
X198926Y142080D01*
X200086Y140344D01*
X201823Y139183D01*
X203871Y138776D01*
X205920Y139183D01*
X207656Y140344D01*
X208817Y142080D01*
X209224Y144129D01*
X208817Y146177D01*
X207656Y147914D01*
X205920Y149074D01*
X203871Y149481D01*
D02*
G37*
G36*
X395432Y160694D02*
X393383Y160287D01*
X391647Y159126D01*
X390486Y157390D01*
X390079Y155341D01*
X390486Y153293D01*
X391647Y151556D01*
X393383Y150396D01*
X395432Y149988D01*
X396289Y150159D01*
X418849Y127598D01*
X419842Y126935D01*
X421012Y126702D01*
X421012Y126702D01*
X421287D01*
X422347Y125115D01*
X424084Y123955D01*
X426132Y123547D01*
X428181Y123955D01*
X429917Y125115D01*
X431078Y126852D01*
X431485Y128900D01*
X431078Y130948D01*
X429917Y132685D01*
X428181Y133845D01*
X426132Y134253D01*
X424084Y133845D01*
X422549Y132820D01*
X422279D01*
X400614Y154485D01*
X400785Y155341D01*
X400377Y157390D01*
X399217Y159126D01*
X397480Y160287D01*
X395432Y160694D01*
D02*
G37*
G36*
X245000Y104625D02*
X241215Y104127D01*
X237687Y102666D01*
X234659Y100342D01*
X232334Y97313D01*
X230873Y93785D01*
X230375Y90000D01*
X230873Y86215D01*
X232334Y82687D01*
X234659Y79658D01*
X237687Y77334D01*
X241215Y75873D01*
X245000Y75375D01*
X248785Y75873D01*
X252313Y77334D01*
X255341Y79658D01*
X257666Y82687D01*
X259127Y86215D01*
X259625Y90000D01*
X259127Y93785D01*
X257666Y97313D01*
X255341Y100342D01*
X252313Y102666D01*
X248785Y104127D01*
X245000Y104625D01*
D02*
G37*
G36*
X403694Y68011D02*
X401645Y67604D01*
X399908Y66443D01*
X398748Y64707D01*
X398341Y62658D01*
X398748Y60610D01*
X399908Y58873D01*
X401645Y57713D01*
X403694Y57305D01*
X405742Y57713D01*
X407478Y58873D01*
X408639Y60610D01*
X409046Y62658D01*
X408639Y64707D01*
X407478Y66443D01*
X405742Y67604D01*
X403694Y68011D01*
D02*
G37*
G36*
X483792Y62705D02*
X464042D01*
Y42955D01*
X483792D01*
Y62705D01*
D02*
G37*
G36*
X355138Y61039D02*
X335388D01*
Y41289D01*
X355138D01*
Y61039D01*
D02*
G37*
G36*
X35000Y72082D02*
X31667Y71754D01*
X28463Y70782D01*
X25510Y69203D01*
X22921Y67079D01*
X20797Y64490D01*
X19218Y61537D01*
X18246Y58333D01*
X17918Y55000D01*
X18246Y51667D01*
X19218Y48463D01*
X20797Y45510D01*
X22921Y42921D01*
X25510Y40797D01*
X28463Y39218D01*
X31667Y38246D01*
X35000Y37918D01*
X38333Y38246D01*
X41537Y39218D01*
X44490Y40797D01*
X47079Y42921D01*
X49203Y45510D01*
X50782Y48463D01*
X51754Y51667D01*
X52082Y55000D01*
X51754Y58333D01*
X50782Y61537D01*
X49203Y64490D01*
X47079Y67079D01*
X44490Y69203D01*
X41537Y70782D01*
X38333Y71754D01*
X35000Y72082D01*
D02*
G37*
G36*
X302711Y21393D02*
X300662Y20985D01*
X298926Y19825D01*
X297765Y18088D01*
X297358Y16040D01*
X297765Y13991D01*
X298926Y12255D01*
X300662Y11094D01*
X302711Y10687D01*
X304759Y11094D01*
X306496Y12255D01*
X307656Y13991D01*
X308064Y16040D01*
X307656Y18088D01*
X306496Y19825D01*
X304759Y20985D01*
X302711Y21393D01*
D02*
G37*
G36*
X138561Y19979D02*
X136513Y19572D01*
X134776Y18412D01*
X133616Y16675D01*
X133208Y14627D01*
X133616Y12578D01*
X134776Y10842D01*
X136513Y9681D01*
X138561Y9274D01*
X140610Y9681D01*
X142346Y10842D01*
X143507Y12578D01*
X143914Y14627D01*
X143507Y16675D01*
X142346Y18412D01*
X140610Y19572D01*
X138561Y19979D01*
D02*
G37*
G36*
X80000Y20373D02*
X77561Y19887D01*
X75494Y18506D01*
X74113Y16439D01*
X73628Y14000D01*
X74113Y11561D01*
X75494Y9494D01*
X77561Y8113D01*
X80000Y7628D01*
X82439Y8113D01*
X84506Y9494D01*
X85887Y11561D01*
X86372Y14000D01*
X85887Y16439D01*
X84506Y18506D01*
X82439Y19887D01*
X80000Y20373D01*
D02*
G37*
G36*
X243589Y19796D02*
X241150Y19311D01*
X239083Y17929D01*
X237701Y15862D01*
X237216Y13423D01*
X237701Y10985D01*
X239083Y8917D01*
X241150Y7536D01*
X243589Y7051D01*
X246027Y7536D01*
X248095Y8917D01*
X249476Y10985D01*
X249961Y13423D01*
X249476Y15862D01*
X248095Y17929D01*
X246027Y19311D01*
X243589Y19796D01*
D02*
G37*
G36*
X420000Y19190D02*
X417561Y18705D01*
X415494Y17324D01*
X414113Y15256D01*
X413628Y12818D01*
X414113Y10379D01*
X415494Y8312D01*
X417561Y6930D01*
X420000Y6445D01*
X422439Y6930D01*
X424506Y8312D01*
X425887Y10379D01*
X426372Y12818D01*
X425887Y15256D01*
X424506Y17324D01*
X422439Y18705D01*
X420000Y19190D01*
D02*
G37*
%LPD*%
D10*
X231271Y248409D02*
X245847D01*
X209750Y269929D02*
X231271Y248409D01*
X209750Y269929D02*
Y278538D01*
X189145Y249484D02*
Y264573D01*
X176534Y294034D02*
X183000Y300500D01*
X114297Y294034D02*
X176534D01*
X100747Y289299D02*
X109561D01*
X114297Y294034D01*
X89564Y298034D02*
X169559D01*
X177190Y305664D01*
X178485Y286735D02*
X184250Y292500D01*
X112654Y286735D02*
X178485D01*
X80780Y289250D02*
X89564Y298034D01*
X171500Y311185D02*
X176831D01*
X177000Y311017D01*
X205500Y285004D02*
X205680Y285184D01*
X226654D01*
X238080Y283752D02*
X245225Y276607D01*
Y256652D02*
Y276607D01*
Y256652D02*
X265266Y236610D01*
X230197Y272500D02*
X235699Y278002D01*
X265266Y230140D02*
Y236610D01*
Y230140D02*
X297529Y197877D01*
X216000Y272500D02*
X230197D01*
X228086Y283752D02*
X238080D01*
X226654Y285184D02*
X228086Y283752D01*
X259964Y221285D02*
Y234292D01*
X245847Y248409D02*
X259964Y234292D01*
X201900Y228954D02*
Y277652D01*
X201593Y277960D02*
X201900Y277652D01*
Y228954D02*
X233296Y197557D01*
X172954Y241911D02*
Y260204D01*
X190750Y278000D01*
X221117Y306468D02*
X253520Y338872D01*
X214267Y306468D02*
X221117D01*
X210142Y302343D02*
X214267Y306468D01*
X333746Y338872D02*
X338829Y333789D01*
X253520Y338872D02*
X333746D01*
X421012Y129761D02*
X425271D01*
X395432Y155341D02*
X421012Y129761D01*
X425271D02*
X426132Y128900D01*
X433178Y139703D02*
X433633Y139248D01*
X404266Y164685D02*
X429248Y139703D01*
X433178D01*
X108670Y189380D02*
Y237000D01*
X103540Y184250D02*
X108670Y189380D01*
X114750Y183070D02*
X134512D01*
X163225Y211782D01*
X122223Y175309D02*
X133176D01*
X167450Y209582D01*
Y236407D02*
X172954Y241911D01*
X87768Y277430D02*
X103350D01*
X112654Y286735D01*
X167450Y209582D02*
Y236407D01*
X171477Y231817D02*
X189145Y249484D01*
X171477Y207952D02*
Y231817D01*
X60079Y310772D02*
X60649Y310201D01*
Y303594D02*
Y310201D01*
X66204Y298040D02*
X80204D01*
X60649Y303594D02*
X66204Y298040D01*
X80204D02*
X100754Y318589D01*
X92162Y204284D02*
Y255559D01*
X116988Y280385D01*
X102811Y239809D02*
X126763Y263761D01*
Y277867D01*
X134057Y262388D02*
Y270002D01*
X108670Y237000D02*
X134057Y262388D01*
X91750Y203872D02*
X92162Y204284D01*
X102811Y199135D02*
Y239809D01*
X96474Y193269D02*
X96945D01*
X102811Y199135D01*
X74899Y289250D02*
X80780D01*
X36750Y289250D02*
X74899D01*
X74899Y289250D01*
X130649Y167125D02*
X171477Y207952D01*
X96268Y167125D02*
X130649D01*
X163225Y211782D02*
Y246709D01*
X164096Y318589D02*
X171500Y311185D01*
X100754Y318589D02*
X164096D01*
D17*
X184439Y305903D02*
G03*
X184268Y305901I-9J-4850D01*
G01*
X191592Y305954D02*
G03*
X191534Y305954I-23J-4850D01*
G01*
X189145Y264573D02*
X196650Y272078D01*
Y284269D01*
X193575Y292588D02*
X194522D01*
X197256Y289853D01*
X237635D01*
X247588Y293298D02*
X249555Y291331D01*
X218149Y293214D02*
X218232Y293298D01*
X195064Y298148D02*
X199999Y293214D01*
X218149D01*
X218232Y293298D02*
X247588D01*
X237635Y289853D02*
X280464Y247026D01*
X202911Y298093D02*
X207800D01*
X288341Y218103D02*
X294999Y224762D01*
Y250927D01*
X284517Y261409D02*
X294999Y250927D01*
X284517Y261409D02*
Y267669D01*
X280464Y225246D02*
Y247026D01*
X283312Y268874D02*
X284517Y267669D01*
X280285Y268874D02*
X283312D01*
X251979Y297181D02*
X280285Y268874D01*
X250070Y291331D02*
X288923Y252478D01*
X249555Y291331D02*
X250070D01*
X288923Y246687D02*
Y252478D01*
X192004Y301105D02*
X194960Y298148D01*
X191569Y301105D02*
X192004D01*
X194960Y298148D02*
X195064D01*
X177190Y305664D02*
X184268Y305901D01*
X184439Y305903D02*
X191534Y305954D01*
X207800Y298093D02*
X208400Y297493D01*
X217232D01*
X191592Y305954D02*
X197787Y305925D01*
X289659Y246687D02*
X291799D01*
X217232Y297493D02*
X223186Y303446D01*
X236030D01*
X242204Y309621D01*
Y316615D01*
X167450Y236407D02*
Y236407D01*
X197787Y305925D02*
X198782Y305925D01*
X202938Y306086D01*
D68*
X374321Y174946D02*
X417257D01*
X438495Y196185D01*
X349044Y173748D02*
X373862D01*
X392000Y216000D02*
Y228664D01*
X389298Y231366D02*
X392000Y228664D01*
X389298Y231366D02*
Y231751D01*
X352549Y244379D02*
X352566D01*
X374321Y222624D01*
Y174946D02*
Y222624D01*
D73*
X473917Y27430D02*
D03*
X345263Y25764D02*
D03*
X479726Y260504D02*
D03*
D74*
X473917Y52830D02*
D03*
X345263Y51164D02*
D03*
D75*
X80000Y14000D02*
D03*
X420000Y12818D02*
D03*
X420000Y337000D02*
D03*
X243589Y13423D02*
D03*
D76*
X35000Y55000D02*
D03*
X467986Y308905D02*
D03*
X245000Y90000D02*
D03*
D77*
X72779Y323472D02*
D03*
D78*
Y310772D02*
D03*
X60079Y323472D02*
D03*
Y310772D02*
D03*
X47379Y323472D02*
D03*
Y310772D02*
D03*
X34678Y323472D02*
D03*
Y310772D02*
D03*
X21978Y323472D02*
D03*
Y310772D02*
D03*
D79*
X454326Y260504D02*
D03*
D80*
X484202Y91055D02*
D03*
Y177456D02*
D03*
X446202Y91055D02*
D03*
Y177456D02*
D03*
D81*
X231283Y257718D02*
D03*
X465000Y165000D02*
D03*
Y245000D02*
D03*
Y85000D02*
D03*
X425000Y325000D02*
D03*
X445214Y331534D02*
D03*
X424039Y302359D02*
D03*
X153238Y15933D02*
D03*
X225000Y85000D02*
D03*
X245000Y125000D02*
D03*
X235699Y278002D02*
D03*
X249667Y236457D02*
D03*
X215425Y255772D02*
D03*
X230042Y226529D02*
D03*
X208836Y243512D02*
D03*
X196150Y256069D02*
D03*
X317584Y216973D02*
D03*
X233737Y310750D02*
D03*
X170243Y170765D02*
D03*
X20649Y20446D02*
D03*
X486132Y334156D02*
D03*
X397537Y121385D02*
D03*
X179628Y215110D02*
D03*
X282450Y124829D02*
D03*
X445000Y285000D02*
D03*
Y45000D02*
D03*
X405000Y285000D02*
D03*
X425000Y245000D02*
D03*
Y165000D02*
D03*
X365000Y285000D02*
D03*
Y125000D02*
D03*
X385000Y85000D02*
D03*
X365000Y45000D02*
D03*
X325000Y125000D02*
D03*
Y45000D02*
D03*
X305000Y325000D02*
D03*
Y85000D02*
D03*
X265000D02*
D03*
X245000Y45000D02*
D03*
X225000Y165000D02*
D03*
X205000Y45000D02*
D03*
X185000Y85000D02*
D03*
X165000Y45000D02*
D03*
X145000Y245000D02*
D03*
Y85000D02*
D03*
X85000Y45000D02*
D03*
X65000Y245000D02*
D03*
X45000Y205000D02*
D03*
X65000Y165000D02*
D03*
X45000Y125000D02*
D03*
X65000Y85000D02*
D03*
X403694Y62658D02*
D03*
X417318Y62448D02*
D03*
X395432Y155341D02*
D03*
X426132Y128900D02*
D03*
X404266Y164685D02*
D03*
X434173Y161758D02*
D03*
X433633Y139248D02*
D03*
X438495Y196185D02*
D03*
X120000Y83000D02*
D03*
X138561Y14627D02*
D03*
X138971Y28592D02*
D03*
X103540Y184250D02*
D03*
X114750Y183070D02*
D03*
X122223Y175309D02*
D03*
X297774Y187913D02*
D03*
X181115Y258685D02*
D03*
X349044Y173748D02*
D03*
X96268Y167125D02*
D03*
X64866Y279866D02*
D03*
X158353Y303784D02*
D03*
X107233Y259367D02*
D03*
X91750Y203872D02*
D03*
X249937Y217424D02*
D03*
X96474Y193269D02*
D03*
X100747Y289299D02*
D03*
X87768Y277430D02*
D03*
X188977Y233449D02*
D03*
X170280Y272218D02*
D03*
X434892Y106494D02*
D03*
X126681Y213303D02*
D03*
X232000Y325500D02*
D03*
X352500Y195000D02*
D03*
X362500Y220000D02*
D03*
X352500D02*
D03*
X362500Y207500D02*
D03*
X352500D02*
D03*
X362500Y195000D02*
D03*
X340000D02*
D03*
Y207500D02*
D03*
Y220000D02*
D03*
X164049Y256475D02*
D03*
X160681Y265727D02*
D03*
X302711Y16040D02*
D03*
X366284Y342963D02*
D03*
X203871Y144129D02*
D03*
X302526Y30124D02*
D03*
X338829Y333789D02*
D03*
X311000Y270000D02*
D03*
X392000Y216000D02*
D03*
X339006Y279627D02*
D03*
X332000Y285000D02*
D03*
X161000Y312500D02*
D03*
X115000Y324839D02*
D03*
X125000D02*
D03*
X10000Y280000D02*
D03*
X97000Y334000D02*
D03*
X143000Y333000D02*
D03*
X242204Y316615D02*
D03*
X319897Y239641D02*
D03*
X399466Y255554D02*
D03*
X377075Y243515D02*
D03*
X163225Y246709D02*
D03*
X126473Y204588D02*
D03*
X125890Y194698D02*
D03*
X72331Y61963D02*
D03*
X97000Y53000D02*
D03*
X389298Y231751D02*
D03*
X403000Y216000D02*
D03*
X352549Y244379D02*
D03*
X116988Y280385D02*
D03*
X333000Y302000D02*
D03*
X295000Y330000D02*
D03*
X54609Y19282D02*
D03*
X218305Y18813D02*
D03*
X446250Y13250D02*
D03*
X311081Y143939D02*
D03*
X94249Y158119D02*
D03*
X134057Y270002D02*
D03*
X126763Y277867D02*
D03*
X161000Y334000D02*
D03*
X231731Y334894D02*
D03*
X161000Y343000D02*
D03*
X232891Y343086D02*
D03*
X161000Y325000D02*
D03*
X246113Y180972D02*
D03*
X256425Y181647D02*
D03*
X266179Y171308D02*
D03*
X125000Y160000D02*
D03*
Y147000D02*
D03*
Y135000D02*
D03*
Y122000D02*
D03*
X106000Y83000D02*
D03*
X55307Y86239D02*
D03*
X367603Y144043D02*
D03*
X351000Y93000D02*
D03*
X380000Y343000D02*
D03*
X353917Y143939D02*
D03*
X327797Y144043D02*
D03*
X321000Y250000D02*
D03*
X369816Y269697D02*
D03*
X370000Y257000D02*
D03*
X253784Y199078D02*
D03*
X73130Y153327D02*
D03*
X72967Y198435D02*
D03*
X317779Y228841D02*
D03*
X226481Y126386D02*
D03*
X55584Y264972D02*
D03*
X36750Y289250D02*
D03*
D82*
X177000Y311017D02*
D03*
X193575Y292588D02*
D03*
X205500Y285004D02*
D03*
X202911Y298093D02*
D03*
X209750Y278538D02*
D03*
X196650Y284269D02*
D03*
X183000Y300500D02*
D03*
X216000Y272500D02*
D03*
X201593Y277960D02*
D03*
X190750Y278000D02*
D03*
X184250Y292500D02*
D03*
X189898Y311238D02*
D03*
X191569Y301105D02*
D03*
X231282Y298572D02*
D03*
X215614Y311718D02*
D03*
X182856Y281171D02*
D03*
X210142Y302343D02*
D03*
X202938Y306086D02*
D03*
D83*
X288341Y218103D02*
D03*
X280464Y225246D02*
D03*
X284517Y267669D02*
D03*
X251979Y297181D02*
D03*
X297529Y197877D02*
D03*
X259964Y221285D02*
D03*
X233296Y197557D02*
D03*
X288923Y245951D02*
D03*
M02*
