M48
;Layer_Color=9474304
;FILE_FORMAT=4:4
METRIC,LZ
;TYPE=PLATED
T01F00S00C0.2500
T02F00S00C0.3000
T03F00S00C0.3500
T04F00S00C0.7500
T05F00S00C1.0500
T06F00S00C1.3400
;TYPE=NON_PLATED
T07F00S00C0.8500
T08F00S00C2.5000
T09F00S00C3.0000
%
T01
X00182856Y00281171
X0019075Y00278
X00201593Y0027796
X0020975Y00278538
X002055Y00285004
X0019665Y00284269
X00193575Y00292588
X0018425Y002925
X00183Y003005
X00191569Y00301105
X00189898Y00311238
X00177Y00311017
X00202938Y00306086
X00202911Y00298093
X00210142Y00302343
X00215614Y00311718
X00231282Y00298572
X00216Y002725
T02
X00235699Y00278002
T03
X00020649Y00020446
X00054609Y00019282
X00085Y00045
X00097Y00053
X00072331Y00061963
X00065Y00085
X00055307Y00086239
X00106Y00083
X0012
X00145Y00085
X00185
X00225
X00265
X00305
X00351Y00093
X00385Y00085
X00403694Y00062658
X00417318Y00062448
X00445Y00045
X0044625Y0001325
X00465Y00085
X00434892Y00106494
X00397537Y00121385
X00365Y00045
X00325
X00302526Y00030124
X00302711Y0001604
X00245Y00045
X00205
X00218305Y00018813
X00153238Y00015933
X00138561Y00014627
X00138971Y00028592
X00165Y00045
X00125Y00122
Y00135
Y00147
Y0016
X00122223Y00175309
X0012589Y00194698
X00126473Y00204588
X00126681Y00213303
X00145Y00245
X00163225Y00246709
X00164049Y00256475
X00160681Y00265727
X0017028Y00272218
X00181115Y00258685
X0019615Y00256069
X00215425Y00255772
X00231283Y00257718
X00230042Y00226529
X00249937Y00217424
X00259964Y00221285
X00280464Y00225246
X00288341Y00218103
X00288923Y00245951
X00284517Y00267669
X00311Y0027
X00321Y0025
X00319897Y00239641
X00317779Y00228841
X00317584Y00216973
X0034Y0022
X003525
X003625
Y002075
X003525
Y00195
X003625
X0034
Y002075
X00349044Y00173748
X00353917Y00143939
X00367603Y00144043
X00365Y00125
X00325
X00327797Y00144043
X00311081Y00143939
X0028245Y00124829
X00245Y00125
X00226481Y00126386
X00225Y00165
X00246113Y00180972
X00256425Y00181647
X00253784Y00199078
X00233296Y00197557
X00249667Y00236457
X00208836Y00243512
X00188977Y00233449
X00179628Y0021511
X00170243Y00170765
X00203871Y00144129
X00266179Y00171308
X00297774Y00187913
X00297529Y00197877
X00352549Y00244379
X00377075Y00243515
X0037Y00257
X00369816Y00269697
X00365Y00285
X00339006Y00279627
X00332Y00285
X00333Y00302
X00338829Y00333789
X00366284Y00342963
X0038Y00343
X00425Y00325
X00424039Y00302359
X00405Y00285
X00399466Y00255554
X00389298Y00231751
X00392Y00216
X00403
X00425Y00245
X00465
X00445Y00285
X00445214Y00331534
X00486132Y00334156
X00438495Y00196185
X00434173Y00161758
X00425Y00165
X00404266Y00164685
X00395432Y00155341
X00433633Y00139248
X00426132Y001289
X00465Y00165
X00305Y00325
X00295Y0033
X00242204Y00316615
X00233737Y0031075
X00232Y003255
X00231731Y00334894
X00232891Y00343086
X00251979Y00297181
X00158353Y00303784
X00161Y003125
Y00325
Y00334
Y00343
X00143Y00333
X00125Y00324839
X00126763Y00277867
X00134057Y00270002
X00116988Y00280385
X00100747Y00289299
X00087768Y0027743
X00064866Y00279866
X00055584Y00264972
X00065Y00245
X00072967Y00198435
X0009175Y00203872
X00096474Y00193269
X0010354Y0018425
X0011475Y0018307
X00096268Y00167125
X00094249Y00158119
X0007313Y00153327
X00065Y00165
X00045Y00205
Y00125
X0003675Y0028925
X0001Y0028
X00107233Y00259367
X00115Y00324839
X00097Y00334
T04
X00021978Y00310772
X00034678
X00047379
X00060079
X00072779
Y00323472
X00060079
X00047379
X00034678
X00021978
T05
X00345263Y00025764
Y00051164
X00473917Y0005283
Y0002743
X00479726Y00260504
X00454326
T06
X00446202Y00091055
X00484202
Y00177456
X00446202
T07
X0008Y00014
X00243589Y00013423
X0042Y00012818
X0042Y00337
T08
X00245Y0009
X00467986Y00308905
T09
X00035Y00055
M30
