G04*
G04 #@! TF.GenerationSoftware,Altium Limited,Altium Designer,24.3.1 (35)*
G04*
G04 Layer_Color=65535*
%FSLAX44Y44*%
%MOMM*%
G71*
G04*
G04 #@! TF.SameCoordinates,1466609E-AFDC-4EB5-9CD4-67DB0788F0E7*
G04*
G04*
G04 #@! TF.FilePolarity,Positive*
G04*
G01*
G75*
%ADD10C,0.2000*%
%ADD11C,0.1000*%
%ADD12C,0.2500*%
%ADD13C,0.1500*%
%ADD14C,0.1524*%
%ADD15C,0.1270*%
%ADD16C,0.2032*%
%ADD17C,0.1200*%
D10*
X55000Y14000D02*
G03*
X55000Y12000I0J-1000D01*
G01*
D02*
G03*
X55000Y14000I0J1000D01*
G01*
X395000Y10818D02*
G03*
X395000Y12818I0J1000D01*
G01*
D02*
G03*
X395000Y10818I0J-1000D01*
G01*
X445000Y337000D02*
G03*
X445000Y339000I0J1000D01*
G01*
D02*
G03*
X445000Y337000I0J-1000D01*
G01*
X218589Y11423D02*
G03*
X218589Y13423I0J1000D01*
G01*
D02*
G03*
X218589Y11423I0J-1000D01*
G01*
X286000Y315500D02*
G03*
X286000Y316500I0J500D01*
G01*
D02*
G03*
X286000Y315500I0J-500D01*
G01*
X135500Y171750D02*
G03*
X135500Y169750I0J-1000D01*
G01*
D02*
G03*
X135500Y171750I0J1000D01*
G01*
X430702Y129256D02*
G03*
X431702Y129256I500J0D01*
G01*
D02*
G03*
X430702Y129256I-500J0D01*
G01*
D02*
G03*
X431702Y129256I500J0D01*
G01*
X460147Y14310D02*
X487647D01*
X472647Y68030D02*
X487647D01*
Y14310D02*
Y68030D01*
X460147Y14310D02*
Y52830D01*
X159600Y107000D02*
X186400D01*
X159600Y91000D02*
X196250D01*
X78500Y95500D02*
Y114000D01*
X67750Y95500D02*
X78500D01*
Y238000D02*
Y256500D01*
X67750D02*
X78500D01*
X33500D02*
X41750D01*
X33500Y95500D02*
Y256500D01*
Y95500D02*
X41750D01*
X331493Y12644D02*
Y51164D01*
X358993Y12644D02*
Y66364D01*
X343993D02*
X358993D01*
X331493Y12644D02*
X358993D01*
X240821Y186496D02*
X266821D01*
X240821D02*
Y212496D01*
X266821D01*
Y186496D02*
Y212496D01*
X149750Y70000D02*
X186400D01*
X159600Y54000D02*
X186400D01*
X159600Y17000D02*
X196250D01*
X159600Y33000D02*
X186400D01*
X79128Y299972D02*
Y303122D01*
X15628Y299972D02*
X79128D01*
X15628D02*
Y303122D01*
X79128Y331122D02*
Y334272D01*
X15628D02*
X79128D01*
X15628Y331122D02*
Y334272D01*
X141500Y199750D02*
X199500D01*
X141500Y141750D02*
X199500D01*
X124530Y241613D02*
X135030D01*
X138530Y220113D02*
Y240113D01*
Y220113D02*
X142030D01*
Y240113D01*
X138530D02*
X142030D01*
X492846Y246734D02*
Y274234D01*
X439126Y259234D02*
Y274234D01*
X492846D01*
X454326Y246734D02*
X492846D01*
X499702Y178955D02*
X510202D01*
Y89556D02*
Y178955D01*
X499702Y89556D02*
X510202D01*
X461702Y178955D02*
X469702D01*
X461702Y89556D02*
X469702D01*
D11*
X452424Y211269D02*
G03*
X453424Y211269I500J0D01*
G01*
D02*
G03*
X452424Y211269I-500J0D01*
G01*
X233198Y330509D02*
G03*
X232198Y330509I-500J0D01*
G01*
D02*
G03*
X233198Y330509I500J0D01*
G01*
X453436Y232797D02*
G03*
X452436Y232797I-500J0D01*
G01*
D02*
G03*
X453436Y232797I500J0D01*
G01*
X91750Y233500D02*
G03*
X90750Y233500I-500J0D01*
G01*
D02*
G03*
X91750Y233500I500J0D01*
G01*
X84778Y323472D02*
G03*
X83778Y323472I-500J0D01*
G01*
D02*
G03*
X84778Y323472I500J0D01*
G01*
X65000Y26500D02*
X95000D01*
X405000Y25318D02*
X435000D01*
X405000Y324500D02*
X435000D01*
X228589Y25923D02*
X258589D01*
D12*
X377549Y236306D02*
G03*
X377549Y236306I-1250J0D01*
G01*
X274445Y208996D02*
G03*
X274445Y208996I-1250J0D01*
G01*
D13*
X409319Y37948D02*
Y58448D01*
X397818Y37948D02*
X409319D01*
X397818D02*
Y58448D01*
X409319D01*
X424819Y37938D02*
Y58438D01*
X436319D01*
Y37938D02*
Y58438D01*
X424819Y37938D02*
X436319D01*
X113561Y9127D02*
X134061D01*
X113561D02*
Y20627D01*
X134061D01*
Y9127D02*
Y20627D01*
X113561Y47627D02*
X134061D01*
Y36127D02*
Y47627D01*
X113561Y36127D02*
X134061D01*
X113561D02*
Y47627D01*
X360500Y338500D02*
X372000D01*
X360500Y318000D02*
Y338500D01*
Y318000D02*
X372000D01*
Y338500D01*
X298501Y10415D02*
Y21915D01*
X278001D02*
X298501D01*
X278001Y10415D02*
Y21915D01*
Y10415D02*
X298501D01*
X346750Y318000D02*
Y338500D01*
X358250D01*
Y318000D02*
Y338500D01*
X346750Y318000D02*
X358250D01*
X113009Y235618D02*
Y256118D01*
X101509Y235618D02*
X113009D01*
X101509D02*
Y256118D01*
X113009D01*
X100250Y216250D02*
Y227750D01*
Y216250D02*
X120750D01*
Y227750D01*
X100250D02*
X120750D01*
X407799Y187056D02*
Y198556D01*
X387299D02*
X407799D01*
X387299Y187056D02*
Y198556D01*
Y187056D02*
X407799D01*
Y174556D02*
Y186056D01*
X387299D02*
X407799D01*
X387299Y174556D02*
Y186056D01*
Y174556D02*
X407799D01*
X322250Y148750D02*
Y169250D01*
X333750D01*
Y148750D02*
Y169250D01*
X322250Y148750D02*
X333750D01*
X305250D02*
Y169250D01*
X316750D01*
Y148750D02*
Y169250D01*
X305250Y148750D02*
X316750D01*
X313750Y182750D02*
Y203250D01*
X302250Y182750D02*
X313750D01*
X302250D02*
Y203250D01*
X313750D01*
X294789Y251150D02*
X315289D01*
Y239650D02*
Y251150D01*
X294789Y239650D02*
X315289D01*
X294789D02*
Y251150D01*
X269552Y324387D02*
X290052D01*
X269552D02*
Y335887D01*
X290052D01*
Y324387D02*
Y335887D01*
X13750Y285750D02*
X34250D01*
Y274250D02*
Y285750D01*
X13750Y274250D02*
X34250D01*
X13750D02*
Y285750D01*
X278001Y37415D02*
Y48915D01*
Y37415D02*
X298501D01*
Y48915D01*
X278001D02*
X298501D01*
X397021Y236292D02*
X399354D01*
X398187D01*
Y229295D01*
X397021D01*
X399354D01*
X407518Y235126D02*
X406351Y236292D01*
X404019D01*
X402853Y235126D01*
Y230461D01*
X404019Y229295D01*
X406351D01*
X407518Y230461D01*
X409850Y229295D02*
X412183D01*
X411017D01*
Y236292D01*
X409850Y235126D01*
D14*
X411319Y37948D02*
Y58448D01*
X422818D01*
Y37948D02*
Y58448D01*
X411319Y37948D02*
X422818D01*
X113561Y34127D02*
X134061D01*
Y22627D02*
Y34127D01*
X113561Y22627D02*
X134061D01*
X113561D02*
Y34127D01*
X278001Y23915D02*
Y35415D01*
Y23915D02*
X298501D01*
Y35415D01*
X278001D02*
X298501D01*
X374250Y318000D02*
X385750D01*
Y338500D01*
X374250D02*
X385750D01*
X374250Y318000D02*
Y338500D01*
X407799Y199556D02*
Y211056D01*
X387299D02*
X407799D01*
X387299Y199556D02*
Y211056D01*
Y199556D02*
X407799D01*
X100250Y107250D02*
X111750D01*
X100250Y86750D02*
Y107250D01*
Y86750D02*
X111750D01*
Y107250D01*
X184033Y237719D02*
Y249219D01*
Y237719D02*
X204533D01*
Y249219D01*
X184033D02*
X204533D01*
X254893Y220706D02*
Y232206D01*
X234393D02*
X254893D01*
X234393Y220706D02*
Y232206D01*
Y220706D02*
X254893D01*
X100250Y129000D02*
X120750D01*
X100250D02*
Y140500D01*
X120750D01*
Y129000D02*
Y140500D01*
X100250Y116500D02*
Y128000D01*
Y116500D02*
X120750D01*
Y128000D01*
X100250D02*
X120750D01*
X187075Y117179D02*
Y128679D01*
Y117179D02*
X207575D01*
Y128679D01*
X187075D02*
X207575D01*
X211231Y130795D02*
Y142295D01*
Y130795D02*
X231731D01*
Y142295D01*
X211231D02*
X231731D01*
X302250Y212750D02*
Y233250D01*
X313750D01*
Y212750D02*
Y233250D01*
X302250Y212750D02*
X313750D01*
X261555Y165584D02*
Y177084D01*
X241055D02*
X261555D01*
X241055Y165584D02*
Y177084D01*
Y165584D02*
X261555D01*
X100250Y214750D02*
X120750D01*
Y203250D02*
Y214750D01*
X100250Y203250D02*
X120750D01*
X100250D02*
Y214750D01*
Y201750D02*
X120750D01*
Y190250D02*
Y201750D01*
X100250Y190250D02*
X120750D01*
X100250D02*
Y201750D01*
Y165500D02*
X120750D01*
Y154000D02*
Y165500D01*
X100250Y154000D02*
X120750D01*
X100250D02*
Y165500D01*
Y153000D02*
X120750D01*
Y141500D02*
Y153000D01*
X100250Y141500D02*
X120750D01*
X100250D02*
Y153000D01*
X125750Y86750D02*
Y107250D01*
X114250Y86750D02*
X125750D01*
X114250D02*
Y107250D01*
X125750D01*
X102601Y57128D02*
Y77628D01*
X91101Y57128D02*
X102601D01*
X91101D02*
Y77628D01*
X102601D01*
X87886Y57128D02*
Y77628D01*
X76387Y57128D02*
X87886D01*
X76387D02*
Y77628D01*
X87886D01*
X344677Y275394D02*
X365176D01*
Y263894D02*
Y275394D01*
X344677Y263894D02*
X365176D01*
X344677D02*
Y275394D01*
X344711Y262421D02*
X365210D01*
Y250921D02*
Y262421D01*
X344711Y250921D02*
X365210D01*
X344711D02*
Y262421D01*
X359750Y148750D02*
Y169250D01*
X348250Y148750D02*
X359750D01*
X348250D02*
Y169250D01*
X359750D01*
X373750Y148750D02*
Y169250D01*
X362250Y148750D02*
X373750D01*
X362250D02*
Y169250D01*
X373750D01*
X326750Y254750D02*
Y275250D01*
X315250Y254750D02*
X326750D01*
X315250D02*
Y275250D01*
X326750D01*
X405442Y260019D02*
Y280518D01*
X393942Y260019D02*
X405442D01*
X393942D02*
Y280518D01*
X405442D01*
X356847Y97921D02*
Y118421D01*
X345347Y97921D02*
X356847D01*
X345347D02*
Y118421D01*
X356847D01*
X307401Y297122D02*
X327901D01*
X307401D02*
Y308622D01*
X327901D01*
Y297122D02*
Y308622D01*
X307052Y277724D02*
X327552D01*
X307052D02*
Y289224D01*
X327552D01*
Y277724D02*
Y289224D01*
X91829Y329222D02*
X112329D01*
Y317722D02*
Y329222D01*
X91829Y317722D02*
X112329D01*
X91829D02*
Y329222D01*
X39750Y285750D02*
X60250D01*
Y274250D02*
Y285750D01*
X39750Y274250D02*
X60250D01*
X39750D02*
Y285750D01*
X328386Y275433D02*
X344186D01*
Y262095D02*
Y275433D01*
X328506Y240357D02*
X344198D01*
X328386Y262192D02*
Y275433D01*
X344222Y240381D02*
Y253622D01*
X328344Y240518D02*
Y253530D01*
X376174Y283256D02*
X391974D01*
Y269918D02*
Y283256D01*
X376294Y248179D02*
X391986D01*
X376174Y270014D02*
Y283256D01*
X392010Y248203D02*
Y261445D01*
X376133Y248341D02*
Y261353D01*
X127731Y317321D02*
X148231D01*
X127731D02*
Y328821D01*
X148231D01*
Y317321D02*
Y328821D01*
D15*
X165000Y346750D02*
X228000D01*
X165000Y260750D02*
Y346750D01*
X228000Y260750D02*
Y346750D01*
X165000Y260750D02*
X228000D01*
D16*
X286000Y315500D02*
Y316500D01*
X278500Y288500D02*
Y294500D01*
X293500Y288500D02*
Y294500D01*
D17*
X275000Y11999D02*
X270002D01*
Y14498D01*
X270835Y15332D01*
X272501D01*
X273334Y14498D01*
Y11999D01*
Y13665D02*
X275000Y15332D01*
X270835Y16998D02*
X270002Y17831D01*
Y19497D01*
X270835Y20330D01*
X271668D01*
X272501Y19497D01*
Y18664D01*
Y19497D01*
X273334Y20330D01*
X274167D01*
X275000Y19497D01*
Y17831D01*
X274167Y16998D01*
X361739Y310265D02*
Y315263D01*
X364238D01*
X365071Y314430D01*
Y312764D01*
X364238Y311931D01*
X361739D01*
X363405D02*
X365071Y310265D01*
X366738Y314430D02*
X367571Y315263D01*
X369237D01*
X370070Y314430D01*
Y313597D01*
X369237Y312764D01*
X370070Y311931D01*
Y311098D01*
X369237Y310265D01*
X367571D01*
X366738Y311098D01*
Y311931D01*
X367571Y312764D01*
X366738Y313597D01*
Y314430D01*
X367571Y312764D02*
X369237D01*
X401102Y77376D02*
X406101D01*
Y74877D01*
X405268Y74044D01*
X403602D01*
X402769Y74877D01*
Y77376D01*
Y75710D02*
X401102Y74044D01*
X406101Y69046D02*
X405268Y70712D01*
X403602Y72378D01*
X401936D01*
X401102Y71545D01*
Y69879D01*
X401936Y69046D01*
X402769D01*
X403602Y69879D01*
Y72378D01*
X110511Y12168D02*
X105513D01*
Y14667D01*
X106346Y15500D01*
X108012D01*
X108845Y14667D01*
Y12168D01*
Y13834D02*
X110511Y15500D01*
Y17166D02*
Y18832D01*
Y17999D01*
X105513D01*
X106346Y17166D01*
X109898Y38980D02*
X104900D01*
Y41479D01*
X105733Y42312D01*
X107399D01*
X108232Y41479D01*
Y38980D01*
Y40646D02*
X109898Y42312D01*
Y47311D02*
Y43978D01*
X106566Y47311D01*
X105733D01*
X104900Y46477D01*
Y44811D01*
X105733Y43978D01*
X376994Y314532D02*
X376161Y315365D01*
X374494D01*
X373661Y314532D01*
Y311199D01*
X374494Y310366D01*
X376161D01*
X376994Y311199D01*
X378660Y310366D02*
X380326D01*
X379493D01*
Y315365D01*
X378660Y314532D01*
X382825D02*
X383658Y315365D01*
X385324D01*
X386157Y314532D01*
Y311199D01*
X385324Y310366D01*
X383658D01*
X382825Y311199D01*
Y314532D01*
X416236Y33052D02*
X415402Y33886D01*
X413736D01*
X412903Y33052D01*
Y29720D01*
X413736Y28887D01*
X415402D01*
X416236Y29720D01*
X417902D02*
X418735Y28887D01*
X420401D01*
X421234Y29720D01*
Y33052D01*
X420401Y33886D01*
X418735D01*
X417902Y33052D01*
Y32219D01*
X418735Y31386D01*
X421234D01*
X270835Y29082D02*
X270002Y28249D01*
Y26582D01*
X270835Y25749D01*
X274167D01*
X275000Y26582D01*
Y28249D01*
X274167Y29082D01*
X270002Y30748D02*
Y34080D01*
X270835D01*
X274167Y30748D01*
X275000D01*
X106112Y28533D02*
X105279Y27700D01*
Y26034D01*
X106112Y25201D01*
X109445D01*
X110278Y26034D01*
Y27700D01*
X109445Y28533D01*
X110278Y32699D02*
X105279D01*
X107779Y30199D01*
Y33532D01*
X213423Y43922D02*
X216756Y38924D01*
Y43922D02*
X213423Y38924D01*
X221754D02*
X218422D01*
X221754Y42256D01*
Y43089D01*
X220921Y43922D01*
X219255D01*
X218422Y43089D01*
X171324Y244415D02*
X170491Y245248D01*
X168825D01*
X167992Y244415D01*
Y241083D01*
X168825Y240250D01*
X170491D01*
X171324Y241083D01*
X172990Y240250D02*
X174657D01*
X173824D01*
Y245248D01*
X172990Y244415D01*
X180488Y240250D02*
X177156D01*
X180488Y243582D01*
Y244415D01*
X179655Y245248D01*
X177989D01*
X177156Y244415D01*
X431437Y194818D02*
X429771D01*
X430604D01*
Y190653D01*
X429771Y189820D01*
X428938D01*
X428105Y190653D01*
X433103Y189820D02*
X434769D01*
X433936D01*
Y194818D01*
X433103Y193985D01*
X347922Y310057D02*
Y315056D01*
X350422D01*
X351255Y314223D01*
Y312556D01*
X350422Y311723D01*
X347922D01*
X349589D02*
X351255Y310057D01*
X352921Y310890D02*
X353754Y310057D01*
X355420D01*
X356253Y310890D01*
Y314223D01*
X355420Y315056D01*
X353754D01*
X352921Y314223D01*
Y313389D01*
X353754Y312556D01*
X356253D01*
X439068Y58698D02*
X444067D01*
Y56199D01*
X443234Y55366D01*
X441568D01*
X440735Y56199D01*
Y58698D01*
Y57032D02*
X439068Y55366D01*
X444067Y53700D02*
Y50368D01*
X443234D01*
X439902Y53700D01*
X439068D01*
X275001Y40165D02*
X270002D01*
Y42664D01*
X270835Y43497D01*
X272502D01*
X273335Y42664D01*
Y40165D01*
Y41831D02*
X275001Y43497D01*
Y47662D02*
X270002D01*
X272502Y45163D01*
Y48495D01*
X130917Y313618D02*
X130084Y314451D01*
X128418D01*
X127585Y313618D01*
Y310286D01*
X128418Y309453D01*
X130084D01*
X130917Y310286D01*
X132583Y309453D02*
X134249D01*
X133416D01*
Y314451D01*
X132583Y313618D01*
X136748Y309453D02*
X138414D01*
X137582D01*
Y314451D01*
X136748Y313618D01*
X268849Y317270D02*
Y316437D01*
X270515Y314770D01*
X272182Y316437D01*
Y317270D01*
X270515Y314770D02*
Y312271D01*
X273848D02*
X275514D01*
X274681D01*
Y317270D01*
X273848Y316437D01*
X389562Y311211D02*
X392894Y306213D01*
Y311211D02*
X389562Y306213D01*
X397060D02*
Y311211D01*
X394561Y308712D01*
X397893D01*
X386073Y43347D02*
X389405Y38349D01*
Y43347D02*
X386073Y38349D01*
X391071Y42514D02*
X391904Y43347D01*
X393570D01*
X394403Y42514D01*
Y41681D01*
X393570Y40848D01*
X392737D01*
X393570D01*
X394403Y40015D01*
Y39182D01*
X393570Y38349D01*
X391904D01*
X391071Y39182D01*
X49668Y43499D02*
X53000Y38501D01*
Y43499D02*
X49668Y38501D01*
X54666D02*
X56332D01*
X55499D01*
Y43499D01*
X54666Y42666D01*
X436952Y283754D02*
Y280422D01*
X438618Y278756D01*
X440284Y280422D01*
Y283754D01*
X441950D02*
X443616D01*
X442783D01*
Y278756D01*
X441950D01*
X443616D01*
X446116Y283754D02*
Y278756D01*
X448615D01*
X449448Y279589D01*
Y280422D01*
X448615Y281255D01*
X446116D01*
X448615D01*
X449448Y282088D01*
Y282921D01*
X448615Y283754D01*
X446116D01*
X451114Y277922D02*
X454446D01*
X456112Y278756D02*
Y283754D01*
X457779Y282088D01*
X459445Y283754D01*
Y278756D01*
X463610Y283754D02*
X461944D01*
X461111Y282921D01*
Y279589D01*
X461944Y278756D01*
X463610D01*
X464443Y279589D01*
Y282921D01*
X463610Y283754D01*
X466109D02*
X469441D01*
X467775D01*
Y278756D01*
X471107D02*
X472774D01*
X471940D01*
Y283754D01*
X471107Y282921D01*
X228432Y191796D02*
Y187631D01*
X229265Y186798D01*
X230931D01*
X231764Y187631D01*
Y191796D01*
X233431Y186798D02*
X235097D01*
X234264D01*
Y191796D01*
X233431Y190963D01*
X13835Y266501D02*
Y271499D01*
X16334D01*
X17167Y270666D01*
Y269000D01*
X16334Y268167D01*
X13835D01*
X15501D02*
X17167Y266501D01*
X22165Y271499D02*
X18833D01*
Y269000D01*
X20499Y269833D01*
X21332D01*
X22165Y269000D01*
Y267334D01*
X21332Y266501D01*
X19666D01*
X18833Y267334D01*
X270000Y339000D02*
Y343998D01*
X272499D01*
X273332Y343165D01*
Y341499D01*
X272499Y340666D01*
X270000D01*
X271666D02*
X273332Y339000D01*
X274998D02*
X276665D01*
X275831D01*
Y343998D01*
X274998Y343165D01*
X279164D02*
X279997Y343998D01*
X281663D01*
X282496Y343165D01*
Y339833D01*
X281663Y339000D01*
X279997D01*
X279164Y339833D01*
Y343165D01*
X295179Y255523D02*
X290180D01*
Y258022D01*
X291013Y258855D01*
X292680D01*
X293513Y258022D01*
Y255523D01*
Y257189D02*
X295179Y258855D01*
Y260521D02*
Y262187D01*
Y261354D01*
X290180D01*
X291013Y260521D01*
X290180Y268019D02*
X291013Y266353D01*
X292680Y264687D01*
X294346D01*
X295179Y265520D01*
Y267186D01*
X294346Y268019D01*
X293513D01*
X292680Y267186D01*
Y264687D01*
X292546Y186852D02*
X287548D01*
Y189351D01*
X288381Y190184D01*
X290047D01*
X290880Y189351D01*
Y186852D01*
Y188518D02*
X292546Y190184D01*
Y191850D02*
Y193516D01*
Y192683D01*
X287548D01*
X288381Y191850D01*
X287548Y199347D02*
Y196015D01*
X290047D01*
X289214Y197681D01*
Y198514D01*
X290047Y199347D01*
X291713D01*
X292546Y198514D01*
Y196848D01*
X291713Y196015D01*
X304796Y172498D02*
Y177497D01*
X307295D01*
X308128Y176664D01*
Y174998D01*
X307295Y174165D01*
X304796D01*
X306462D02*
X308128Y172498D01*
X309794D02*
X311460D01*
X310627D01*
Y177497D01*
X309794Y176664D01*
X316459Y172498D02*
Y177497D01*
X313960Y174998D01*
X317292D01*
X321303Y172392D02*
Y177391D01*
X323802D01*
X324635Y176558D01*
Y174891D01*
X323802Y174058D01*
X321303D01*
X322969D02*
X324635Y172392D01*
X326301D02*
X327967D01*
X327135D01*
Y177391D01*
X326301Y176558D01*
X330467D02*
X331300Y177391D01*
X332966D01*
X333799Y176558D01*
Y175725D01*
X332966Y174891D01*
X332133D01*
X332966D01*
X333799Y174058D01*
Y173225D01*
X332966Y172392D01*
X331300D01*
X330467Y173225D01*
X387000Y167000D02*
Y171998D01*
X389499D01*
X390332Y171165D01*
Y169499D01*
X389499Y168666D01*
X387000D01*
X388666D02*
X390332Y167000D01*
X391998D02*
X393665D01*
X392831D01*
Y171998D01*
X391998Y171165D01*
X399496Y167000D02*
X396164D01*
X399496Y170332D01*
Y171165D01*
X398663Y171998D01*
X396997D01*
X396164Y171165D01*
X411000Y187000D02*
Y191998D01*
X413499D01*
X414332Y191165D01*
Y189499D01*
X413499Y188666D01*
X411000D01*
X412666D02*
X414332Y187000D01*
X415998D02*
X417664D01*
X416831D01*
Y191998D01*
X415998Y191165D01*
X420164Y187000D02*
X421830D01*
X420997D01*
Y191998D01*
X420164Y191165D01*
X121711Y231515D02*
X116713D01*
Y234014D01*
X117546Y234847D01*
X119212D01*
X120045Y234014D01*
Y231515D01*
Y233181D02*
X121711Y234847D01*
Y236513D02*
Y238179D01*
Y237346D01*
X116713D01*
X117546Y236513D01*
Y240679D02*
X116713Y241512D01*
Y243178D01*
X117546Y244011D01*
X118379D01*
X119212Y243178D01*
X120045Y244011D01*
X120878D01*
X121711Y243178D01*
Y241512D01*
X120878Y240679D01*
X120045D01*
X119212Y241512D01*
X118379Y240679D01*
X117546D01*
X119212Y241512D02*
Y243178D01*
X97598Y239385D02*
X92600D01*
Y241884D01*
X93433Y242717D01*
X95099D01*
X95932Y241884D01*
Y239385D01*
Y241051D02*
X97598Y242717D01*
Y244383D02*
Y246049D01*
Y245216D01*
X92600D01*
X93433Y244383D01*
X92600Y248549D02*
Y251881D01*
X93433D01*
X96765Y248549D01*
X97598D01*
X127968Y246546D02*
Y249878D01*
X127135Y250711D01*
X125469D01*
X124636Y249878D01*
Y246546D01*
X125469Y245713D01*
X127135D01*
X126302Y247379D02*
X127968Y245713D01*
X127135D02*
X127968Y246546D01*
X129634Y245713D02*
X131300D01*
X130467D01*
Y250711D01*
X129634Y249878D01*
X364532Y12358D02*
Y17356D01*
X367864Y12358D01*
Y17356D01*
X369530D02*
X372863D01*
X371196D01*
Y12358D01*
X377861Y16523D02*
X377028Y17356D01*
X375362D01*
X374529Y16523D01*
Y13191D01*
X375362Y12358D01*
X377028D01*
X377861Y13191D01*
X379527Y12358D02*
X381193D01*
X380360D01*
Y17356D01*
X379527Y16523D01*
X376000Y290998D02*
Y286000D01*
X379332D01*
X384331D02*
X380998D01*
X384331Y289332D01*
Y290165D01*
X383498Y290998D01*
X381831D01*
X380998Y290165D01*
X336819Y292406D02*
Y287408D01*
X340151D01*
X341818D02*
X343484D01*
X342651D01*
Y292406D01*
X341818Y291573D01*
X142000Y212998D02*
Y206000D01*
X146665D01*
X148998Y211831D02*
X150164Y212998D01*
X152497D01*
X153663Y211831D01*
Y210665D01*
X152497Y209499D01*
X151330D01*
X152497D01*
X153663Y208333D01*
Y207166D01*
X152497Y206000D01*
X150164D01*
X148998Y207166D01*
X10332Y342998D02*
X8666D01*
X9499D01*
Y338833D01*
X8666Y338000D01*
X7833D01*
X7000Y338833D01*
X11998Y342998D02*
X15331D01*
X13664D01*
Y338000D01*
X16997D02*
Y341332D01*
X18663Y342998D01*
X20329Y341332D01*
Y338000D01*
Y340499D01*
X16997D01*
X25327Y342165D02*
X24494Y342998D01*
X22828D01*
X21995Y342165D01*
Y338833D01*
X22828Y338000D01*
X24494D01*
X25327Y338833D01*
Y340499D01*
X23661D01*
X26994Y338000D02*
X28660D01*
X27826D01*
Y342998D01*
X26994Y342165D01*
X13834Y262499D02*
X11501D01*
X12667D01*
Y256667D01*
X11501Y255501D01*
X10335D01*
X9168Y256667D01*
X20831Y255501D02*
X16166D01*
X20831Y260166D01*
Y261333D01*
X19665Y262499D01*
X17333D01*
X16166Y261333D01*
X458952Y207754D02*
Y202756D01*
X461451D01*
X462284Y203589D01*
Y206921D01*
X461451Y207754D01*
X458952D01*
X463950Y206921D02*
X464783Y207754D01*
X466450D01*
X467283Y206921D01*
Y206088D01*
X466450Y205255D01*
X465616D01*
X466450D01*
X467283Y204422D01*
Y203589D01*
X466450Y202756D01*
X464783D01*
X463950Y203589D01*
X458952Y229754D02*
Y224756D01*
X461451D01*
X462284Y225589D01*
Y228921D01*
X461451Y229754D01*
X458952D01*
X467283Y224756D02*
X463950D01*
X467283Y228088D01*
Y228921D01*
X466450Y229754D01*
X464783D01*
X463950Y228921D01*
X238000Y343998D02*
Y339000D01*
X240499D01*
X241332Y339833D01*
Y343165D01*
X240499Y343998D01*
X238000D01*
X242998Y339000D02*
X244664D01*
X243831D01*
Y343998D01*
X242998Y343165D01*
X137281Y40702D02*
Y35703D01*
X139780D01*
X140613Y36537D01*
Y39869D01*
X139780Y40702D01*
X137281D01*
X145612D02*
X143946Y39869D01*
X142280Y38203D01*
Y36537D01*
X143113Y35703D01*
X144779D01*
X145612Y36537D01*
Y37370D01*
X144779Y38203D01*
X142280D01*
X136750Y77998D02*
Y73000D01*
X139249D01*
X140082Y73833D01*
Y77165D01*
X139249Y77998D01*
X136750D01*
X145081D02*
X141748D01*
Y75499D01*
X143414Y76332D01*
X144248D01*
X145081Y75499D01*
Y73833D01*
X144248Y73000D01*
X142581D01*
X141748Y73833D01*
X137000Y115248D02*
Y110250D01*
X139499D01*
X140332Y111083D01*
Y114415D01*
X139499Y115248D01*
X137000D01*
X144498Y110250D02*
Y115248D01*
X141998Y112749D01*
X145331D01*
X233471Y169005D02*
X232638Y168172D01*
Y166506D01*
X233471Y165673D01*
X236804D01*
X237637Y166506D01*
Y168172D01*
X236804Y169005D01*
X237637Y174003D02*
Y170671D01*
X234304Y174003D01*
X233471D01*
X232638Y173170D01*
Y171504D01*
X233471Y170671D01*
X239809Y238456D02*
X240642Y239289D01*
Y240955D01*
X239809Y241788D01*
X236477D01*
X235644Y240955D01*
Y239289D01*
X236477Y238456D01*
X235644Y236790D02*
Y235124D01*
Y235957D01*
X240642D01*
X239809Y236790D01*
X294106Y216157D02*
X293273Y215324D01*
Y213658D01*
X294106Y212825D01*
X297438D01*
X298271Y213658D01*
Y215324D01*
X297438Y216157D01*
X298271Y221156D02*
Y217824D01*
X294939Y221156D01*
X294106D01*
X293273Y220323D01*
Y218657D01*
X294106Y217824D01*
X298271Y222822D02*
Y224488D01*
Y223655D01*
X293273D01*
X294106Y222822D01*
X66028Y271961D02*
X65195Y272795D01*
X63529D01*
X62696Y271961D01*
Y268629D01*
X63529Y267796D01*
X65195D01*
X66028Y268629D01*
X67694Y271961D02*
X68527Y272795D01*
X70193D01*
X71026Y271961D01*
Y271128D01*
X70193Y270295D01*
X71026Y269462D01*
Y268629D01*
X70193Y267796D01*
X68527D01*
X67694Y268629D01*
Y269462D01*
X68527Y270295D01*
X67694Y271128D01*
Y271961D01*
X68527Y270295D02*
X70193D01*
X110636Y339567D02*
X109803Y340400D01*
X108137D01*
X107304Y339567D01*
Y336235D01*
X108137Y335402D01*
X109803D01*
X110636Y336235D01*
X115634Y340400D02*
X113968Y339567D01*
X112302Y337901D01*
Y336235D01*
X113135Y335402D01*
X114801D01*
X115634Y336235D01*
Y337068D01*
X114801Y337901D01*
X112302D01*
X299835Y283332D02*
X299002Y282499D01*
Y280833D01*
X299835Y280000D01*
X303167D01*
X304000Y280833D01*
Y282499D01*
X303167Y283332D01*
X299835Y284998D02*
X299002Y285831D01*
Y287498D01*
X299835Y288331D01*
X300668D01*
X301501Y287498D01*
Y286665D01*
Y287498D01*
X302334Y288331D01*
X303167D01*
X304000Y287498D01*
Y285831D01*
X303167Y284998D01*
X299835Y302332D02*
X299002Y301499D01*
Y299833D01*
X299835Y299000D01*
X303167D01*
X304000Y299833D01*
Y301499D01*
X303167Y302332D01*
X299002Y307331D02*
Y303998D01*
X301501D01*
X300668Y305665D01*
Y306498D01*
X301501Y307331D01*
X303167D01*
X304000Y306498D01*
Y304831D01*
X303167Y303998D01*
X347332Y87165D02*
X346499Y87998D01*
X344833D01*
X344000Y87165D01*
Y83833D01*
X344833Y83000D01*
X346499D01*
X347332Y83833D01*
X352331Y83000D02*
X348998D01*
X352331Y86332D01*
Y87165D01*
X351497Y87998D01*
X349831D01*
X348998Y87165D01*
X353997D02*
X354830Y87998D01*
X356496D01*
X357329Y87165D01*
Y83833D01*
X356496Y83000D01*
X354830D01*
X353997Y83833D01*
Y87165D01*
X397332Y288165D02*
X396499Y288998D01*
X394833D01*
X394000Y288165D01*
Y284833D01*
X394833Y284000D01*
X396499D01*
X397332Y284833D01*
X398998Y284000D02*
X400664D01*
X399831D01*
Y288998D01*
X398998Y288165D01*
X403164Y284833D02*
X403997Y284000D01*
X405663D01*
X406496Y284833D01*
Y288165D01*
X405663Y288998D01*
X403997D01*
X403164Y288165D01*
Y287332D01*
X403997Y286499D01*
X406496D01*
X301084Y258798D02*
X300251Y257965D01*
Y256299D01*
X301084Y255466D01*
X304417D01*
X305250Y256299D01*
Y257965D01*
X304417Y258798D01*
X305250Y260464D02*
Y262130D01*
Y261297D01*
X300251D01*
X301084Y260464D01*
Y264630D02*
X300251Y265463D01*
Y267129D01*
X301084Y267962D01*
X301917D01*
X302750Y267129D01*
X303583Y267962D01*
X304417D01*
X305250Y267129D01*
Y265463D01*
X304417Y264630D01*
X303583D01*
X302750Y265463D01*
X301917Y264630D01*
X301084D01*
X302750Y265463D02*
Y267129D01*
X377835Y152332D02*
X377002Y151499D01*
Y149833D01*
X377835Y149000D01*
X381167D01*
X382000Y149833D01*
Y151499D01*
X381167Y152332D01*
X382000Y153998D02*
Y155665D01*
Y154831D01*
X377002D01*
X377835Y153998D01*
X377002Y158164D02*
Y161496D01*
X377835D01*
X381167Y158164D01*
X382000D01*
X340835Y151332D02*
X340002Y150499D01*
Y148833D01*
X340835Y148000D01*
X344167D01*
X345000Y148833D01*
Y150499D01*
X344167Y151332D01*
X345000Y152998D02*
Y154664D01*
Y153831D01*
X340002D01*
X340835Y152998D01*
X340002Y160496D02*
X340835Y158830D01*
X342501Y157164D01*
X344167D01*
X345000Y157997D01*
Y159663D01*
X344167Y160496D01*
X343334D01*
X342501Y159663D01*
Y157164D01*
X360595Y281388D02*
X359762Y280555D01*
Y278889D01*
X360595Y278056D01*
X363927D01*
X364760Y278889D01*
Y280555D01*
X363927Y281388D01*
X364760Y283055D02*
Y284721D01*
Y283888D01*
X359762D01*
X360595Y283055D01*
X359762Y290552D02*
Y287220D01*
X362261D01*
X361428Y288886D01*
Y289719D01*
X362261Y290552D01*
X363927D01*
X364760Y289719D01*
Y288053D01*
X363927Y287220D01*
X352695Y281697D02*
X351862Y280864D01*
Y279198D01*
X352695Y278365D01*
X356027D01*
X356860Y279198D01*
Y280864D01*
X356027Y281697D01*
X356860Y283363D02*
Y285029D01*
Y284196D01*
X351862D01*
X352695Y283363D01*
X356860Y290028D02*
X351862D01*
X354361Y287529D01*
Y290861D01*
X412135Y202565D02*
X411302Y201732D01*
Y200066D01*
X412135Y199233D01*
X415468D01*
X416301Y200066D01*
Y201732D01*
X415468Y202565D01*
X416301Y204231D02*
Y205898D01*
Y205064D01*
X411302D01*
X412135Y204231D01*
Y208397D02*
X411302Y209230D01*
Y210896D01*
X412135Y211729D01*
X412968D01*
X413801Y210896D01*
Y210063D01*
Y210896D01*
X414635Y211729D01*
X415468D01*
X416301Y210896D01*
Y209230D01*
X415468Y208397D01*
X68464Y70876D02*
X67631Y70043D01*
Y68377D01*
X68464Y67544D01*
X71796D01*
X72629Y68377D01*
Y70043D01*
X71796Y70876D01*
X68464Y72542D02*
X67631Y73376D01*
Y75042D01*
X68464Y75875D01*
X69297D01*
X70130Y75042D01*
Y74208D01*
Y75042D01*
X70963Y75875D01*
X71796D01*
X72629Y75042D01*
Y73376D01*
X71796Y72542D01*
X68464Y77541D02*
X67631Y78374D01*
Y80040D01*
X68464Y80873D01*
X69297D01*
X70130Y80040D01*
Y79207D01*
Y80040D01*
X70963Y80873D01*
X71796D01*
X72629Y80040D01*
Y78374D01*
X71796Y77541D01*
X106484Y60759D02*
X105651Y59926D01*
Y58260D01*
X106484Y57427D01*
X109817D01*
X110650Y58260D01*
Y59926D01*
X109817Y60759D01*
X106484Y62425D02*
X105651Y63259D01*
Y64925D01*
X106484Y65758D01*
X107317D01*
X108151Y64925D01*
Y64092D01*
Y64925D01*
X108984Y65758D01*
X109817D01*
X110650Y64925D01*
Y63259D01*
X109817Y62425D01*
X110650Y70756D02*
Y67424D01*
X107317Y70756D01*
X106484D01*
X105651Y69923D01*
Y68257D01*
X106484Y67424D01*
X96165Y99668D02*
X96998Y100501D01*
Y102167D01*
X96165Y103000D01*
X92833D01*
X92000Y102167D01*
Y100501D01*
X92833Y99668D01*
X96165Y98002D02*
X96998Y97169D01*
Y95503D01*
X96165Y94669D01*
X95332D01*
X94499Y95503D01*
Y96335D01*
Y95503D01*
X93666Y94669D01*
X92833D01*
X92000Y95503D01*
Y97169D01*
X92833Y98002D01*
X92000Y93003D02*
Y91337D01*
Y92170D01*
X96998D01*
X96165Y93003D01*
X132880Y99062D02*
X133713Y99895D01*
Y101561D01*
X132880Y102394D01*
X129548D01*
X128715Y101561D01*
Y99895D01*
X129548Y99062D01*
X132880Y97396D02*
X133713Y96563D01*
Y94897D01*
X132880Y94064D01*
X132047D01*
X131214Y94897D01*
Y95730D01*
Y94897D01*
X130381Y94064D01*
X129548D01*
X128715Y94897D01*
Y96563D01*
X129548Y97396D01*
X132880Y92397D02*
X133713Y91565D01*
Y89898D01*
X132880Y89065D01*
X129548D01*
X128715Y89898D01*
Y91565D01*
X129548Y92397D01*
X132880D01*
X134213Y122206D02*
X133380Y123039D01*
X131714D01*
X130881Y122206D01*
Y118874D01*
X131714Y118041D01*
X133380D01*
X134213Y118874D01*
X139212Y118041D02*
X135880D01*
X139212Y121373D01*
Y122206D01*
X138379Y123039D01*
X136713D01*
X135880Y122206D01*
X140878Y118874D02*
X141711Y118041D01*
X143377D01*
X144210Y118874D01*
Y122206D01*
X143377Y123039D01*
X141711D01*
X140878Y122206D01*
Y121373D01*
X141711Y120540D01*
X144210D01*
X134213Y132011D02*
X133380Y132844D01*
X131714D01*
X130881Y132011D01*
Y128679D01*
X131714Y127845D01*
X133380D01*
X134213Y128679D01*
X139212Y127845D02*
X135880D01*
X139212Y131178D01*
Y132011D01*
X138379Y132844D01*
X136713D01*
X135880Y132011D01*
X140878D02*
X141711Y132844D01*
X143377D01*
X144210Y132011D01*
Y131178D01*
X143377Y130345D01*
X144210Y129512D01*
Y128679D01*
X143377Y127845D01*
X141711D01*
X140878Y128679D01*
Y129512D01*
X141711Y130345D01*
X140878Y131178D01*
Y132011D01*
X141711Y130345D02*
X143377D01*
X193993Y135845D02*
X193160Y136678D01*
X191494D01*
X190661Y135845D01*
Y132513D01*
X191494Y131679D01*
X193160D01*
X193993Y132513D01*
X198991Y131679D02*
X195659D01*
X198991Y135012D01*
Y135845D01*
X198158Y136678D01*
X196492D01*
X195659Y135845D01*
X200657Y136678D02*
X203990D01*
Y135845D01*
X200657Y132513D01*
Y131679D01*
X131686Y139416D02*
X130853Y138583D01*
Y136917D01*
X131686Y136084D01*
X135019D01*
X135852Y136917D01*
Y138583D01*
X135019Y139416D01*
X135852Y144415D02*
Y141082D01*
X132520Y144415D01*
X131686D01*
X130853Y143582D01*
Y141916D01*
X131686Y141082D01*
X130853Y149413D02*
X131686Y147747D01*
X133353Y146081D01*
X135019D01*
X135852Y146914D01*
Y148580D01*
X135019Y149413D01*
X134186D01*
X133353Y148580D01*
Y146081D01*
X131482Y156030D02*
X130649Y155197D01*
Y153531D01*
X131482Y152698D01*
X134814D01*
X135647Y153531D01*
Y155197D01*
X134814Y156030D01*
X135647Y161028D02*
Y157696D01*
X132315Y161028D01*
X131482D01*
X130649Y160195D01*
Y158529D01*
X131482Y157696D01*
X130649Y166027D02*
Y162695D01*
X133148D01*
X132315Y164361D01*
Y165194D01*
X133148Y166027D01*
X134814D01*
X135647Y165194D01*
Y163528D01*
X134814Y162695D01*
X238332Y138165D02*
X237499Y138998D01*
X235833D01*
X235000Y138165D01*
Y134833D01*
X235833Y134000D01*
X237499D01*
X238332Y134833D01*
X243331Y134000D02*
X239998D01*
X243331Y137332D01*
Y138165D01*
X242498Y138998D01*
X240831D01*
X239998Y138165D01*
X247496Y134000D02*
Y138998D01*
X244997Y136499D01*
X248329D01*
X123192Y186622D02*
X122359Y187455D01*
X120693D01*
X119860Y186622D01*
Y183290D01*
X120693Y182457D01*
X122359D01*
X123192Y183290D01*
X128190Y182457D02*
X124858D01*
X128190Y185789D01*
Y186622D01*
X127357Y187455D01*
X125691D01*
X124858Y186622D01*
X129856D02*
X130689Y187455D01*
X132355D01*
X133188Y186622D01*
Y185789D01*
X132355Y184956D01*
X131522D01*
X132355D01*
X133188Y184123D01*
Y183290D01*
X132355Y182457D01*
X130689D01*
X129856Y183290D01*
X92016Y216332D02*
X91183Y215499D01*
Y213833D01*
X92016Y213000D01*
X95348D01*
X96181Y213833D01*
Y215499D01*
X95348Y216332D01*
X96181Y221331D02*
Y217998D01*
X92849Y221331D01*
X92016D01*
X91183Y220498D01*
Y218831D01*
X92016Y217998D01*
X96181Y226329D02*
Y222997D01*
X92849Y226329D01*
X92016D01*
X91183Y225496D01*
Y223830D01*
X92016Y222997D01*
X450520Y29088D02*
X455518D01*
Y31587D01*
X454686Y32420D01*
X453852D01*
X453019Y31587D01*
Y29088D01*
Y31587D01*
X452186Y32420D01*
X451353D01*
X450520Y31587D01*
Y29088D01*
X455518Y34086D02*
X452186D01*
X450520Y35752D01*
X452186Y37419D01*
X455518D01*
X453019D01*
Y34086D01*
X450520Y39085D02*
Y42417D01*
Y40751D01*
X455518D01*
Y44083D02*
Y45749D01*
Y44916D01*
X450520D01*
X451353Y44083D01*
X148132Y344406D02*
X151465Y341074D01*
X148132D02*
X151465Y344406D01*
X148132Y342740D02*
X151465D01*
X149799Y341074D02*
Y344406D01*
X153131Y340241D02*
X154797D01*
X153964D01*
Y345239D01*
X153131Y344406D01*
M02*
